<svg width="64" height="54" viewBox="0 0 64 54" fill="none" xmlns="http://www.w3.org/2000/svg">
<path d="M61 0H3C2.20435 0 1.44129 0.316071 0.87868 0.87868C0.31607 1.44129 0 2.20435 0 3L0 47C0 47.7957 0.31607 48.5587 0.87868 49.1213C1.44129 49.6839 2.20435 50 3 50H11C11.2652 50 11.5196 49.8946 11.7071 49.7071C11.8946 49.5196 12 49.2652 12 49C12 48.7348 11.8946 48.4804 11.7071 48.2929C11.5196 48.1054 11.2652 48 11 48H3C2.73478 48 2.48043 47.8946 2.29289 47.7071C2.10536 47.5196 2 47.2652 2 47V3C2 2.73478 2.10536 2.48043 2.29289 2.29289C2.48043 2.10536 2.73478 2 3 2H61C61.2652 2 61.5196 2.10536 61.7071 2.29289C61.8946 2.48043 62 2.73478 62 3V47C62 47.2652 61.8946 47.5196 61.7071 47.7071C61.5196 47.8946 61.2652 48 61 48H53C52.7348 48 52.4804 48.1054 52.2929 48.2929C52.1054 48.4804 52 48.7348 52 49C52 49.2652 52.1054 49.5196 52.2929 49.7071C52.4804 49.8946 52.7348 50 53 50H61C61.7957 50 62.5587 49.6839 63.1213 49.1213C63.6839 48.5587 64 47.7957 64 47V3C64 2.20435 63.6839 1.44129 63.1213 0.87868C62.5587 0.316071 61.7957 0 61 0Z" fill="black"/>
<path d="M5 6C5.55228 6 6 5.55228 6 5C6 4.44772 5.55228 4 5 4C4.44772 4 4 4.44772 4 5C4 5.55228 4.44772 6 5 6Z" fill="black"/>
<path d="M9 6C9.55228 6 10 5.55228 10 5C10 4.44772 9.55228 4 9 4C8.44772 4 8 4.44772 8 5C8 5.55228 8.44772 6 9 6Z" fill="black"/>
<path d="M13 6C13.5523 6 14 5.55228 14 5C14 4.44772 13.5523 4 13 4C12.4477 4 12 4.44772 12 5C12 5.55228 12.4477 6 13 6Z" fill="black"/>
<path d="M59 6C59.2652 6 59.5196 5.89464 59.7071 5.70711C59.8946 5.51957 60 5.26522 60 5C60 4.73478 59.8946 4.48043 59.7071 4.29289C59.5196 4.10536 59.2652 4 59 4H17C16.7348 4 16.4804 4.10536 16.2929 4.29289C16.1054 4.48043 16 4.73478 16 5C16 5.26522 16.1054 5.51957 16.2929 5.70711C16.4804 5.89464 16.7348 6 17 6H59Z" fill="black"/>
<path d="M54 35C53.9997 34.8575 53.9692 34.7167 53.9104 34.5869C53.8516 34.457 53.7659 34.3412 53.659 34.247L45.659 27.247C45.5144 27.1203 45.3364 27.038 45.1462 27.0099C44.956 26.9818 44.7618 27.0091 44.5867 27.0886C44.4116 27.168 44.2632 27.2962 44.1591 27.4579C44.0551 27.6195 43.9998 27.8078 44 28V30H40C37.1747 30.0047 34.4277 30.9287 32.1739 32.6325C29.9202 34.3362 28.282 36.7271 27.507 39.444C26.5741 38.5191 25.3137 38.0002 24 38H19C18.7348 38 18.4804 38.1054 18.2929 38.2929C18.1054 38.4804 18 38.7348 18 39V39.8L12.519 35L18 30.2V31C18 31.2652 18.1054 31.5196 18.2929 31.7071C18.4804 31.8946 18.7348 32 19 32H28C28.2652 32 28.5196 31.8946 28.7071 31.7071C28.8946 31.5196 29 31.2652 29 31V21C29 20.7348 28.8946 20.4804 28.7071 20.2929C28.5196 20.1054 28.2652 20 28 20H27.2L32 14.519L36.8 20H36C35.7348 20 35.4804 20.1054 35.2929 20.2929C35.1054 20.4804 35 20.7348 35 21V28C35 28.2652 35.1054 28.5196 35.2929 28.7071C35.4804 28.8946 35.7348 29 36 29C36.2652 29 36.5196 28.8946 36.7071 28.7071C36.8946 28.5196 37 28.2652 37 28V22H39C39.192 21.9998 39.3798 21.9444 39.5411 21.8403C39.7025 21.7362 39.8304 21.5879 39.9097 21.4131C39.989 21.2382 40.0163 21.0443 39.9883 20.8544C39.9604 20.6644 39.8783 20.4866 39.752 20.342L32.752 12.342C32.6559 12.2394 32.5397 12.1577 32.4107 12.1018C32.2817 12.0459 32.1426 12.0171 32.002 12.0171C31.8614 12.0171 31.7223 12.0459 31.5933 12.1018C31.4643 12.1577 31.3482 12.2394 31.252 12.342L24.252 20.342C24.1259 20.4863 24.0439 20.6638 24.0158 20.8534C23.9877 21.0429 24.0147 21.2366 24.0935 21.4113C24.1723 21.5859 24.2996 21.7343 24.4603 21.8387C24.6211 21.943 24.8084 21.999 25 22H27V30H20V28C20.0002 27.8078 19.9449 27.6195 19.8409 27.4579C19.7368 27.2962 19.5884 27.168 19.4133 27.0886C19.2383 27.0091 19.044 26.9818 18.8538 27.0099C18.6636 27.038 18.4856 27.1203 18.341 27.247L10.341 34.247C10.2336 34.3409 10.1475 34.4566 10.0885 34.5865C10.0295 34.7164 9.99902 34.8574 9.99902 35C9.99902 35.1426 10.0295 35.2836 10.0885 35.4135C10.1475 35.5434 10.2336 35.6591 10.341 35.753L18.341 42.753C18.4856 42.8797 18.6636 42.962 18.8538 42.9901C19.044 43.0182 19.2383 42.9909 19.4133 42.9115C19.5884 42.832 19.7368 42.7038 19.8409 42.5421C19.9449 42.3805 20.0002 42.1922 20 42V40H24C24.7957 40 25.5587 40.3161 26.1213 40.8787C26.6839 41.4413 27 42.2044 27 43V53C27 53.2652 27.1054 53.5196 27.2929 53.7071C27.4804 53.8947 27.7348 54 28 54C28.2652 54 28.5196 53.8947 28.7071 53.7071C28.8946 53.5196 29 53.2652 29 53V43C29.0034 40.0837 30.1635 37.2878 32.2256 35.2256C34.2878 33.1635 37.0837 32.0034 40 32H45C45.2652 32 45.5196 31.8946 45.7071 31.7071C45.8946 31.5196 46 31.2652 46 31V30.2L51.481 35L46 39.8V39C46 38.7348 45.8946 38.4804 45.7071 38.2929C45.5196 38.1054 45.2652 38 45 38H40C38.6744 38.0016 37.4036 38.5289 36.4662 39.4662C35.5289 40.4036 35.0016 41.6744 35 43V53C35 53.2652 35.1054 53.5196 35.2929 53.7071C35.4804 53.8947 35.7348 54 36 54C36.2652 54 36.5196 53.8947 36.7071 53.7071C36.8946 53.5196 37 53.2652 37 53V43C37 42.2044 37.3161 41.4413 37.8787 40.8787C38.4413 40.3161 39.2044 40 40 40H44V42C43.9998 42.1922 44.0551 42.3805 44.1591 42.5421C44.2632 42.7038 44.4116 42.832 44.5867 42.9115C44.7618 42.9909 44.956 43.0182 45.1462 42.9901C45.3364 42.962 45.5144 42.8797 45.659 42.753L53.659 35.753C53.7659 35.6588 53.8516 35.543 53.9104 35.4131C53.9692 35.2833 53.9997 35.1425 54 35Z" fill="black"/>
</svg>
