<svg width="62" height="59" viewBox="0 0 62 59" fill="none" xmlns="http://www.w3.org/2000/svg">
<path d="M58.1518 59H3.59549C2.64243 58.9983 1.72889 58.619 1.05497 57.945C0.381056 57.2711 0.00170038 56.3576 0 55.4045V13.6544C0 13.4838 0.0677657 13.3202 0.188389 13.1996C0.309013 13.0789 0.472613 13.0112 0.643201 13.0112H61.1041C61.2746 13.0112 61.4382 13.0789 61.5589 13.1996C61.6795 13.3202 61.7473 13.4838 61.7473 13.6544V55.4045C61.7456 56.3576 61.3662 57.2711 60.6923 57.945C60.0184 58.619 59.1048 58.9983 58.1518 59ZM1.2864 14.2976V55.4624C1.2864 56.0748 1.52968 56.6621 1.96272 57.0952C2.39576 57.5282 2.98308 57.7715 3.59549 57.7715H58.1518C58.4599 57.7716 58.765 57.71 59.049 57.5904C59.333 57.4707 59.5902 57.2954 59.8054 57.0748C60.0205 56.8543 60.1894 56.5928 60.302 56.306C60.4146 56.0191 60.4686 55.7126 60.4609 55.4045V14.2976H1.2864Z" fill="black"/>
<path d="M61.1041 14.2976H0.643201C0.472613 14.2976 0.309013 14.2298 0.188389 14.1092C0.0677657 13.9885 0 13.8249 0 13.6544V4.06424C0.00170038 3.11118 0.381056 2.19764 1.05497 1.52372C1.72889 0.849806 2.64243 0.47045 3.59549 0.46875H58.1518C59.1048 0.47045 60.0184 0.849806 60.6923 1.52372C61.3662 2.19764 61.7456 3.11118 61.7473 4.06424V13.6544C61.7473 13.8249 61.6795 13.9885 61.5589 14.1092C61.4382 14.2298 61.2746 14.2976 61.1041 14.2976ZM1.2864 13.0112H60.4609V4.06424C60.4609 3.45183 60.2176 2.86451 59.7845 2.43147C59.3515 1.99843 58.7642 1.75515 58.1518 1.75515H3.59549C2.98308 1.75515 2.39576 1.99843 1.96272 2.43147C1.52968 2.86451 1.2864 3.45183 1.2864 4.06424V13.0112Z" fill="black"/>
<path d="M7.24187 10.7342C6.57655 10.7342 5.92616 10.5369 5.37297 10.1673C4.81977 9.79767 4.3886 9.27229 4.134 8.65761C3.87939 8.04293 3.81277 7.36656 3.94257 6.71402C4.07237 6.06148 4.39275 5.46208 4.86321 4.99162C5.33366 4.52117 5.93306 4.20078 6.5856 4.07099C7.23814 3.94119 7.91451 4.00781 8.52919 4.26241C9.14387 4.51702 9.66925 4.94819 10.0389 5.50138C10.4085 6.05458 10.6058 6.70496 10.6058 7.37029C10.6058 7.81205 10.5188 8.24948 10.3497 8.65761C10.1807 9.06574 9.9329 9.43658 9.62053 9.74895C9.30816 10.0613 8.93733 10.3091 8.52919 10.4782C8.12106 10.6472 7.68363 10.7342 7.24187 10.7342ZM7.24187 5.29275C6.83097 5.29275 6.4293 5.4146 6.08765 5.64288C5.746 5.87116 5.47972 6.19563 5.32248 6.57525C5.16523 6.95487 5.12409 7.37259 5.20425 7.7756C5.28441 8.1786 5.48228 8.54878 5.77283 8.83933C6.06338 9.12988 6.43356 9.32774 6.83656 9.40791C7.23957 9.48807 7.65729 9.44693 8.03691 9.28968C8.41653 9.13244 8.741 8.86616 8.96928 8.52451C9.19756 8.18286 9.31941 7.78119 9.31941 7.37029C9.31941 6.81929 9.10052 6.29086 8.71091 5.90125C8.3213 5.51163 7.79287 5.29275 7.24187 5.29275Z" fill="black"/>
<path d="M16.1447 10.7342C15.4794 10.7342 14.829 10.5369 14.2758 10.1673C13.7226 9.79767 13.2914 9.27229 13.0368 8.65761C12.7822 8.04293 12.7156 7.36656 12.8454 6.71402C12.9752 6.06148 13.2956 5.46208 13.766 4.99162C14.2365 4.52117 14.8359 4.20078 15.4884 4.07099C16.141 3.94119 16.8173 4.00781 17.432 4.26241C18.0467 4.51702 18.5721 4.94819 18.9417 5.50138C19.3113 6.05458 19.5086 6.70496 19.5086 7.37029C19.5086 7.81205 19.4216 8.24948 19.2526 8.65761C19.0835 9.06574 18.8357 9.43658 18.5234 9.74895C18.211 10.0613 17.8402 10.3091 17.432 10.4782C17.0239 10.6472 16.5865 10.7342 16.1447 10.7342ZM16.1447 5.29275C15.7338 5.29275 15.3321 5.4146 14.9905 5.64288C14.6488 5.87116 14.3826 6.19563 14.2253 6.57525C14.0681 6.95487 14.0269 7.37259 14.1071 7.7756C14.1872 8.1786 14.3851 8.54878 14.6757 8.83933C14.9662 9.12988 15.3364 9.32774 15.7394 9.40791C16.1424 9.48807 16.5601 9.44693 16.9397 9.28968C17.3194 9.13244 17.6438 8.86616 17.8721 8.52451C18.1004 8.18286 18.2222 7.78119 18.2222 7.37029C18.2222 6.81929 18.0034 6.29086 17.6137 5.90125C17.2241 5.51163 16.6957 5.29275 16.1447 5.29275Z" fill="black"/>
<path d="M25.0846 10.7342C24.4193 10.7342 23.7689 10.5369 23.2157 10.1673C22.6625 9.79767 22.2314 9.27229 21.9768 8.65761C21.7222 8.04293 21.6555 7.36656 21.7853 6.71402C21.9151 6.06148 22.2355 5.46208 22.706 4.99162C23.1764 4.52117 23.7758 4.20078 24.4284 4.07099C25.0809 3.94119 25.7573 4.00781 26.372 4.26241C26.9866 4.51702 27.512 4.94819 27.8817 5.50138C28.2513 6.05458 28.4486 6.70496 28.4486 7.37029C28.4469 8.26194 28.0919 9.11658 27.4614 9.74707C26.8309 10.3776 25.9763 10.7325 25.0846 10.7342ZM25.0846 5.29275C24.6737 5.29275 24.2721 5.4146 23.9304 5.64288C23.5888 5.87116 23.3225 6.19563 23.1652 6.57525C23.008 6.95487 22.9669 7.37259 23.047 7.7756C23.1272 8.1786 23.3251 8.54878 23.6156 8.83933C23.9062 9.12988 24.2763 9.32774 24.6793 9.40791C25.0823 9.48807 25.5001 9.44693 25.8797 9.28968C26.2593 9.13244 26.5838 8.86616 26.8121 8.52451C27.0403 8.18286 27.1622 7.78119 27.1622 7.37029C27.1605 6.81981 26.9411 6.29237 26.5518 5.90312C26.1626 5.51387 25.6351 5.29445 25.0846 5.29275Z" fill="black"/>
<path d="M55.7595 8.01348H35.9039C35.7334 8.01348 35.5698 7.94572 35.4491 7.82509C35.3285 7.70447 35.2607 7.54087 35.2607 7.37028C35.2607 7.19969 35.3285 7.03609 35.4491 6.91547C35.5698 6.79485 35.7334 6.72708 35.9039 6.72708H55.7595C55.9301 6.72708 56.0937 6.79485 56.2144 6.91547C56.335 7.03609 56.4027 7.19969 56.4027 7.37028C56.4027 7.54087 56.335 7.70447 56.2144 7.82509C56.0937 7.94572 55.9301 8.01348 55.7595 8.01348Z" fill="black"/>
<path d="M55.7595 8.01348H35.9039C35.7334 8.01348 35.5698 7.94572 35.4491 7.82509C35.3285 7.70447 35.2607 7.54087 35.2607 7.37028C35.2607 7.19969 35.3285 7.03609 35.4491 6.91547C35.5698 6.79485 35.7334 6.72708 35.9039 6.72708H55.7595C55.9301 6.72708 56.0937 6.79485 56.2144 6.91547C56.335 7.03609 56.4027 7.19969 56.4027 7.37028C56.4027 7.54087 56.335 7.70447 56.2144 7.82509C56.0937 7.94572 55.9301 8.01348 55.7595 8.01348Z" fill="black"/>
<path d="M54.5863 22.3375H6.42982C6.25923 22.3375 6.09563 22.2698 5.97501 22.1492C5.85439 22.0285 5.78662 21.8649 5.78662 21.6943C5.78662 21.5238 5.85439 21.3602 5.97501 21.2395C6.09563 21.1189 6.25923 21.0511 6.42982 21.0511H54.5863C54.7568 21.0511 54.9204 21.1189 55.0411 21.2395C55.1617 21.3602 55.2295 21.5238 55.2295 21.6943C55.2295 21.8649 55.1617 22.0285 55.0411 22.1492C54.9204 22.2698 54.7568 22.3375 54.5863 22.3375Z" fill="black"/>
<path d="M54.5863 28.1264H6.42982C6.25923 28.1264 6.09563 28.0586 5.97501 27.938C5.85439 27.8174 5.78662 27.6538 5.78662 27.4832C5.78662 27.3126 5.85439 27.149 5.97501 27.0284C6.09563 26.9077 6.25923 26.84 6.42982 26.84H54.5863C54.7568 26.84 54.9204 26.9077 55.0411 27.0284C55.1617 27.149 55.2295 27.3126 55.2295 27.4832C55.2295 27.6538 55.1617 27.8174 55.0411 27.938C54.9204 28.0586 54.7568 28.1264 54.5863 28.1264Z" fill="black"/>
<path d="M35.2902 33.9152H6.42982C6.25923 33.9152 6.09563 33.8474 5.97501 33.7268C5.85439 33.6062 5.78662 33.4426 5.78662 33.272C5.78662 33.1014 5.85439 32.9378 5.97501 32.8172C6.09563 32.6966 6.25923 32.6288 6.42982 32.6288H35.2902C35.4608 32.6288 35.6244 32.6966 35.745 32.8172C35.8657 32.9378 35.9334 33.1014 35.9334 33.272C35.9334 33.4426 35.8657 33.6062 35.745 33.7268C35.6244 33.8474 35.4608 33.9152 35.2902 33.9152Z" fill="black"/>
<path d="M35.2902 39.704H6.42982C6.25923 39.704 6.09563 39.6362 5.97501 39.5156C5.85439 39.395 5.78662 39.2314 5.78662 39.0608C5.78662 38.8902 5.85439 38.7266 5.97501 38.606C6.09563 38.4854 6.25923 38.4176 6.42982 38.4176H35.2902C35.4608 38.4176 35.6244 38.4854 35.745 38.606C35.8657 38.7266 35.9334 38.8902 35.9334 39.0608C35.9334 39.2314 35.8657 39.395 35.745 39.5156C35.6244 39.6362 35.4608 39.704 35.2902 39.704Z" fill="black"/>
</svg>
