<svg width="32" height="31" viewBox="0 0 32 31" fill="none" xmlns="http://www.w3.org/2000/svg">
<path fill-rule="evenodd" clip-rule="evenodd" d="M15.5798 31C24.1492 31 31.0961 24.0604 31.0961 15.5C31.0961 6.93959 24.1492 0 15.5798 0C9.56427 0 4.3483 3.41958 1.77359 8.41895C1.26511 9.40627 0.653811 11.6391 0.849807 13.0423C1.1125 16.5672 3.60333 18.5018 6.74833 17.8922C8.22497 17.606 9.32222 16.9735 10.3313 16.3919C10.8178 16.1115 11.2839 15.8428 11.7621 15.6305C13.6192 14.806 16.6652 14.9182 16.7758 17.3351C16.8721 19.4396 15.4312 20.6914 13.3536 21.546C10.4293 22.7489 7.34669 22.4335 4.90641 20.3103C3.38899 18.9901 2.33213 17.6085 1.26492 15.904C0.896842 15.3161 0.0960693 15.4685 0.0960693 16.0345C0.0960693 24.5949 7.01034 31 15.5798 31ZM18.5001 4.64284C21.4084 4.0456 24.2129 5.43267 25.2516 6.20086C20.0257 0.390742 12.8523 1.72155 10.3854 2.59794C7.91856 3.47433 5.74382 5.51923 6.29562 7.20709C6.84742 8.89494 9.47659 8.57035 11.2618 7.4343C13.0471 6.29824 14.8647 5.38939 18.5001 4.64284ZM5.44093 24.5862C6.47962 25.3544 9.42472 27.0568 12.333 26.4596C15.9684 25.713 17.7861 25.0008 19.5713 23.8647C21.3566 22.7287 23.9857 22.4041 24.5375 24.0919C25.0893 25.7798 22.9146 27.8247 20.4477 28.7011C17.9809 29.5775 10.6668 30.3963 5.44093 24.5862Z" fill="url(#paint0_linear_170_135)"/>
<path fill-rule="evenodd" clip-rule="evenodd" d="M31.0852 14.431C31.0852 14.7874 30.9783 15.5 30.5508 15.5C30.4129 15.5 30.3106 15.5 30.2163 15.4725C29.9451 15.3933 29.7405 15.0863 28.9473 13.8966C27.8783 12.2931 25.7404 9.6207 22.5335 9.08621C19.3266 8.55173 16.1197 10.1552 13.4473 12.2931C12.8892 12.7396 12.3078 13.256 11.7079 13.7888C9.43542 15.8073 6.89826 18.0608 4.3611 17.6379C3.89912 17.5609 3.47862 17.4396 3.09938 17.2722C1.85545 16.4574 1.02729 14.9935 0.881871 13.0423C0.685875 11.6391 1.29717 9.40627 1.80565 8.41895C4.38036 3.41958 9.59634 0 15.6118 0C23.79 0 30.4905 6.3204 31.0852 14.3382V14.431ZM25.2835 6.20089C24.2448 5.4327 21.4404 4.04563 18.5321 4.64287C14.8967 5.38942 13.079 6.29827 11.2938 7.43432C9.50854 8.57038 6.87938 8.89497 6.32758 7.20711C5.77578 5.51926 7.95052 3.47435 10.4174 2.59796C12.8843 1.72158 20.0576 0.390768 25.2835 6.20089Z" fill="url(#paint1_linear_170_135)"/>
<path fill-rule="evenodd" clip-rule="evenodd" d="M1.24316 9.81681C1.12 10.7742 1.13293 11.6346 1.35242 12.2931C2.42139 15.5 6.16276 15.5 9.36965 12.8276C12.5765 10.1552 20.0593 5.34482 25.9386 9.62069C28.004 11.1228 29.6641 12.3363 30.9368 13.2703C29.8546 5.76633 23.3913 0 15.5798 0C9.5643 0 4.34832 3.41958 1.77361 8.41895C1.59645 8.76295 1.4068 9.25817 1.24316 9.81681ZM25.2517 6.20089C24.213 5.4327 21.4085 4.04563 18.5002 4.64287C14.8649 5.38942 13.0472 6.29827 11.2619 7.43432C9.4767 8.57038 6.84754 8.89497 6.29574 7.20711C5.74394 5.51926 7.91867 3.47435 10.3855 2.59796C12.8524 1.72158 20.0258 0.390768 25.2517 6.20089Z" fill="url(#paint2_linear_170_135)" fill-opacity="0.85"/>
<path fill-rule="evenodd" clip-rule="evenodd" d="M5.17504 3.9998C4.0835 5.85303 3.67601 7.7762 3.89435 9.0862C4.42883 12.2931 7.10119 11.7586 8.17016 11.2241C8.29167 11.1634 8.50989 11.0335 8.80989 10.8551C11.1489 9.46346 18.4592 5.11414 23.6702 7.48275C27.0829 9.034 28.0757 7.86514 28.1594 6.42624C25.3407 2.53307 20.7556 0 15.5783 0C11.5757 0 7.92713 1.51392 5.17504 3.9998ZM25.25 6.20086C24.2114 5.43267 21.4069 4.0456 18.4986 4.64284C14.8632 5.38939 13.0455 6.29824 11.2603 7.4343C9.47507 8.57035 6.84591 8.89494 6.29411 7.20709C5.74231 5.51923 7.91704 3.47433 10.3839 2.59794C12.8508 1.72155 20.0242 0.390742 25.25 6.20086Z" fill="url(#paint3_linear_170_135)" fill-opacity="0.85"/>
<path fill-rule="evenodd" clip-rule="evenodd" d="M-0.000158956 16.569C-0.000158925 16.2126 0.106738 15.5 0.534324 15.5C0.672214 15.5 0.77453 15.5 0.868804 15.5275C1.13995 15.6067 1.34459 15.9137 2.13777 17.1034C3.20674 18.7069 5.34467 21.3793 8.55157 21.9138C11.7585 22.4483 14.9654 20.8448 17.6378 18.7069C18.1959 18.2604 18.7773 17.744 19.3772 17.2112C21.6497 15.1927 24.1868 12.9392 26.724 13.3621C27.1861 13.4391 27.6067 13.5605 27.9861 13.7279C29.2299 14.5428 30.0579 16.0066 30.2033 17.9577C30.3993 19.3609 29.788 21.5937 29.2796 22.5811C26.7048 27.5804 21.4889 31 15.4734 31C7.29459 31 0.593785 24.6787 -0.000158964 16.6601L-0.000158956 16.569ZM5.80151 24.7991C6.84019 25.5673 9.64463 26.9544 12.5529 26.3571C16.1883 25.6106 18.006 24.7017 19.7912 23.5657C21.5765 22.4296 24.2056 22.105 24.7574 23.7929C25.3092 25.4807 23.1345 27.5256 20.6676 28.402C18.2008 29.2784 11.0274 30.6092 5.80151 24.7991Z" fill="url(#paint4_linear_170_135)"/>
<path fill-rule="evenodd" clip-rule="evenodd" d="M29.8424 21.1824C29.9654 20.2253 29.9525 19.3652 29.733 18.7069C28.6641 15.5 24.9227 15.5 21.7158 18.1724C18.5089 20.8448 11.0261 25.6552 5.14683 21.3793C3.08134 19.8771 1.42127 18.6636 0.148523 17.7296C1.23066 25.2336 7.69398 31 15.5055 31C21.521 31 26.737 27.5804 29.3117 22.5811C29.489 22.2369 29.6787 21.7414 29.8424 21.1824ZM5.83385 24.7991C6.87253 25.5673 9.67697 26.9544 12.5853 26.3571C16.2207 25.6106 18.0384 24.7017 19.8236 23.5657C21.6088 22.4296 24.238 22.105 24.7898 23.7929C25.3416 25.4807 23.1668 27.5256 20.7 28.402C18.2331 29.2784 11.0597 30.6092 5.83385 24.7991Z" fill="url(#paint5_linear_170_135)" fill-opacity="0.85"/>
<path fill-rule="evenodd" clip-rule="evenodd" d="M25.91 27.0004C27.0017 25.1471 27.4092 23.2239 27.1909 21.9138C26.6564 18.7069 23.984 19.2414 22.9151 19.7759C22.7935 19.8366 22.5753 19.9665 22.2753 20.1449C19.9363 21.5365 12.626 25.8859 7.41505 23.5172C4.00243 21.9661 3.00959 23.1348 2.92581 24.5736C5.74447 28.4669 10.3296 31 15.5071 31C19.5095 31 23.158 29.4862 25.91 27.0004ZM5.83529 24.7991C6.87397 25.5673 9.67841 26.9544 12.5867 26.3572C16.2221 25.6106 18.0398 24.7018 19.825 23.5657C21.6103 22.4296 24.2394 22.1051 24.7912 23.7929C25.343 25.4808 23.1683 27.5257 20.7014 28.4021C18.2346 29.2784 11.0612 30.6093 5.83529 24.7991Z" fill="url(#paint6_linear_170_135)" fill-opacity="0.85"/>
<defs>
<linearGradient id="paint0_linear_170_135" x1="15.5961" y1="1.64266e-08" x2="16.1306" y2="25.1207" gradientUnits="userSpaceOnUse">
<stop stop-color="#2C2F8C"/>
<stop offset="0.75364" stop-color="#2C2F8C"/>
<stop offset="0.928249" stop-color="#FF6300"/>
</linearGradient>
<linearGradient id="paint1_linear_170_135" x1="19.3375" y1="3.2069" x2="2.23407" y2="16.0345" gradientUnits="userSpaceOnUse">
<stop offset="0.494792" stop-color="#00B0E0"/>
<stop offset="0.951936" stop-color="#4F3594"/>
</linearGradient>
<linearGradient id="paint2_linear_170_135" x1="20.4065" y1="2.67241" x2="3.30309" y2="12.8276" gradientUnits="userSpaceOnUse">
<stop offset="0.458333" stop-color="#00B0E0"/>
<stop offset="1" stop-color="#303393"/>
</linearGradient>
<linearGradient id="paint3_linear_170_135" x1="26.8203" y1="2.13793" x2="4.37201" y2="10.6897" gradientUnits="userSpaceOnUse">
<stop offset="0.177176" stop-color="#00B0E0" stop-opacity="0"/>
<stop offset="0.584935" stop-color="#00B0E0"/>
<stop offset="0.936448" stop-color="#2D2F8E"/>
</linearGradient>
<linearGradient id="paint4_linear_170_135" x1="11.7477" y1="27.7931" x2="28.8511" y2="14.9655" gradientUnits="userSpaceOnUse">
<stop offset="0.520833" stop-color="#FF8900"/>
<stop offset="0.951936" stop-color="#FF6300"/>
</linearGradient>
<linearGradient id="paint5_linear_170_135" x1="10.6789" y1="28.3276" x2="27.7824" y2="18.1724" gradientUnits="userSpaceOnUse">
<stop offset="0.458333" stop-color="#FF4500" stop-opacity="0"/>
<stop offset="1" stop-color="#FF4500"/>
</linearGradient>
<linearGradient id="paint6_linear_170_135" x1="16.5689" y1="26.7241" x2="26.7132" y2="20.3103" gradientUnits="userSpaceOnUse">
<stop offset="0.177176" stop-color="#FF8900" stop-opacity="0"/>
<stop offset="1" stop-color="#FF8900"/>
</linearGradient>
</defs>
</svg>
