<svg width="24" height="17" viewBox="0 0 24 17" fill="none" xmlns="http://www.w3.org/2000/svg">
<path d="M10.8267 10.0912L11.5819 10.7502L11.6013 10.7676C11.7129 10.8671 11.8562 10.9148 11.9922 10.9148C12.1277 10.9148 12.2707 10.8675 12.3822 10.7683L13.1581 10.0912L18.156 14.8045H5.82874L10.8267 10.0912ZM11.9925 9.60216L2.87415 1.62116H21.1069L11.9925 9.60216ZM1.95831 14.6465V14.6385L1.95805 14.6353V2.32653L9.97028 9.34046L4.17682 14.8039H2.13735C2.02812 14.8039 1.95831 14.7217 1.95831 14.6465ZM22.0265 14.6436C22.0265 14.7158 21.9623 14.7943 21.8607 14.8007H21.8472H19.8077L14.0143 9.33719L22.0265 2.32327V14.6436ZM21.8473 0.506055H2.13712C1.41244 0.506055 0.8 1.06725 0.8 1.77841V14.6467C0.8 15.3579 1.41244 15.919 2.13712 15.919H21.8473C22.5719 15.919 23.1844 15.3579 23.1844 14.6467V1.77841C23.1844 1.06725 22.5719 0.506055 21.8473 0.506055Z" fill="white" stroke="white" stroke-width="0.4"/>
</svg>
