<svg width="16" height="16" viewBox="0 0 16 16" fill="none" xmlns="http://www.w3.org/2000/svg">
<path d="M1.27897 0.800348L1.27898 0.80057C1.29341 0.799892 1.30787 0.799819 1.32231 0.80035H6.99876H7V1.00035C7.04217 0.999753 7.08403 1.00754 7.12315 1.02327C7.16228 1.03899 7.19789 1.06233 7.22792 1.09194L1.27897 0.800348ZM1.27897 0.800348L1.26959 0.801232L1.27897 0.800348ZM0.800003 14.6818V14.6818V1.3189V1.31852H1L0.800003 14.6818ZM0.800003 14.6818C0.800013 14.8193 0.854607 14.951 0.951781 15.0482C1.04896 15.1454 1.18075 15.2 1.31816 15.2H1.31818M0.800003 14.6818L1.31818 15.2M1.31818 15.2H14.6818H14.6818M1.31818 15.2H14.6818M14.6818 15.2C14.8193 15.2 14.951 15.1454 15.0482 15.0482C15.1454 14.951 15.2 14.8193 15.2 14.6818V14.6818M14.6818 15.2L15.2 14.6818M15.2 14.6818V9.00141M15.2 14.6818L14.9771 8.87703M14.9771 8.87703L15.1627 8.80246C15.1881 8.86568 15.2008 8.93329 15.2 9.00141M14.9771 8.87703L15.1627 8.80245C15.1371 8.73874 15.099 8.68075 15.0508 8.63185C15.0026 8.58296 14.9452 8.54412 14.8818 8.51762L14.8046 8.70212L14.9771 8.87703ZM15.2 9.00141C15.2 9.00194 15.2 9.00247 15.2 9.003L15 9.00017H15.2V9.00141ZM10.0426 1.14271L10.0426 1.14271C10.0657 1.07864 10.1012 1.01974 10.1471 0.969384C10.1929 0.919036 10.2483 0.878207 10.3099 0.849237C10.3715 0.820276 10.4383 0.803745 10.5063 0.800569L10.0426 1.14271ZM10.0426 1.14271C10.0195 1.20678 10.0093 1.27478 10.0125 1.34281C10.0157 1.41085 10.0322 1.47758 10.0612 1.53921C10.0902 1.60083 10.131 1.65615 10.1814 1.702C10.2318 1.74784 10.2907 1.78331 10.3548 1.80639L10.4225 1.61822M10.0426 1.14271L10.4225 1.61822M10.4225 1.61822L10.3548 1.80639C10.4172 1.82887 10.4833 1.83914 10.5496 1.83669H13.4333L6.68698 8.5829C6.63454 8.62719 6.5914 8.68149 6.56009 8.74266L6.73813 8.83378M10.4225 1.61822L6.73813 8.83378M6.73813 8.83378L6.56009 8.74266C6.52696 8.8074 6.50782 8.87839 6.50392 8.95101L6.70364 8.96172M6.73813 8.83378L6.70364 8.96172M6.70364 8.96172L6.50392 8.95101C6.50003 9.02364 6.51147 9.09626 6.53749 9.16418C6.56351 9.23209 6.60354 9.29376 6.65496 9.34519C6.70641 9.39663 6.76809 9.43664 6.83598 9.46265C6.90388 9.48867 6.97651 9.50012 7.04915 9.49622C7.12177 9.49232 7.19276 9.47319 7.2575 9.44005L7.16638 9.26202M6.70364 8.96172L7.16638 9.26202M7.16638 9.26202L7.2575 9.44005C7.31868 9.40874 7.37298 9.36559 7.41727 9.31316L14.1636 2.56696M7.16638 9.26202L14.1636 2.56696M14.1636 2.56696V5.45354V5.45479H14.3636M14.1636 2.56696L14.8046 5.75283M14.3636 5.45479C14.363 5.49695 14.3708 5.53881 14.3866 5.57793C14.4023 5.61706 14.4256 5.65267 14.4552 5.68269C14.4848 5.71272 14.5201 5.73656 14.559 5.75283C14.5979 5.7691 14.6397 5.77749 14.6818 5.77749C14.724 5.77749 14.7657 5.7691 14.8046 5.75283M14.3636 5.45479V2.36697V5.45479ZM14.8046 5.75283L14.8818 5.93734C14.9452 5.91084 15.0026 5.87203 15.0508 5.82311C15.099 5.77422 15.1371 5.71622 15.1627 5.65251L14.9771 5.57793L14.8046 5.75283ZM15.2 1.3185V1.31852V5.45355V5.45479V1.3185ZM15.2 1.3185C15.2 1.18108 15.1454 1.04929 15.0482 0.952125L15.0482 0.952124C14.951 0.854953 14.8193 0.800363 14.6818 0.80035H14.6818H10.5496M15.2 1.3185L10.5496 0.80035M10.5496 0.80035C10.5352 0.79982 10.5207 0.799892 10.5063 0.800566L10.5496 0.80035ZM7 1.83669V1.63669L14.3636 9.00017H14.1636V9.00142V14.1637H1.83637V1.83669H6.99876H7Z" fill="white" stroke="white" stroke-width="0.4"/>
</svg>
