<svg width="39" height="53" viewBox="0 0 39 53" fill="none" xmlns="http://www.w3.org/2000/svg">
<path d="M37.6083 13.7081L37.6082 13.708L24.7501 0.791719L37.6083 13.7081ZM37.6083 13.7081C38.0641 14.1639 38.35 14.8493 38.35 15.5346V49.7455C38.35 51.1724 37.2088 52.3137 35.7818 52.3137H2.61818M37.6083 13.7081L2.61818 52.3137M2.61818 52.3137C1.19125 52.3137 0.05 51.1724 0.05 49.7455M2.61818 52.3137L0.05 49.7455M0.05 49.7455V2.61818M0.05 49.7455V2.61818M0.05 2.61818C0.05 1.19125 1.19125 0.05 2.61818 0.05M0.05 2.61818L2.61818 0.05M2.61818 0.05H22.9236M2.61818 0.05H22.9236M22.9236 0.05C23.6088 0.05 24.2942 0.33583 24.75 0.791639L22.9236 0.05ZM36.4634 14.8668L36.4643 14.8663L36.4572 14.8592L23.5408 1.94283C23.4157 1.81772 23.1705 1.69546 22.9236 1.69546H2.61818C2.12511 1.69546 1.69546 2.12511 1.69546 2.61818V49.7455C1.69546 50.2385 2.12511 50.6682 2.61818 50.6682H35.7818C36.2749 50.6682 36.7046 50.2385 36.7046 49.7455V15.5346C36.7046 15.2868 36.5815 15.0439 36.4634 14.8668Z" fill="white" stroke="#2D2F8E" stroke-width="0.1"/>
<path d="M37.3523 15.6591H25.3086C23.8817 15.6591 22.7404 14.5178 22.7404 13.0909V0.989091C22.7404 0.551251 23.1253 0.166364 23.5632 0.166364C24.001 0.166364 24.3859 0.551251 24.3859 0.989091V13.0909C24.3859 13.584 24.8155 14.0136 25.3086 14.0136H37.3523C37.7901 14.0136 38.175 14.3985 38.175 14.8364C38.175 15.2764 37.8461 15.6591 37.3523 15.6591Z" fill="white" stroke="#2D2F8E" stroke-width="0.1"/>
<path d="M28.8012 19.15H9.60124C9.1634 19.15 8.77852 18.7651 8.77852 18.3273C8.77852 17.8894 9.1634 17.5045 9.60124 17.5045H28.8012C29.2391 17.5045 29.624 17.8894 29.624 18.3273C29.624 18.7651 29.2391 19.15 28.8012 19.15Z" fill="white" stroke="#2D2F8E" stroke-width="0.1"/>
<path d="M18.8012 12.0591H9.60124C9.1634 12.0591 8.77852 11.6742 8.77852 11.2364C8.77852 10.7985 9.1634 10.4136 9.60124 10.4136H18.8012C19.2391 10.4136 19.624 10.7985 19.624 11.2364C19.624 11.6742 19.2391 12.0591 18.8012 12.0591Z" fill="white" stroke="#2D2F8E" stroke-width="0.1"/>
<path d="M20.5301 38.1334C21.1759 38.1256 21.7744 37.8778 22.2147 37.4351L22.2147 37.4351C22.6425 37.005 22.8777 36.4156 22.8801 35.7771L22.8801 35.7762C22.8705 35.1497 22.6193 34.5686 22.1723 34.1413C21.7283 33.7165 21.1358 33.4842 20.5025 33.4842H20.5024H20.5024H20.5023H20.5022H20.5022H20.5021H20.5021H20.502H20.5019H20.5019H20.5018H20.5017H20.5017H20.5016H20.5016H20.5015H20.5014H20.5014H20.5013H20.5013H20.5012H20.5011H20.5011H20.501H20.5009H20.5009H20.5008H20.5008H20.5007H20.5006H20.5006H20.5005H20.5005H20.5004H20.5003H20.5003H20.5002H20.5001H20.5001H20.5H20.5H20.4999H20.4998H20.4998H20.4997H20.4997H20.4996H20.4995H20.4995H20.4994H20.4994H20.4993H20.4992H20.4992H20.4991H20.499H20.499H20.4989H20.4989H20.4988H20.4987H20.4987H20.4986H20.4986H20.4985H20.4984H20.4984H20.4983H20.4983H20.4982H20.4981H20.4981H20.498H20.4979H20.4979H20.4978H20.4978H20.4977H20.4976H20.4976H20.4975H20.4975H20.4974H20.4973H20.4973H20.4972H20.4972H20.4971H20.497H20.497H20.4969H20.4969H20.4968H20.4967H20.4967H20.4966H20.4966H20.4965H20.4964H20.4964H20.4963H20.4962H20.4962H20.4961H20.4961H20.496H20.4959H20.4959H20.4958H20.4958H20.4957H20.4956H20.4956H20.4955H20.4955H20.4954H20.4953H20.4953H20.4952H20.4952H20.4951H20.495H20.495H20.4949H20.4949H20.4948H20.4947H20.4947H20.4946H20.4946H20.4945H20.4944H20.4944H20.4943H20.4943H20.4942H20.4941H20.4941H20.494H20.4939H20.4939H20.4938H20.4938H20.4937H20.4936H20.4936H20.4935H20.4935H20.4934H20.4933H20.4933H20.4932H20.4932H20.4931H20.493H20.493H20.4929H20.4929H20.4928H20.4927H20.4927H20.4926H20.4926H20.4925H20.4924H20.4924H20.4923H20.4923H20.4922H20.4921H20.4921H20.492H20.492H20.4919H20.4918H20.4918H20.4917H20.4917H20.4916H20.4915H20.4915H20.4914H20.4914H20.4913H20.4912H20.4912H20.4911H20.4911H20.491H20.4909H20.4909H20.4908H20.4908H20.4907H20.4906H20.4906H20.4905H20.4905H20.4904H20.4903H20.4903H20.4902H20.4902H20.4901H20.49H20.49H20.4899H20.4899H20.4898H20.4897H20.4897H20.4896H20.4896H20.4895H20.4894H20.4894H20.4893H20.4893H20.4892H20.4891H20.4891H20.489H20.489H20.4889H20.4888H20.4888H20.4887H20.4887H20.4886H20.4885H20.4885H20.4884H20.4884H20.4883H20.4882H20.4882H20.4881H20.4881H20.488H20.4879H20.4879H20.4878H20.4878H20.4877H20.4876H20.4876H20.4875H20.4875H20.4874H20.4873H20.4873H20.4872H20.4872H20.4871H20.487H20.487H20.4869H20.4869H20.4868H20.4867H20.4867H20.4866H20.4866H20.4865H20.4864H20.4864H20.4863H20.4863H20.4862H20.4861H20.4861H20.486H20.486H20.4859H20.4858H20.4858H20.4857H20.4857H20.4856H20.4855H20.4855H20.4854H20.4854H20.4853H20.4852H20.4852H20.4851H20.4851H20.485H20.4849H20.4849H20.4848H20.4848H20.4847H20.4846H20.4846H20.4845H20.4845H20.4844H20.4843H20.4843H20.4842H20.4842H20.4841H20.484H20.484H20.4839H20.4839H20.4838H20.4837H20.4837H20.4836H20.4836H20.4835H20.4834H20.4834H20.4833H20.4833H20.4832H20.4831H20.4831H20.483H20.4829H20.4829H20.4828H20.4828H20.4827H20.4826H20.4826H20.4825H20.4825H20.4824H20.4823H20.4823H20.4822H20.4822H20.4821H20.482H20.482H20.4819H20.4819H20.4818H20.4817H20.4817H20.4816H20.4816H20.4815H20.4814H20.4814H20.4813H20.4813H20.4812H20.4811H20.4811H20.481H20.481H20.4809H20.4808H20.4808H20.4807H20.4807H20.4806H20.4805H20.4805H20.4804H20.4804H20.4803H20.4802H20.4802H20.4801H20.4801H20.48H20.4799H20.4799H20.4798H20.4798H20.4797H20.4796H20.4796H20.4795H20.4795H20.4794H20.4793H20.4793H20.4792H20.4792H20.4791H20.479H20.479H20.4789H20.4788H20.4788H20.4787H20.4787H20.4786H20.4785H20.4785H20.4784H20.4784H20.4783H20.4782H20.4782H20.4781H20.4781H20.478H20.4779H20.4779H20.4778H20.4778H20.4777H20.4776H20.4776H20.4775H20.4775H20.4774H20.4773H20.4773H20.4772H20.4772H20.4771H20.477H20.477H20.4769H20.4768H20.4768H20.4767H20.4767H20.4766H20.4765H20.4765H20.4764H20.4764H20.4763H20.4762H20.4762H20.4761H20.4761H20.476H20.4759H20.4759H20.4758H20.4758H20.4757H20.4756H20.4756H20.4755H20.4754H20.4754H20.4753H20.4753H20.4752H20.4751H20.4751H20.475H20.475H20.4749H20.4748H20.4748H20.4747H20.4747H20.4746H20.4745H20.4745H20.4744H20.4744H20.4743H20.4742H20.4742H20.4741H20.474H20.474H20.4739H20.4739H20.4738H20.4737H20.4737H20.4736H20.4736H20.4735H20.4734H20.4734H20.4733H20.4732H20.4732H20.4731H20.4731H20.473H20.4729H20.4729H20.4728H20.4728H20.4727H20.4726H20.4726H20.4725H20.4724H20.4724H20.4723H20.4723H20.4722H20.4721H20.4721H20.472H20.472H20.4719H20.4718H20.4718H20.4717H20.4716H20.4716H20.4715L20.4715 33.4842L20.4709 33.4842C19.8245 33.492 19.2265 33.7398 18.7867 34.1819L18.7867 34.182C18.3499 34.6218 18.1136 35.2101 18.1214 35.8378C18.1292 36.465 18.3804 37.0467 18.8286 37.4763L18.8286 37.4763C19.2795 37.9081 19.8763 38.1442 20.5301 38.1334ZM20.5301 38.1334C20.5301 38.1334 20.53 38.1334 20.53 38.1334L20.5294 38.0834L20.5302 38.1334C20.5302 38.1334 20.5302 38.1334 20.5301 38.1334ZM22.9119 33.3678L22.912 33.3678C23.5693 33.9963 23.9372 34.8478 23.95 35.7662V35.7662V35.7662V35.7662V35.7662V35.7662V35.7663V35.7663V35.7663V35.7663V35.7663V35.7663V35.7664V35.7664V35.7664V35.7664V35.7664V35.7664V35.7665V35.7665V35.7665V35.7665V35.7665V35.7665V35.7666V35.7666V35.7666V35.7666V35.7666V35.7666V35.7667V35.7667V35.7667V35.7667V35.7667V35.7667V35.7668V35.7668V35.7668V35.7668V35.7668V35.7669V35.7669V35.7669V35.7669V35.7669V35.7669V35.767V35.767V35.767V35.767V35.767V35.767V35.7671V35.7671V35.7671V35.7671V35.7671V35.7671V35.7672V35.7672V35.7672V35.7672V35.7672V35.7672V35.7673V35.7673V35.7673V35.7673V35.7673V35.7673V35.7674V35.7674V35.7674V35.7674V35.7674V35.7675V35.7675V35.7675V35.7675V35.7675V35.7675V35.7676V35.7676V35.7676V35.7676V35.7676V35.7676V35.7677V35.7677V35.7677V35.7677V35.7677V35.7677V35.7678V35.7678V35.7678V35.7678V35.7678V35.7678V35.7679V35.7679V35.7679V35.7679V35.7679V35.7679V35.768V35.768V35.768V35.768V35.768V35.7681V35.7681V35.7681V35.7681V35.7681V35.7681V35.7682V35.7682V35.7682V35.7682V35.7682V35.7682V35.7683V35.7683V35.7683V35.7683V35.7683V35.7683V35.7684V35.7684V35.7684V35.7684V35.7684V35.7684V35.7685V35.7685V35.7685V35.7685V35.7685V35.7685V35.7686V35.7686V35.7686V35.7686V35.7686V35.7687V35.7687V35.7687V35.7687V35.7687V35.7687V35.7688V35.7688V35.7688V35.7688V35.7688V35.7688V35.7689V35.7689V35.7689V35.7689V35.7689V35.7689V35.769V35.769V35.769V35.769V35.769V35.769V35.7691V35.7691V35.7691V35.7691V35.7691V35.7691V35.7692V35.7692V35.7692V35.7692V35.7692V35.7693V35.7693V35.7693V35.7693V35.7693V35.7693V35.7694V35.7694V35.7694V35.7694V35.7694V35.7694V35.7695V35.7695V35.7695V35.7695V35.7695V35.7695V35.7696V35.7696V35.7696V35.7696V35.7696V35.7696V35.7697V35.7697V35.7697V35.7697V35.7697V35.7697V35.7698V35.7698V35.7698V35.7698V35.7698V35.7699V35.7699V35.7699V35.7699V35.7699V35.7699V35.77V35.77V35.77V35.77V35.77V35.77V35.7701V35.7701V35.7701V35.7701V35.7701V35.7701V35.7702V35.7702V35.7702V35.7702V35.7702V35.7702V35.7703V35.7703V35.7703V35.7703V35.7703V35.7703V35.7704V35.7704V35.7704V35.7704V35.7704V35.7705V35.7705V35.7705V35.7705V35.7705V35.7705V35.7706V35.7706V35.7706V35.7706V35.7706V35.7706V35.7707V35.7707V35.7707V35.7707V35.7707V35.7707V35.7708V35.7708V35.7708V35.7708V35.7708V35.7708V35.7709V35.7709V35.7709V35.7709V35.7709V35.7709V35.771V35.771V35.771V35.771V35.771V35.7711V35.7711V35.7711V35.7711V35.7711V35.7711V35.7712V35.7712V35.7712V35.7712V35.7712V35.7712V35.7713V35.7713V35.7713V35.7713V35.7713V35.7713V35.7714V35.7714V35.7714V35.7714V35.7714V35.7714V35.7715V35.7715V35.7715V35.7715V35.7715V35.7715V35.7716V35.7716V35.7716V35.7716V35.7716V35.7717V35.7717V35.7717V35.7717V35.7717V35.7717V35.7718V35.7718V35.7718V35.7718V35.7718V35.7718V35.7719V35.7719V35.7719V35.7719V35.7719V35.7719V35.772V35.772V35.772V35.772V35.772V35.772V35.7721V35.7721V35.7721V35.7721V35.7721V35.7721V35.7722V35.7722V35.7722V35.7722V35.7722V35.7723V35.7723V35.7723V35.7723V35.7723V35.7723V35.7724V35.7724V35.7724V35.7724V35.7724V35.7724V35.7725V35.7725V35.7725V35.7725V35.7725V35.7725V35.7726V35.7726V35.7726V35.7726V35.7726V35.7726V35.7727V35.7727V35.7727V35.7727V35.7727V35.7727V35.7728V35.7728V35.7728V35.7728V35.7728V35.7729V35.7729V35.7729V35.7729V35.7729V35.7729V35.773V35.773V35.773V35.773V35.773V35.773V35.7731V35.7731V35.7731V35.7731V35.7731V35.7731V35.7732V35.7732V35.7732V35.7732V35.7732V35.7732V35.7733V35.7733V35.7733V35.7733V35.7733V35.7734V35.7734V35.7734V35.7734V35.7734V35.7734V35.7735V35.7735V35.7735V35.7735V35.7735V35.7735V35.7736V35.7736V35.7736V35.7736V35.7736V35.7736V35.7737V35.7737V35.7737V35.7737V35.7737V35.7737V35.7738V35.7738V35.7738V35.7738V35.7738V35.7738V35.7739V35.7739V35.7739V35.7739V35.7739V35.774V35.774V35.774V35.774V35.774V35.774V35.7741V35.7741V35.7741V35.7741V35.7741V35.7741V35.7742V35.7742V35.7742V35.7742V35.7742V35.7742V35.7743V35.7743V35.7743V35.7743V35.7743V35.7743V35.7744V35.7744V35.7744V35.7744V35.7744V35.7744V35.7745V35.7745L23.95 35.7745L23.95 35.7745V35.7745V35.7745V35.7746V35.7746V35.7746C23.9482 36.7007 23.6013 37.5587 22.9731 38.1904L22.9731 38.1904C22.3348 38.8328 21.4714 39.1929 20.5432 39.2045H20.5431H20.543H20.5429H20.5428H20.5427H20.5426H20.5426H20.5425H20.5424H20.5423H20.5422H20.5421H20.542H20.5419H20.5418H20.5418H20.5417H20.5416H20.5415H20.5414H20.5413H20.5412H20.5411H20.541H20.5409H20.5409H20.5408H20.5407H20.5406H20.5405H20.5404H20.5403H20.5402H20.5401H20.5401H20.54H20.5399H20.5398H20.5397H20.5396H20.5395H20.5394H20.5393H20.5392H20.5392H20.5391H20.539H20.5389H20.5388H20.5387H20.5386H20.5385H20.5384H20.5383H20.5383H20.5382H20.5381H20.538H20.5379H20.5378H20.5377H20.5376H20.5375H20.5374H20.5374H20.5373H20.5372H20.5371H20.537H20.5369H20.5368H20.5367H20.5366H20.5365H20.5365H20.5364H20.5363H20.5362H20.5361H20.536H20.5359H20.5358H20.5357H20.5356H20.5356H20.5355H20.5354H20.5353H20.5352H20.5351H20.535H20.5349H20.5348H20.5347H20.5347H20.5346H20.5345H20.5344H20.5343H20.5342H20.5341H20.534H20.5339H20.5338H20.5338H20.5337H20.5336H20.5335H20.5334H20.5333H20.5332H20.5331H20.533H20.5329H20.5329H20.5328H20.5327H20.5326H20.5325H20.5324H20.5323H20.5322H20.5321H20.532H20.5319H20.5319H20.5318H20.5317H20.5316H20.5315H20.5314H20.5313H20.5312H20.5311H20.531H20.531H20.5309H20.5308H20.5307H20.5306H20.5305H20.5304H20.5303H20.5302H20.5301H20.53H20.53H20.5299H20.5298H20.5297H20.5296H20.5295H20.5294H20.5293H20.5292H20.5291H20.529H20.529H20.5289H20.5288H20.5287H20.5286H20.5285H20.5284H20.5283H20.5282H20.5281H20.5281H20.528H20.5279H20.5278H20.5277H20.5276H20.5275H20.5274H20.5273H20.5272H20.5271H20.5271H20.527H20.5269H20.5268H20.5267H20.5266H20.5265H20.5264H20.5263H20.5262H20.5261H20.5261H20.526H20.5259H20.5258H20.5257H20.5256H20.5255H20.5254H20.5253H20.5252H20.5251H20.5251H20.525H20.5249H20.5248H20.5247H20.5246H20.5245H20.5244H20.5243H20.5242H20.5241H20.5241H20.524H20.5239H20.5238H20.5237H20.5236H20.5235H20.5234H20.5233H20.5232H20.5231H20.5231H20.523H20.5229H20.5228H20.5227H20.5226H20.5225H20.5224H20.5223H20.5222H20.5222H20.5221H20.522H20.5219H20.5218H20.5217H20.5216H20.5215H20.5214H20.5213H20.5212H20.5212H20.5211H20.521H20.5209H20.5208H20.5207H20.5206H20.5205H20.5204H20.5203H20.5202H20.5202H20.5201H20.52H20.5199H20.5198H20.5197H20.5196H20.5195H20.5194H20.5193H20.5192H20.5192H20.5191H20.519H20.5189H20.5188H20.5187H20.5186H20.5185H20.5184H20.5183H20.5182H20.5182H20.5181H20.518H20.5179H20.5178H20.5177H20.5176H20.5175H20.5174H20.5173H20.5172H20.5172H20.5171H20.517H20.5169H20.5168H20.5167H20.5166H20.5165H20.5164H20.5163H20.5162H20.5162H20.5161H20.516H20.5159H20.5158H20.5157H20.5156H20.5155H20.5154H20.5153H20.5152H20.5152H20.5151H20.515H20.5149H20.5148H20.5147H20.5146H20.5145H20.5144H20.5143H20.5142H20.5142H20.5141H20.514H20.5139H20.5138H20.5137H20.5136H20.5135H20.5134H20.5133H20.5132H20.5132H20.5131H20.513H20.5129H20.5128H20.5127H20.5126H20.5125H20.5124H20.5123H20.5123H20.5122H20.5121H20.512H20.5119H20.5118H20.5117H20.5116H20.5115H20.5114H20.5113H20.5113H20.5112H20.5111H20.511H20.5109H20.5108H20.5107H20.5106H20.5105H20.5104H20.5103H20.5103H20.5102H20.5101H20.51H20.5099H20.5098H20.5097H20.5096H20.5095H20.5094H20.5094H20.5093H20.5092H20.5091H20.509H20.5089H20.5088H20.5087H20.5086H20.5085H20.5084H20.5084H20.5083H20.5082H20.5081H20.508H20.5079H20.5078H20.5077H20.5076H20.5075H20.5075H20.5074H20.5073H20.5072H20.5071H20.507H20.5069H20.5068H20.5067H20.5066H20.5065H20.5065H20.5064H20.5063H20.5062H20.5061H20.506H20.5059H20.5058H20.5057H20.5056H20.5056H20.5055H20.5054H20.5053H20.5052H20.5051H20.505H20.5049H20.5048H20.5047H20.5047H20.5046H20.5045H20.5044H20.5043H20.5042H20.5041H20.504H20.5039H20.5038H20.5038H20.5037H20.5036H20.5035H20.5034H20.5033H20.5032H20.5031H20.503H20.5029H20.5029H20.5028H20.5027H20.5026H20.5025H20.5024H20.5023H20.5022H20.5021H20.502H20.502H20.5019H20.5018H20.5017H20.5016H20.5015H20.5014H20.5013H20.5012H20.5011H20.5011H20.501H20.5009H20.5008H20.5007H20.5006H20.5005H20.5004H20.5003H20.5003H20.5002H20.5001H20.5H20.4999H20.4998H20.4997H20.4996H20.4995H20.4994H20.4994H20.4993H20.4992H20.4991H20.499H20.4989H20.4988H20.4987H20.4986H20.4986H20.4985H20.4984H20.4983H20.4982H20.4981H20.498H20.4979H20.4978H20.4977H20.4977H20.4976H20.4975H20.4974H20.4973H20.4972C19.5862 39.2045 18.7319 38.8663 18.0877 38.2498C17.4297 37.6201 17.0618 36.7685 17.0503 35.8512C17.0387 34.9334 17.3859 34.0731 18.0272 33.4272C18.665 32.7854 19.5278 32.4247 20.4567 32.4137C21.3762 32.4097 22.2577 32.7412 22.9119 33.3678Z" fill="white" stroke="#2D2F8E" stroke-width="0.1"/>
<path d="M13.7206 40.2777L13.7037 40.2566L13.6768 40.2592L10.328 40.5789L9.05974 36.4036L11.9299 34.8592L11.9546 34.8459L11.9561 34.8179C11.9653 34.6538 11.9795 34.4892 11.9983 34.3255L12.0014 34.2985L11.9804 34.2812L9.47017 32.2118L11.525 28.3639L14.5768 29.2774L14.6037 29.2854L14.6246 29.2666C14.768 29.1377 14.9153 29.0149 15.0667 28.8986L15.0886 28.8817L15.086 28.8541L14.7812 25.6916L18.9572 24.4234L20.4663 27.2216L20.4796 27.2461L20.5074 27.2478C20.6967 27.2591 20.8883 27.2788 21.08 27.3061L21.1078 27.31L21.1256 27.2884L23.1511 24.8379L26.9988 26.8923L26.0678 30.0066L26.06 30.0326L26.0776 30.0532C26.1811 30.1753 26.2824 30.3027 26.3826 30.4373L26.3994 30.4599L26.4274 30.4573L29.6714 30.1487L30.9403 34.3241L27.9775 35.9165L27.9536 35.9293L27.9513 35.9563C27.9405 36.083 27.9263 36.2064 27.9098 36.3268L27.906 36.3545L27.9275 36.3722L30.5294 38.5152L28.4746 42.3636L25.1707 41.3728L25.1449 41.3651L25.1242 41.3824C25.0508 41.4439 24.9785 41.5025 24.907 41.5579L24.8852 41.5747L24.8878 41.6021L25.2133 45.0371L21.0429 46.3039L19.402 43.2654L19.3889 43.2412L19.3616 43.2393C19.2705 43.2328 19.1795 43.2245 19.0883 43.2148L19.0616 43.212L19.0445 43.2327L16.8483 45.8894L13.0012 43.835L13.9666 40.6033L13.9746 40.5765L13.9559 40.5557C13.8746 40.4647 13.7962 40.3721 13.7206 40.2777ZM10.8494 31.9065L10.8301 31.9426L10.8617 31.9686L13.1534 33.8576C12.9982 35.0081 13.0078 35.0921 13.0192 35.1918C13.0249 35.242 13.0311 35.2962 13.0169 35.4928L10.3772 36.9127L10.3411 36.9321L10.353 36.9713L11.0873 39.3883L11.0992 39.4274L11.1399 39.4236L14.2033 39.1313C14.8284 39.9477 14.9017 40.0104 14.9859 40.0824C15.027 40.1175 15.0706 40.1549 15.1819 40.2826L14.2922 43.2627L14.2806 43.3018L14.3166 43.3211L16.544 44.5108L16.58 44.5301L16.6061 44.4986L18.6177 42.0654C19.5808 42.1923 19.665 42.1881 19.7662 42.1831C19.8167 42.1806 19.8713 42.1778 20.0411 42.191L21.5505 44.9867L21.5699 45.0227L21.609 45.0108L24.0235 44.2774L24.0626 44.2655L24.0587 44.2248L23.7583 41.0563C23.8589 40.9785 23.9024 40.9528 23.9451 40.9276C24.0418 40.8705 24.1347 40.8157 24.8762 40.1647L27.9018 41.0721L27.941 41.0839L27.9603 41.0478L29.1498 38.8212L29.1691 38.7851L29.1375 38.759L26.7368 36.7818C26.7444 36.7397 26.7538 36.6936 26.7642 36.6426C26.8104 36.4148 26.8768 36.0878 26.9014 35.5726L26.9014 35.5726L26.9156 35.269L29.6215 33.8144L29.6575 33.795L29.6456 33.7558L28.9119 31.3388L28.9001 31.2996L28.8594 31.3035L25.8741 31.5875C25.7899 31.4786 25.7581 31.4251 25.7261 31.3713C25.6524 31.2473 25.5777 31.1216 24.857 30.3095L25.7076 27.4647L25.7193 27.4255L25.6832 27.4063L23.4553 26.2165L23.4192 26.1973L23.3932 26.2288L21.5342 28.4784C21.3912 28.4617 21.3333 28.4457 21.2748 28.4295C21.1406 28.3924 21.0034 28.3545 19.8323 28.3062L18.4483 25.7407L18.4289 25.7047L18.3898 25.7166L15.9728 26.4508L15.9337 26.4627L15.9376 26.5034L16.2161 29.396C15.2405 30.1201 15.1812 30.1955 15.1138 30.2812C15.0806 30.3234 15.0455 30.368 14.8984 30.4936L12.0974 29.6549L12.0582 29.6432L12.0389 29.6793L10.8494 31.9065Z" fill="white" stroke="#2D2F8E" stroke-width="0.1"/>
</svg>
