<svg width="32" height="31" viewBox="0 0 32 31" fill="none" xmlns="http://www.w3.org/2000/svg">
<path fill-rule="evenodd" clip-rule="evenodd" d="M15.5794 31C24.1488 31 31.0957 24.0604 31.0957 15.5C31.0957 6.93959 24.1488 0 15.5794 0C9.56391 0 4.34794 3.41958 1.77322 8.41895C1.26474 9.40627 0.653445 11.6391 0.849441 13.0423C1.11213 16.5672 3.60296 18.5018 6.74796 17.8922C8.22461 17.606 9.32185 16.9735 10.3309 16.3919C10.8175 16.1115 11.2835 15.8428 11.7617 15.6305C13.6188 14.806 16.6648 14.9182 16.7754 17.3351C16.8717 19.4396 15.4308 20.6914 13.3532 21.546C10.4289 22.7489 7.34632 22.4335 4.90605 20.3103C3.38863 18.9901 2.33177 17.6085 1.26456 15.904C0.896476 15.3161 0.0957031 15.4685 0.0957031 16.0345C0.0957031 24.5949 7.00997 31 15.5794 31ZM18.4998 4.64284C21.4081 4.0456 24.2125 5.43267 25.2512 6.20086C20.0253 0.390742 12.8519 1.72155 10.3851 2.59794C7.91819 3.47433 5.74346 5.51923 6.29526 7.20709C6.84706 8.89494 9.47622 8.57035 11.2615 7.4343C13.0467 6.29824 14.8644 5.38939 18.4998 4.64284ZM5.44057 24.5862C6.47925 25.3544 9.42435 27.0568 12.3327 26.4596C15.968 25.713 17.7857 25.0008 19.571 23.8647C21.3562 22.7287 23.9854 22.4041 24.5372 24.0919C25.089 25.7798 22.9142 27.8247 20.4474 28.7011C17.9805 29.5775 10.6664 30.3963 5.44057 24.5862Z" fill="url(#paint0_linear_170_1028)"/>
<path fill-rule="evenodd" clip-rule="evenodd" d="M31.0856 14.431C31.0856 14.7874 30.9787 15.5 30.5511 15.5C30.4132 15.5 30.3109 15.5 30.2166 15.4725C29.9455 15.3933 29.7409 15.0863 28.9477 13.8966C27.8787 12.2931 25.7408 9.6207 22.5339 9.08621C19.327 8.55173 16.1201 10.1552 13.4477 12.2931C12.8896 12.7396 12.3081 13.256 11.7083 13.7888C9.43579 15.8073 6.89862 18.0608 4.36147 17.6379C3.89949 17.5609 3.47899 17.4396 3.09975 17.2722C1.85581 16.4574 1.02765 14.9935 0.882237 13.0423C0.686241 11.6391 1.29754 9.40627 1.80602 8.41895C4.38073 3.41958 9.5967 0 15.6122 0C23.7904 0 30.4908 6.3204 31.0856 14.3382V14.431ZM25.2839 6.20089C24.2452 5.4327 21.4408 4.04563 18.5325 4.64287C14.8971 5.38942 13.0794 6.29827 11.2941 7.43432C9.50891 8.57038 6.87975 8.89497 6.32795 7.20711C5.77615 5.51926 7.95088 3.47435 10.4178 2.59796C12.8846 1.72158 20.058 0.390768 25.2839 6.20089Z" fill="url(#paint1_linear_170_1028)"/>
<path fill-rule="evenodd" clip-rule="evenodd" d="M1.24304 9.81681C1.11988 10.7742 1.1328 11.6346 1.3523 12.2931C2.42127 15.5 6.16264 15.5 9.36953 12.8276C12.5764 10.1552 20.0592 5.34482 25.9385 9.62069C28.0039 11.1228 29.6639 12.3363 30.9367 13.2703C29.8545 5.76633 23.3912 0 15.5797 0C9.56417 0 4.3482 3.41958 1.77349 8.41895C1.59632 8.76295 1.40667 9.25817 1.24304 9.81681ZM25.2515 6.20089C24.2129 5.4327 21.4084 4.04563 18.5001 4.64287C14.8647 5.38942 13.047 6.29827 11.2618 7.43432C9.47657 8.57038 6.84741 8.89497 6.29561 7.20711C5.74381 5.51926 7.91855 3.47435 10.3854 2.59796C12.8523 1.72158 20.0257 0.390768 25.2515 6.20089Z" fill="url(#paint2_linear_170_1028)" fill-opacity="0.85"/>
<path fill-rule="evenodd" clip-rule="evenodd" d="M5.1754 3.9998C4.08386 5.85303 3.67638 7.7762 3.89471 9.0862C4.4292 12.2931 7.10156 11.7586 8.17052 11.2241C8.29204 11.1634 8.51026 11.0335 8.81026 10.8551C11.1493 9.46346 18.4596 5.11414 23.6705 7.48275C27.0833 9.034 28.0761 7.86514 28.1598 6.42624C25.3411 2.53307 20.756 0 15.5786 0C11.5761 0 7.92749 1.51392 5.1754 3.9998ZM25.2504 6.20086C24.2117 5.43267 21.4073 4.0456 18.499 4.64284C14.8636 5.38939 13.0459 6.29824 11.2607 7.4343C9.47544 8.57035 6.84628 8.89494 6.29448 7.20709C5.74268 5.51923 7.91741 3.47433 10.3843 2.59794C12.8511 1.72155 20.0245 0.390742 25.2504 6.20086Z" fill="url(#paint3_linear_170_1028)" fill-opacity="0.85"/>
<path fill-rule="evenodd" clip-rule="evenodd" d="M0.000207255 16.569C0.000207286 16.2126 0.107105 15.5 0.53469 15.5C0.67258 15.5 0.774896 15.5 0.869171 15.5275C1.14032 15.6067 1.34495 15.9137 2.13814 17.1034C3.2071 18.7069 5.34503 21.3793 8.55193 21.9138C11.7588 22.4483 14.9657 20.8448 17.6381 18.7069C18.1963 18.2604 18.7777 17.744 19.3776 17.2112C21.65 15.1927 24.1872 12.9392 26.7243 13.3621C27.1865 13.4391 27.6071 13.5605 27.9865 13.7279C29.2302 14.5428 30.0583 16.0066 30.2037 17.9577C30.3997 19.3609 29.7884 21.5937 29.2799 22.5811C26.7052 27.5804 21.4892 31 15.4737 31C7.29495 31 0.594151 24.6787 0.000207247 16.6601L0.000207255 16.569ZM5.80188 24.7991C6.84056 25.5673 9.645 26.9544 12.5533 26.3571C16.1887 25.6106 18.0064 24.7017 19.7916 23.5657C21.5768 22.4296 24.206 22.105 24.7578 23.7929C25.3096 25.4807 23.1349 27.5256 20.668 28.402C18.2011 29.2784 11.0277 30.6092 5.80188 24.7991Z" fill="url(#paint4_linear_170_1028)"/>
<path fill-rule="evenodd" clip-rule="evenodd" d="M29.843 21.1824C29.966 20.2253 29.9531 19.3652 29.7336 18.7069C28.6647 15.5 24.9233 15.5 21.7164 18.1724C18.5095 20.8448 11.0268 25.6552 5.14744 21.3793C3.08195 19.8771 1.42188 18.6636 0.149133 17.7296C1.23127 25.2336 7.69459 31 15.5061 31C21.5216 31 26.7376 27.5804 29.3123 22.5811C29.4896 22.2369 29.6793 21.7414 29.843 21.1824ZM5.83446 24.7991C6.87314 25.5673 9.67758 26.9544 12.5859 26.3571C16.2213 25.6106 18.039 24.7017 19.8242 23.5657C21.6094 22.4296 24.2386 22.105 24.7904 23.7929C25.3422 25.4807 23.1675 27.5256 20.7006 28.402C18.2337 29.2784 11.0603 30.6092 5.83446 24.7991Z" fill="url(#paint5_linear_170_1028)" fill-opacity="0.85"/>
<path fill-rule="evenodd" clip-rule="evenodd" d="M25.9104 27.0004C27.002 25.1471 27.4096 23.2239 27.1912 21.9138C26.6567 18.7069 23.9844 19.2414 22.9154 19.7759C22.7939 19.8366 22.5757 19.9665 22.2757 20.1449C19.9367 21.5365 12.6264 25.8859 7.41542 23.5172C4.0028 21.9661 3.00995 23.1348 2.92618 24.5736C5.74484 28.4669 10.33 31 15.5074 31C19.5099 31 23.1583 29.4862 25.9104 27.0004ZM5.83566 24.7991C6.87434 25.5673 9.67878 26.9544 12.5871 26.3572C16.2225 25.6106 18.0402 24.7018 19.8254 23.5657C21.6106 22.4296 24.2398 22.1051 24.7916 23.7929C25.3434 25.4808 23.1687 27.5257 20.7018 28.4021C18.2349 29.2784 11.0615 30.6093 5.83566 24.7991Z" fill="url(#paint6_linear_170_1028)" fill-opacity="0.85"/>
<defs>
<linearGradient id="paint0_linear_170_1028" x1="15.5957" y1="1.64266e-08" x2="16.1302" y2="25.1207" gradientUnits="userSpaceOnUse">
<stop stop-color="#2C2F8C"/>
<stop offset="0.75364" stop-color="#2C2F8C"/>
<stop offset="0.928249" stop-color="#FF6300"/>
</linearGradient>
<linearGradient id="paint1_linear_170_1028" x1="19.3379" y1="3.2069" x2="2.23443" y2="16.0345" gradientUnits="userSpaceOnUse">
<stop offset="0.494792" stop-color="#00B0E0"/>
<stop offset="0.951936" stop-color="#4F3594"/>
</linearGradient>
<linearGradient id="paint2_linear_170_1028" x1="20.4064" y1="2.67241" x2="3.30297" y2="12.8276" gradientUnits="userSpaceOnUse">
<stop offset="0.458333" stop-color="#00B0E0"/>
<stop offset="1" stop-color="#303393"/>
</linearGradient>
<linearGradient id="paint3_linear_170_1028" x1="26.8206" y1="2.13793" x2="4.37237" y2="10.6897" gradientUnits="userSpaceOnUse">
<stop offset="0.177176" stop-color="#00B0E0" stop-opacity="0"/>
<stop offset="0.584935" stop-color="#00B0E0"/>
<stop offset="0.936448" stop-color="#2D2F8E"/>
</linearGradient>
<linearGradient id="paint4_linear_170_1028" x1="11.7481" y1="27.7931" x2="28.8515" y2="14.9655" gradientUnits="userSpaceOnUse">
<stop offset="0.520833" stop-color="#FF8900"/>
<stop offset="0.951936" stop-color="#FF6300"/>
</linearGradient>
<linearGradient id="paint5_linear_170_1028" x1="10.6795" y1="28.3276" x2="27.783" y2="18.1724" gradientUnits="userSpaceOnUse">
<stop offset="0.458333" stop-color="#FF4500" stop-opacity="0"/>
<stop offset="1" stop-color="#FF4500"/>
</linearGradient>
<linearGradient id="paint6_linear_170_1028" x1="16.5692" y1="26.7241" x2="26.7136" y2="20.3103" gradientUnits="userSpaceOnUse">
<stop offset="0.177176" stop-color="#FF8900" stop-opacity="0"/>
<stop offset="1" stop-color="#FF8900"/>
</linearGradient>
</defs>
</svg>
