<svg width="32" height="31" viewBox="0 0 32 31" fill="none" xmlns="http://www.w3.org/2000/svg">
<path fill-rule="evenodd" clip-rule="evenodd" d="M15.5799 31C24.1493 31 31.0962 24.0604 31.0962 15.5C31.0962 6.93959 24.1493 0 15.5799 0C9.5644 0 4.34842 3.41958 1.77371 8.41895C1.26523 9.40627 0.653933 11.6391 0.849929 13.0423C1.11262 16.5672 3.60345 18.5018 6.74845 17.8922C8.2251 17.606 9.32234 16.9735 10.3314 16.3919C10.818 16.1115 11.284 15.8428 11.7622 15.6305C13.6193 14.806 16.6653 14.9182 16.7759 17.3351C16.8722 19.4396 15.4313 20.6914 13.3537 21.546C10.4294 22.7489 7.34681 22.4335 4.90654 20.3103C3.38912 18.9901 2.33226 17.6085 1.26504 15.904C0.896964 15.3161 0.0961914 15.4685 0.0961914 16.0345C0.0961914 24.5949 7.01046 31 15.5799 31ZM18.5002 4.64284C21.4086 4.0456 24.213 5.43267 25.2517 6.20086C20.0258 0.390742 12.8524 1.72155 10.3855 2.59794C7.91868 3.47433 5.74395 5.51923 6.29575 7.20709C6.84755 8.89494 9.47671 8.57035 11.2619 7.4343C13.0472 6.29824 14.8649 5.38939 18.5002 4.64284ZM5.44106 24.5862C6.47974 25.3544 9.42484 27.0568 12.3331 26.4596C15.9685 25.713 17.7862 25.0008 19.5715 23.8647C21.3567 22.7287 23.9859 22.4041 24.5377 24.0919C25.0895 25.7798 22.9147 27.8247 20.4479 28.7011C17.981 29.5775 10.6669 30.3963 5.44106 24.5862Z" fill="url(#paint0_linear_170_779)"/>
<path fill-rule="evenodd" clip-rule="evenodd" d="M31.0851 14.431C31.0851 14.7874 30.9782 15.5 30.5506 15.5C30.4127 15.5 30.3104 15.5 30.2162 15.4725C29.945 15.3933 29.7404 15.0863 28.9472 13.8966C27.8782 12.2931 25.7403 9.6207 22.5334 9.08621C19.3265 8.55173 16.1196 10.1552 13.4472 12.2931C12.8891 12.7396 12.3076 13.256 11.7078 13.7888C9.4353 15.8073 6.89814 18.0608 4.36098 17.6379C3.899 17.5609 3.4785 17.4396 3.09926 17.2722C1.85532 16.4574 1.02716 14.9935 0.881749 13.0423C0.685753 11.6391 1.29705 9.40627 1.80553 8.41895C4.38024 3.41958 9.59622 0 15.6117 0C23.7899 0 30.4904 6.3204 31.0851 14.3382V14.431ZM25.2834 6.20089C24.2447 5.4327 21.4403 4.04563 18.532 4.64287C14.8966 5.38942 13.0789 6.29827 11.2937 7.43432C9.50842 8.57038 6.87926 8.89497 6.32746 7.20711C5.77566 5.51926 7.9504 3.47435 10.4173 2.59796C12.8841 1.72158 20.0575 0.390768 25.2834 6.20089Z" fill="url(#paint1_linear_170_779)"/>
<path fill-rule="evenodd" clip-rule="evenodd" d="M1.24304 9.81681C1.11988 10.7742 1.1328 11.6346 1.3523 12.2931C2.42127 15.5 6.16264 15.5 9.36953 12.8276C12.5764 10.1552 20.0592 5.34482 25.9385 9.62069C28.0039 11.1228 29.6639 12.3363 30.9367 13.2703C29.8545 5.76633 23.3912 0 15.5797 0C9.56417 0 4.3482 3.41958 1.77349 8.41895C1.59632 8.76295 1.40667 9.25817 1.24304 9.81681ZM25.2515 6.20089C24.2129 5.4327 21.4084 4.04563 18.5001 4.64287C14.8647 5.38942 13.047 6.29827 11.2618 7.43432C9.47657 8.57038 6.84741 8.89497 6.29561 7.20711C5.74381 5.51926 7.91855 3.47435 10.3854 2.59796C12.8523 1.72158 20.0257 0.390768 25.2515 6.20089Z" fill="url(#paint2_linear_170_779)" fill-opacity="0.85"/>
<path fill-rule="evenodd" clip-rule="evenodd" d="M5.17492 3.9998C4.08338 5.85303 3.67589 7.7762 3.89423 9.0862C4.42871 12.2931 7.10107 11.7586 8.17003 11.2241C8.29155 11.1634 8.50977 11.0335 8.80977 10.8551C11.1488 9.46346 18.4591 5.11414 23.67 7.48275C27.0828 9.034 28.0756 7.86514 28.1593 6.42624C25.3406 2.53307 20.7555 0 15.5781 0C11.5756 0 7.927 1.51392 5.17492 3.9998ZM25.2499 6.20086C24.2112 5.43267 21.4068 4.0456 18.4985 4.64284C14.8631 5.38939 13.0454 6.29824 11.2602 7.4343C9.47495 8.57035 6.84579 8.89494 6.29399 7.20709C5.74219 5.51923 7.91692 3.47433 10.3838 2.59794C12.8507 1.72155 20.0241 0.390742 25.2499 6.20086Z" fill="url(#paint3_linear_170_779)" fill-opacity="0.85"/>
<path fill-rule="evenodd" clip-rule="evenodd" d="M-0.000281026 16.569C-0.000280995 16.2126 0.106616 15.5 0.534202 15.5C0.672092 15.5 0.774408 15.5 0.868682 15.5275C1.13983 15.6067 1.34446 15.9137 2.13765 17.1034C3.20662 18.7069 5.34455 21.3793 8.55144 21.9138C11.7583 22.4483 14.9652 20.8448 17.6377 18.7069C18.1958 18.2604 18.7772 17.744 19.3771 17.2112C21.6495 15.1927 24.1867 12.9392 26.7239 13.3621C27.186 13.4391 27.6066 13.5605 27.986 13.7279C29.2298 14.5428 30.0578 16.0066 30.2032 17.9577C30.3992 19.3609 29.7879 21.5937 29.2794 22.5811C26.7047 27.5804 21.4887 31 15.4732 31C7.29447 31 0.593663 24.6787 -0.000281034 16.6601L-0.000281026 16.569ZM5.80139 24.7991C6.84007 25.5673 9.64451 26.9544 12.5528 26.3571C16.1882 25.6106 18.0059 24.7017 19.7911 23.5657C21.5764 22.4296 24.2055 22.105 24.7573 23.7929C25.3091 25.4807 23.1344 27.5256 20.6675 28.402C18.2007 29.2784 11.0273 30.6092 5.80139 24.7991Z" fill="url(#paint4_linear_170_779)"/>
<path fill-rule="evenodd" clip-rule="evenodd" d="M29.842 21.1824C29.9651 20.2253 29.9521 19.3652 29.7327 18.7069C28.6637 15.5 24.9223 15.5 21.7154 18.1724C18.5085 20.8448 11.0258 25.6552 5.14647 21.3793C3.08098 19.8771 1.42091 18.6636 0.148156 17.7296C1.2303 25.2336 7.69361 31 15.5052 31C21.5207 31 26.7366 27.5804 29.3113 22.5811C29.4886 22.2369 29.6783 21.7414 29.842 21.1824ZM5.83348 24.7991C6.87216 25.5673 9.6766 26.9544 12.5849 26.3571C16.2203 25.6106 18.038 24.7017 19.8232 23.5657C21.6085 22.4296 24.2376 22.105 24.7894 23.7929C25.3412 25.4807 23.1665 27.5256 20.6996 28.402C18.2327 29.2784 11.0593 30.6092 5.83348 24.7991Z" fill="url(#paint5_linear_170_779)" fill-opacity="0.85"/>
<path fill-rule="evenodd" clip-rule="evenodd" d="M25.9099 27.0004C27.0016 25.1471 27.4091 23.2239 27.1907 21.9138C26.6563 18.7069 23.9839 19.2414 22.9149 19.7759C22.7934 19.8366 22.5752 19.9665 22.2752 20.1449C19.9362 21.5365 12.6259 25.8859 7.41493 23.5172C4.00231 21.9661 3.00946 23.1348 2.92569 24.5736C5.74435 28.4669 10.3295 31 15.5069 31C19.5094 31 23.1578 29.4862 25.9099 27.0004ZM5.83517 24.7991C6.87385 25.5673 9.67829 26.9544 12.5866 26.3572C16.222 25.6106 18.0397 24.7018 19.8249 23.5657C21.6101 22.4296 24.2393 22.1051 24.7911 23.7929C25.3429 25.4808 23.1682 27.5257 20.7013 28.4021C18.2344 29.2784 11.061 30.6093 5.83517 24.7991Z" fill="url(#paint6_linear_170_779)" fill-opacity="0.85"/>
<defs>
<linearGradient id="paint0_linear_170_779" x1="15.5962" y1="1.64266e-08" x2="16.1307" y2="25.1207" gradientUnits="userSpaceOnUse">
<stop stop-color="#2C2F8C"/>
<stop offset="0.75364" stop-color="#2C2F8C"/>
<stop offset="0.928249" stop-color="#FF6300"/>
</linearGradient>
<linearGradient id="paint1_linear_170_779" x1="19.3374" y1="3.2069" x2="2.23395" y2="16.0345" gradientUnits="userSpaceOnUse">
<stop offset="0.494792" stop-color="#00B0E0"/>
<stop offset="0.951936" stop-color="#4F3594"/>
</linearGradient>
<linearGradient id="paint2_linear_170_779" x1="20.4064" y1="2.67241" x2="3.30297" y2="12.8276" gradientUnits="userSpaceOnUse">
<stop offset="0.458333" stop-color="#00B0E0"/>
<stop offset="1" stop-color="#303393"/>
</linearGradient>
<linearGradient id="paint3_linear_170_779" x1="26.8202" y1="2.13793" x2="4.37188" y2="10.6897" gradientUnits="userSpaceOnUse">
<stop offset="0.177176" stop-color="#00B0E0" stop-opacity="0"/>
<stop offset="0.584935" stop-color="#00B0E0"/>
<stop offset="0.936448" stop-color="#2D2F8E"/>
</linearGradient>
<linearGradient id="paint4_linear_170_779" x1="11.7476" y1="27.7931" x2="28.851" y2="14.9655" gradientUnits="userSpaceOnUse">
<stop offset="0.520833" stop-color="#FF8900"/>
<stop offset="0.951936" stop-color="#FF6300"/>
</linearGradient>
<linearGradient id="paint5_linear_170_779" x1="10.6785" y1="28.3276" x2="27.782" y2="18.1724" gradientUnits="userSpaceOnUse">
<stop offset="0.458333" stop-color="#FF4500" stop-opacity="0"/>
<stop offset="1" stop-color="#FF4500"/>
</linearGradient>
<linearGradient id="paint6_linear_170_779" x1="16.5687" y1="26.7241" x2="26.7131" y2="20.3103" gradientUnits="userSpaceOnUse">
<stop offset="0.177176" stop-color="#FF8900" stop-opacity="0"/>
<stop offset="1" stop-color="#FF8900"/>
</linearGradient>
</defs>
</svg>
