<svg width="40" height="58" viewBox="0 0 40 58" fill="none" xmlns="http://www.w3.org/2000/svg">
<path d="M20.0004 32.3453C23.2745 32.3453 26.4147 31.0447 28.7297 28.7296C31.0447 26.4141 32.3454 23.2741 32.3454 20.0003C32.3454 16.7261 31.0448 13.586 28.7297 11.2709C26.4147 8.95591 23.2745 7.65525 20.0004 7.65525C16.7262 7.65525 13.5861 8.95579 11.271 11.2709C8.95601 13.586 7.65535 16.7261 7.65535 20.0003C7.66026 23.2727 8.96263 26.4096 11.2767 28.7238C13.5904 31.0379 16.7279 32.3399 20.0004 32.3453ZM20.0004 9.25315C22.8507 9.25315 25.5843 10.3853 27.6002 12.4008C29.6157 14.4163 30.7478 17.1499 30.7478 20.0006C30.7478 22.8509 29.6157 25.5846 27.6002 27.6001C25.5842 29.6156 22.8507 30.7482 20.0004 30.7482C17.1501 30.7482 14.4164 29.6156 12.4005 27.6001C10.385 25.5846 9.25291 22.851 9.25291 20.0006C9.25603 17.1511 10.3895 14.4194 12.4045 12.4043C14.4191 10.3897 17.151 9.25623 20.0004 9.25315ZM3.77038 29.0614C3.77305 30.3998 4.14924 31.7103 4.85569 32.8469C5.56215 33.9835 6.57123 34.9007 7.77022 35.4953L1.38046 51.6226C1.26458 51.9181 1.335 52.2546 1.55919 52.4793C1.77849 52.7079 2.11456 52.781 2.40917 52.6643L10.0768 49.7056L13.6104 57.067C13.7437 57.3447 14.0245 57.5212 14.3325 57.5208C14.6503 57.5096 14.9315 57.3117 15.0483 57.0158L20.0001 44.6071L24.9012 57.0158C25.0179 57.3117 25.2988 57.5096 25.6165 57.5208C25.9428 57.5417 26.2495 57.3621 26.3898 57.067L29.9488 49.6869L37.6164 52.6455C37.911 52.7623 38.2471 52.6888 38.4664 52.4601C38.691 52.2355 38.761 51.8994 38.6451 51.6039L32.2554 35.4766C33.4495 34.8785 34.4537 33.9594 35.1556 32.8228C35.8572 31.6867 36.2294 30.3776 36.2298 29.0418C36.2325 27.5545 36.8306 26.1295 37.8914 25.0865C39.2414 23.7383 40 21.9085 40 20.0005C40 18.0924 39.2414 16.2623 37.8914 14.914C36.8399 13.8671 36.2512 12.4426 36.2556 10.9588C36.252 9.04892 35.4903 7.21883 34.1372 5.87048C32.7845 4.52269 30.9512 3.7671 29.0413 3.7703C27.5664 3.76807 26.1527 3.17973 25.1119 2.13452C23.7613 0.768825 21.9205 0 19.9999 0C18.0794 0 16.2385 0.768859 14.888 2.13452C13.841 3.18596 12.4166 3.77475 10.9328 3.7703C9.03181 3.78055 7.21198 4.54183 5.86991 5.88873C4.52829 7.23526 3.77327 9.05771 3.77019 10.9588C3.76751 12.4466 3.16937 13.871 2.10862 14.914C0.758557 16.2623 0 18.0924 0 20.0005C0 21.9087 0.758602 23.7383 2.10862 25.0865C3.16942 26.1295 3.76756 27.5545 3.77019 29.0418L3.77038 29.0614ZM14.2812 54.7345L11.195 48.3448C11.0181 47.9646 10.5755 47.7881 10.1855 47.9423L3.55282 50.498L9.30338 36.0195C9.85472 36.1576 10.4217 36.2285 10.9904 36.2303C12.4545 36.241 13.8549 36.8289 14.8881 37.8661C15.7742 38.7481 16.8756 39.3824 18.083 39.7064L19.163 42.4284L14.2812 54.7345ZM36.4479 50.498L29.8153 47.9423C29.427 47.7872 28.9849 47.9606 28.8057 48.3386L25.7512 54.7346L19.8856 39.9686H20.0006C21.9186 39.981 23.7611 39.2211 25.1125 37.8599C26.1595 36.8085 27.584 36.2197 29.0678 36.2242C29.6365 36.2224 30.203 36.1515 30.7543 36.0133L36.4479 50.498ZM3.26 16.0447C4.62125 14.6932 5.38117 12.8507 5.36862 10.9327C5.37174 9.45077 5.96186 8.03065 7.00976 6.98284C8.05763 5.93497 9.47769 5.3449 10.9597 5.3417C12.8776 5.35418 14.7197 4.59424 16.0711 3.23308C17.1208 2.18521 18.5435 1.59639 20.0264 1.59639C21.5097 1.59639 22.9325 2.18518 23.9816 3.23308C25.3331 4.59433 27.1756 5.35425 29.0936 5.3417C30.5755 5.34482 31.9957 5.93495 33.0435 6.98284C34.0913 8.03072 34.6814 9.45077 34.6846 10.9327C34.6721 12.8507 35.4321 14.6932 36.7932 16.0447C37.8411 17.0939 38.4299 18.5166 38.4299 19.9999C38.4299 21.4828 37.8411 22.9056 36.7932 23.9552C35.4307 25.3057 34.6707 27.1487 34.6846 29.0666C34.6815 30.5486 34.0914 31.9687 33.0435 33.0165C31.9956 34.0644 30.5755 34.6545 29.0936 34.6577C27.1753 34.6439 25.3322 35.4043 23.9816 36.7663C22.9324 37.8146 21.5097 38.403 20.0264 38.403C18.5435 38.403 17.1208 37.8147 16.0711 36.7663C14.7206 35.4041 12.8781 34.6438 10.9597 34.6577C9.47769 34.6546 8.05757 34.0644 7.00976 33.0165C5.96188 31.9687 5.37181 30.5486 5.36862 29.0666C5.38244 27.1487 4.62204 25.3057 3.26 23.9552C2.21168 22.9055 1.62331 21.4828 1.62331 19.9999C1.62331 18.5166 2.21164 17.0938 3.26 16.0447ZM14.6783 26.1023C14.6283 26.4031 14.7518 26.7071 14.9978 26.888C15.2457 27.065 15.5719 27.0873 15.8411 26.9455L20.001 24.7602L24.1608 26.9455C24.2745 27.0079 24.4015 27.0405 24.5312 27.0414C24.701 27.0414 24.8668 26.9879 25.0041 26.888C25.2501 26.7071 25.3736 26.4031 25.3237 26.1022L24.525 21.4694L27.8924 18.1916C28.1081 17.9786 28.1865 17.663 28.097 17.3737C28.0038 17.0862 27.7564 16.8759 27.4578 16.8304L22.8058 16.1529L20.7225 11.9356C20.5879 11.6632 20.3107 11.4916 20.0072 11.4916C19.7036 11.4916 19.4264 11.6637 19.2918 11.936L17.2085 16.1534L12.5565 16.8308C12.2579 16.8763 12.011 17.0862 11.9178 17.3737C11.8278 17.663 11.9067 17.9786 12.1224 18.1916L15.4898 21.4694L14.6783 26.1023ZM14.3845 18.1788L17.8478 17.6738C18.1085 17.6351 18.3332 17.4701 18.4482 17.233L20.001 14.0765L21.5538 17.2139C21.6688 17.451 21.8935 17.6159 22.1542 17.6547L25.6174 18.1597L23.1125 20.6004C22.9222 20.7841 22.8366 21.0497 22.883 21.31L23.4709 24.7603L20.3714 23.1499C20.1392 23.0305 19.8629 23.0305 19.6306 23.1499L16.5316 24.7794L17.1195 21.3292C17.1658 21.0689 17.0794 20.8033 16.8891 20.6196L14.3845 18.1788Z" fill="white"/>
</svg>
