<svg width="46" height="40" viewBox="0 0 46 40" fill="none" xmlns="http://www.w3.org/2000/svg">
<path d="M30.078 9.33699H28.9682L28.8759 10.6315C28.8516 10.9729 28.6061 11.247 28.2892 11.3226C28.0152 11.3885 27.7504 11.4748 27.5012 11.5778C27.2393 11.6865 26.9909 11.813 26.7613 11.9545C26.4652 12.1373 26.0916 12.0928 25.8457 11.8693L24.8784 11.031L24.0922 11.8173L24.9426 12.7999C25.1657 13.0583 25.1853 13.4233 25.0156 13.6998C24.8695 13.9418 24.7412 14.1899 24.6389 14.4372C24.5352 14.6899 24.4493 14.9544 24.3841 15.2292C24.3025 15.5738 23.9995 15.808 23.6616 15.8183L22.3978 15.9081V17.0172L23.6916 17.1102C24.0519 17.1355 24.3367 17.4078 24.393 17.7493C24.4546 17.9941 24.5373 18.2404 24.6385 18.4849L24.6532 18.5223C24.7551 18.7643 24.8784 19.0013 25.017 19.2276C25.2009 19.5295 25.1511 19.9091 24.918 20.1533L24.09 21.1085L24.8763 21.8954L25.8599 21.0432C26.1183 20.8201 26.4833 20.8005 26.7598 20.9702C26.9983 21.1138 27.2463 21.2418 27.5005 21.3469C27.7496 21.4502 28.0147 21.5365 28.2892 21.6017C28.6338 21.6833 28.868 21.9863 28.8783 22.3242L28.9681 23.588H30.078L30.1703 22.2942C30.1956 21.9332 30.4679 21.6484 30.81 21.5925C31.0549 21.5308 31.3011 21.4488 31.5456 21.3476L31.5841 21.333C31.8201 21.2336 32.0549 21.1103 32.2848 20.9691C32.5949 20.7784 32.9873 20.8351 33.2318 21.0839L34.1685 21.8943L34.9547 21.1081L34.104 20.1262C33.8808 19.8678 33.8612 19.5028 34.0309 19.2263C34.1774 18.9832 34.305 18.7355 34.408 18.4871C34.5117 18.2347 34.5976 17.971 34.6628 17.6973C34.7444 17.3527 35.0474 17.1185 35.3852 17.1082L36.6491 17.0176V15.9085L35.3546 15.8162C34.9935 15.7909 34.7088 15.5186 34.6528 15.1765C34.5912 14.9316 34.5092 14.6853 34.408 14.4409L34.3934 14.4024C34.2939 14.1664 34.1706 13.9315 34.0295 13.7017C33.8388 13.3916 33.8955 12.9992 34.1442 12.7543L34.9554 11.8184L34.1692 11.0322L33.1865 11.8829C32.9281 12.1067 32.5617 12.1256 32.2855 11.9552C32.0564 11.8141 31.8076 11.6872 31.5456 11.5785C31.2965 11.4752 31.0313 11.3889 30.7576 11.3237C30.413 11.2421 30.1788 10.9391 30.1685 10.6013L30.0787 9.33741L30.078 9.33699ZM0.635005 25.8514L5.00912 25.0854C5.33987 25.0281 5.65849 25.1917 5.81175 25.4704L11.7341 22.8451C12.8336 22.3576 13.9531 22.1434 15.0815 22.153C16.1942 22.1633 17.3058 22.395 18.4093 22.7974L28.9612 26.659C29.0289 26.6832 29.0902 26.7164 29.1458 26.7563C30.0735 27.3319 30.5603 28.0183 30.7638 28.7219C30.8657 29.0744 30.8946 29.4226 30.8725 29.7594L42.6223 25.5128C43.5618 25.2637 44.3877 25.5135 44.991 26.021C45.3253 26.3015 45.5862 26.6601 45.7537 27.0493C45.922 27.441 46.0036 27.8747 45.979 28.307C45.9337 29.1061 45.5374 29.8888 44.6874 30.4013L29.2889 39.0406C28.5853 39.4358 27.8636 39.7081 27.1102 39.8589C26.3599 40.0103 25.5901 40.0388 24.7886 39.9494L8.03973 38.0762C8.01977 38.4233 7.76388 38.7237 7.40675 38.7858L3.03264 39.5517C2.61635 39.624 2.21932 39.3453 2.14662 38.929L0.0114285 26.7376C-0.0609218 26.3213 0.217785 25.9243 0.634065 25.8516L0.635005 25.8514ZM6.12261 27.0075L7.78627 36.5083L24.9567 38.4286C25.6096 38.5017 26.2247 38.4807 26.811 38.3624C27.3959 38.2455 27.9689 38.027 28.5406 37.7059L43.9008 29.0884C44.2647 28.8674 44.4336 28.5459 44.4518 28.2241C44.4625 28.0334 44.4247 27.8367 44.3463 27.6546C44.2679 27.4724 44.1514 27.3088 44.0085 27.1887C43.7665 26.9849 43.4254 26.8865 43.0255 26.987L29.5668 31.859C28.9687 32.0757 28.3803 32.2022 27.7841 32.2386C27.1931 32.2753 26.5969 32.2222 25.9761 32.0811L18.4138 30.3574C18.0022 30.2651 17.7442 29.856 17.8365 29.4443C17.9288 29.0327 18.3379 28.7746 18.7496 28.867L26.3118 30.5906C26.7887 30.6985 27.2452 30.7395 27.695 30.7117C28.1405 30.6846 28.5871 30.5873 29.0454 30.4216L29.1631 30.3788C29.3259 29.9882 29.4147 29.5516 29.2978 29.1478C29.1941 28.7882 28.9171 28.4183 28.3732 28.073L17.8889 24.2359C16.9376 23.8887 15.9946 23.6891 15.0708 23.6806C14.1612 23.6728 13.252 23.8485 12.3521 24.2473L6.12356 27.0084L6.12261 27.0075ZM4.51844 26.7263L1.65297 27.2278L3.52374 37.9111L6.38921 37.4096L4.51844 26.7263ZM36.2981 20.3253C36.4567 20.2662 36.6149 20.201 36.7725 20.1315C37.1079 19.9828 37.4365 19.81 37.7512 19.6168C38.0613 19.4261 38.4537 19.4828 38.6985 19.7316L40.3865 21.1939L42.0587 19.5216L40.5561 17.7873C40.333 17.529 40.3134 17.164 40.483 16.8874C40.7086 16.5157 40.9089 16.1272 41.0743 15.7269L41.0907 15.6906C41.245 15.3117 41.3744 14.9097 41.4738 14.4916C41.5555 14.147 41.8584 13.9128 42.1963 13.9025L44.452 13.7414V11.3787L42.1653 11.2151C41.8043 11.1898 41.5192 10.9172 41.4636 10.5743C41.3652 10.1759 41.2337 9.78062 41.073 9.39287L41.058 9.35438C40.8987 8.97302 40.7037 8.59773 40.481 8.23423C40.2903 7.92416 40.347 7.53176 40.5957 7.28689L42.058 5.59896L40.3858 3.92672L38.6515 5.42934C38.3931 5.65245 38.0282 5.67206 37.7516 5.5024C37.3799 5.2768 36.9914 5.0765 36.5911 4.91112L36.5548 4.89473C36.1759 4.74041 35.7739 4.61103 35.3558 4.5116C35.0111 4.42998 34.777 4.12704 34.7666 3.78916L34.6056 1.53344H32.2429L32.0793 3.82009C32.0551 4.16153 31.8095 4.4356 31.4927 4.51116C31.0618 4.61487 30.6473 4.74888 30.2574 4.90998C29.8586 5.07713 29.4697 5.27636 29.0987 5.50446C28.7887 5.69513 28.3963 5.63847 28.1514 5.3897L26.4627 3.92703L24.7905 5.59927L26.2931 7.33356C26.5162 7.59195 26.5358 7.9569 26.3662 8.23348C26.1659 8.56351 25.9877 8.90209 25.838 9.2435C25.7745 9.38892 25.715 9.5379 25.6594 9.6883L26.4542 10.3769C26.605 10.3002 26.7589 10.229 26.9136 10.1652C27.0686 10.1007 27.2269 10.0422 27.3869 9.9891L27.4888 8.55774C27.4967 8.14074 27.8371 7.80537 28.2551 7.80537H30.19C30.6281 7.50527 31.1084 7.26577 31.6177 7.09755C32.1862 6.90972 32.7946 6.80779 33.4247 6.80779C35.0115 6.80779 36.4495 7.45217 37.4903 8.49289C38.5339 9.53676 39.1782 10.9749 39.1782 12.5616C39.1782 13.1935 39.0756 13.8029 38.8874 14.3715C38.7135 14.8857 38.4747 15.3658 38.1806 15.7992V17.7302C38.1799 18.1286 37.8709 18.4651 37.4678 18.4936L35.9966 18.5991L35.8205 19.071L35.6088 19.5322L36.2981 20.3262L36.2981 20.3253ZM24.0428 9.69775C24.1533 9.33457 24.2859 8.97782 24.437 8.63207C24.5439 8.38829 24.659 8.15057 24.7823 7.92104L23.2042 6.1009C22.9055 5.80224 22.9055 5.31574 23.2042 5.01707L25.8819 2.33937C26.1641 2.06066 26.6186 2.03999 26.9236 2.30373L28.7858 3.91757C29.072 3.76361 29.3682 3.62318 29.6719 3.49701C29.9755 3.37263 30.282 3.26214 30.5917 3.16876L30.7649 0.752371C30.7728 0.335379 31.1132 0 31.5312 0H35.318C35.7165 0.000712855 36.0529 0.309713 36.0814 0.712809L36.2575 3.1688C36.5544 3.25861 36.8484 3.36304 37.1368 3.48137L37.1777 3.49705C37.4818 3.62321 37.7776 3.76364 38.0631 3.91761L39.8832 2.33944C40.1819 2.04077 40.6684 2.04077 40.967 2.33944L43.6447 5.01714C43.9234 5.29941 43.9441 5.75382 43.6804 6.05891L42.0672 7.92111C42.2127 8.19341 42.3474 8.47567 42.4693 8.76721L42.4867 8.8057C42.6093 9.10188 42.7191 9.4091 42.8139 9.72668L45.2329 9.89989C45.6498 9.90773 45.9852 10.2481 45.9852 10.6662V14.453C45.9845 14.8514 45.6755 15.1879 45.2724 15.2164L42.8164 15.3924C42.7266 15.6893 42.6222 15.9834 42.5039 16.2717L42.4882 16.3127C42.362 16.6167 42.2216 16.9125 42.0676 17.198L43.6458 19.0181C43.9445 19.3168 43.9445 19.8033 43.6458 20.102L40.9681 22.7797C40.6858 23.0584 40.2314 23.079 39.9263 22.8153L38.0645 21.2022C37.8449 21.3205 37.619 21.431 37.3891 21.5322C37.042 21.6862 36.6734 21.823 36.2886 21.9403L34.7493 23.4796C34.467 23.7583 34.0126 23.779 33.7075 23.5152L32.5913 22.5483L32.1319 22.7596C31.9793 22.8231 31.8211 22.8808 31.6585 22.9339L31.5559 24.367C31.5481 24.784 31.2077 25.1194 30.7896 25.1194H28.2556C27.8572 25.1187 27.5207 24.8097 27.4922 24.4066L27.3871 22.9354C27.2271 22.883 27.0692 22.8238 26.9134 22.7593C26.7566 22.6941 26.6034 22.6242 26.4537 22.5486L25.3595 23.496C25.0609 23.7747 24.5918 23.7701 24.2999 23.4792L22.5075 21.6876C22.2256 21.4071 22.2046 20.9512 22.4691 20.6458L23.437 19.5296L23.2253 19.0702C23.1619 18.9176 23.1041 18.7594 23.051 18.5969L21.6172 18.4942C21.2009 18.4864 20.8652 18.146 20.8652 17.7279V15.1946C20.8659 14.7961 21.1749 14.4597 21.578 14.4312L23.0492 14.326C23.1023 14.1656 23.1608 14.0074 23.2253 13.8524L23.4366 13.393L22.5054 12.3188C22.2067 12.0201 22.2067 11.5336 22.5054 11.235L24.0436 9.69675L24.0428 9.69775ZM31.5701 8.7661L31.6577 9.98826C31.8178 10.0414 31.9757 10.0998 32.131 10.1643C32.2861 10.2281 32.4393 10.2994 32.5908 10.376L33.665 9.44438C33.9636 9.14571 34.4501 9.14571 34.7488 9.44438L36.5405 11.236C36.8192 11.5183 36.8399 11.9727 36.5761 12.2778L35.6088 13.394L35.8201 13.8535C35.8836 14.006 35.9413 14.1642 35.9944 14.3268L37.2201 14.4144C37.3035 14.2455 37.3759 14.0705 37.4351 13.8919C37.5701 13.4739 37.6457 13.0255 37.6457 12.5608C37.6457 11.3943 37.1731 10.3375 36.4111 9.57476C35.6484 8.81241 34.5917 8.3402 33.4251 8.3402C32.9618 8.3402 32.5145 8.41504 32.0975 8.55262C31.9157 8.61249 31.7404 8.68413 31.5707 8.76682L31.5701 8.7661ZM29.5226 13.8919C28.813 13.8919 28.1697 14.1799 27.7049 14.6443C27.2401 15.1091 26.9518 15.7524 26.9518 16.462C26.9518 17.1716 27.2401 17.8149 27.7049 18.2797C28.1696 18.7444 28.813 19.0327 29.5226 19.0327C30.2322 19.0327 30.8755 18.7444 31.3402 18.2797C31.805 17.8149 32.0926 17.1716 32.0926 16.462C32.0926 15.751 31.8053 15.1076 31.3413 14.6432C30.8765 14.1792 30.2332 13.8919 29.5226 13.8919ZM26.621 13.5605C27.3627 12.8188 28.3899 12.359 29.5226 12.359C30.6527 12.359 31.6788 12.8188 32.4212 13.5605C33.1658 14.3057 33.6259 15.3318 33.6259 16.462C33.6259 17.5946 33.1661 18.6218 32.4244 19.3635C31.682 20.1059 30.6556 20.5657 29.5229 20.5657C28.3903 20.5657 27.3638 20.1059 26.6214 19.3635C25.879 18.6211 25.4192 17.5946 25.4192 16.462C25.4192 15.3294 25.879 14.3029 26.6214 13.5605H26.621Z" fill="#FF4500"/>
</svg>
