<svg width="60" height="60" viewBox="0 0 60 60" fill="none" xmlns="http://www.w3.org/2000/svg">
<path d="M33.4688 7.6875H42.375C42.5625 7.6875 42.8438 7.59375 43.0312 7.40625L46.5938 4.21875H53.625C54 5.625 55.2188 6.5625 56.7188 6.5625C58.5 6.5625 60 5.15625 60 3.28125C60 1.5 58.5 0 56.7188 0C55.2188 0 54 1.03125 53.625 2.34375H46.2188C46.0312 2.34375 45.75 2.4375 45.5625 2.625L42 5.8125H33.4688V0.9375C33.4688 0.375 33.0938 0 32.5312 0H25.7812C25.3125 0 24.9375 0.375 24.8438 0.84375L24.0938 7.21875C21.9375 7.78125 19.875 8.625 18 9.75L13.0312 5.8125C12.6562 5.53125 12.0938 5.53125 11.8125 5.90625L5.90625 11.8125C5.53125 12.1875 5.53125 12.6562 5.8125 13.0312L9.75 18C8.625 19.875 7.78125 21.9375 7.21875 24.0938L0.84375 24.8438C0.375 24.9375 0 25.3125 0 25.7812V34.125C0 34.5938 0.375 34.9688 0.84375 35.0625L7.21875 35.8125C7.78125 37.9688 8.625 40.0312 9.75 41.9062L5.8125 46.875C5.53125 47.25 5.53125 47.8125 5.90625 48.0938L11.8125 54C12.1875 54.375 12.6562 54.375 13.0312 54.0938L18 50.1562C19.875 51.2812 21.9375 52.125 24.0938 52.6875L24.8438 59.0625C24.9375 59.5312 25.3125 59.9062 25.7812 59.9062H32.5312C33.0938 59.9062 33.4688 59.4375 33.4688 58.9688V54.1875H42L45.5625 57.375C45.75 57.5625 45.9375 57.6562 46.2188 57.6562H53.625C54 58.9688 55.3125 60 56.7188 60C58.5 60 60 58.5 60 56.7188C60 54.9375 58.5 53.4375 56.7188 53.4375C55.2188 53.4375 54 54.4688 53.625 55.7812H46.5938L43.0312 52.5938C42.8438 52.4062 42.6562 52.3125 42.375 52.3125H33.4688V48.1875H42.375C42.6562 48.1875 42.9375 48.0938 43.125 47.9062L46.6875 43.875H50.8125C51.1875 45.1875 52.5 46.2188 53.9062 46.2188C55.6875 46.2188 57.1875 44.7188 57.1875 42.9375C57.1875 41.1562 55.6875 39.6562 53.9062 39.6562C52.4062 39.6562 51.1875 40.6875 50.8125 42H46.2188C45.9375 42 45.6562 42.0938 45.4688 42.2812L41.9062 46.3125H33.375V44.1562C33.375 43.5938 33 43.2188 32.4375 43.2188C25.3125 43.2188 19.5938 37.6875 19.0312 30.75H29.1562C29.5312 32.0625 30.8438 33.0938 32.25 33.0938C34.0312 33.0938 35.5312 31.5938 35.5312 29.8125C35.5312 28.0312 34.0312 26.5312 32.25 26.5312C30.75 26.5312 29.5312 27.5625 29.1562 28.875H19.125C19.5938 21.9375 25.4062 16.4062 32.5312 16.4062C33.0938 16.4062 33.4688 16.0312 33.4688 15.4688V13.5H42L45.5625 17.5312C45.75 17.7188 46.0312 17.8125 46.3125 17.8125H50.9062C51.2812 19.125 52.5938 20.1562 54 20.1562C55.7812 20.1562 57.2812 18.6562 57.2812 16.875C57.2812 15.0938 55.7812 13.5938 54 13.5938C52.5 13.5938 51.2812 14.625 50.9062 15.9375H46.7812L43.125 12.0938C42.9375 11.9062 42.6562 11.8125 42.375 11.8125H33.4688V7.6875ZM56.7188 1.875C57.4688 1.875 58.125 2.53125 58.125 3.28125C58.125 4.125 57.4688 4.6875 56.7188 4.6875C55.9688 4.6875 55.3125 4.125 55.3125 3.28125C55.3125 2.53125 55.9688 1.875 56.7188 1.875ZM56.7188 55.3125C57.4688 55.3125 58.125 55.9688 58.125 56.7188C58.125 57.4688 57.4688 58.125 56.7188 58.125C55.9688 58.125 55.3125 57.4688 55.3125 56.7188C55.3125 55.9688 55.9688 55.3125 56.7188 55.3125ZM53.9062 41.625C54.6562 41.625 55.3125 42.2812 55.3125 43.0312C55.3125 43.7812 54.6562 44.4375 53.9062 44.4375C53.1562 44.4375 52.5 43.7812 52.5 43.0312C52.5 42.2812 53.1562 41.625 53.9062 41.625ZM53.9062 15.6563C54.6562 15.6563 55.3125 16.3125 55.3125 17.0625C55.3125 17.8125 54.6562 18.4688 53.9062 18.4688C53.1562 18.4688 52.5 17.8125 52.5 17.0625C52.5 16.2188 53.1562 15.6563 53.9062 15.6563ZM32.4375 28.5938C33.1875 28.5938 33.8438 29.25 33.8438 30C33.8438 30.75 33.1875 31.4062 32.4375 31.4062C31.6875 31.4062 31.0312 30.75 31.0312 30C31.0312 29.1562 31.5937 28.5938 32.4375 28.5938ZM17.25 30C17.25 38.1562 23.625 44.8125 31.5938 45.2812V48.5625C21.75 48.0938 13.875 39.9375 13.875 30C13.875 27.1875 14.4375 24.4688 15.6563 22.0312C15.8438 21.5625 15.6563 21 15.1875 20.8125C14.7188 20.625 14.1562 20.8125 13.9688 21.2812C12.6562 24 12 27 12 30.0937C12 41.0625 20.7188 50.0625 31.5938 50.5312V58.2188H26.625L25.875 52.0312C25.7812 51.6562 25.5 51.2812 25.125 51.1875C22.6875 50.625 20.4375 49.6875 18.375 48.375C18 48.1875 17.625 48.1875 17.25 48.4688L12.375 52.3125L7.59375 47.5312L11.4375 42.6562C11.7188 42.375 11.7188 41.9062 11.5312 41.5312C10.2188 39.4688 9.28125 37.2188 8.71875 34.7812C8.625 34.4062 8.34375 34.125 7.875 34.0312L1.875 33.2812V26.5312L8.0625 25.7812C8.4375 25.6875 8.8125 25.4062 8.90625 25.0312C9.46875 22.5938 10.4062 20.3438 11.7188 18.2812C11.9062 17.9062 11.9062 17.5312 11.625 17.1562L7.78125 12.2812L12.5625 7.5L17.4375 11.3438C17.7188 11.625 18.1875 11.625 18.5625 11.4375C20.625 10.125 22.875 9.1875 25.3125 8.625C25.6875 8.53125 25.9688 8.25 26.0625 7.78125L26.625 1.875H31.5938V9.5625C25.4062 9.84375 19.7812 12.75 16.125 17.8125C15.8438 18.1875 15.9375 18.8438 16.3125 19.125C16.6875 19.4062 17.3438 19.3125 17.625 18.9375C21 14.4375 26.0625 11.7188 31.5938 11.4375V14.8125C23.625 15.1875 17.25 21.8438 17.25 30Z" fill="black"/>
<path d="M50.0625 25.3125C47.8125 25.3125 45.9375 26.9062 45.4688 29.0625H38.4375C37.875 29.0625 37.5 29.4375 37.5 30C37.5 30.5625 37.875 30.9375 38.4375 30.9375H45.4688C45.9375 33.0938 47.8125 34.6875 50.0625 34.6875C52.6875 34.6875 54.75 32.625 54.75 30C54.75 27.375 52.5938 25.3125 50.0625 25.3125ZM50.0625 32.8125C48.4688 32.8125 47.25 31.5938 47.25 30C47.25 28.4062 48.5625 27.1875 50.0625 27.1875C51.5625 27.1875 52.875 28.4062 52.875 30C52.875 31.5 51.5625 32.8125 50.0625 32.8125Z" fill="black"/>
</svg>
