<svg width="73" height="60" viewBox="0 0 73 60" fill="none" xmlns="http://www.w3.org/2000/svg">
<path d="M59.9122 38.155H13.0818C11.1346 38.1559 9.2119 37.7219 7.45394 36.8847C5.69597 36.0475 4.14716 34.8283 2.92059 33.3161C1.69403 31.8039 0.820661 30.0368 0.36427 28.1439C-0.0921206 26.251 -0.120017 24.2801 0.282619 22.3751C0.685254 20.47 1.50826 18.679 2.69154 17.1326C3.87481 15.5863 5.3885 14.3237 7.12206 13.4371C8.85563 12.5506 10.7653 12.0623 12.7117 12.008C14.6581 11.9538 16.592 12.3349 18.3722 13.1236C19.627 9.30588 22.0551 5.98181 25.3102 3.62526C28.5654 1.26872 32.4814 0 36.5 0C40.5186 0 44.4346 1.26872 47.6898 3.62526C50.9449 5.98181 53.373 9.30588 54.6278 13.1236C56.4083 12.3348 58.3425 11.9537 60.2891 12.0081C62.2357 12.0625 64.1456 12.5509 65.8793 13.4378C67.613 14.3248 69.1267 15.5877 70.3098 17.1344C71.493 18.6812 72.3158 20.4727 72.718 22.3781C73.1203 24.2834 73.0918 26.2546 72.6348 28.1476C72.1778 30.0406 71.3038 31.8076 70.0765 33.3196C68.8493 34.8316 67.2998 36.0504 65.5413 36.887C63.7827 37.7235 61.8595 38.1568 59.9122 38.155ZM13.0818 13.5295C10.0637 13.5988 7.19265 14.8463 5.08265 17.0053C2.97265 19.1643 1.7913 22.0632 1.7913 25.082C1.7913 28.1009 2.97265 30.9998 5.08265 33.1588C7.19265 35.3177 10.0637 36.5653 13.0818 36.6345H59.9122C61.6672 36.6354 63.3993 36.2366 64.9772 35.4682C66.5551 34.6999 67.9372 33.5822 69.0187 32.2C70.1002 30.8179 70.8527 29.2075 71.219 27.4912C71.5854 25.7749 71.556 23.9976 71.1331 22.2943C70.7102 20.5911 69.9048 19.0065 68.7782 17.6608C67.6516 16.3152 66.2332 15.2439 64.6308 14.5281C63.0284 13.8124 61.284 13.471 59.53 13.53C57.776 13.5889 56.0584 14.0466 54.5077 14.8683C54.4071 14.9215 54.2958 14.9515 54.1821 14.9561C54.0684 14.9606 53.9552 14.9395 53.8507 14.8944C53.7462 14.8494 53.6532 14.7814 53.5784 14.6955C53.5037 14.6097 53.4492 14.5082 53.419 14.3985C52.3944 10.6965 50.1843 7.43254 47.1273 5.10674C44.0703 2.78093 40.3351 1.52154 36.4939 1.52154C32.6528 1.52154 28.9175 2.78093 25.8606 5.10674C22.8036 7.43254 20.5935 10.6965 19.5688 14.3985C19.5386 14.5082 19.4841 14.6097 19.4094 14.6955C19.3347 14.7814 19.2417 14.8494 19.1372 14.8944C19.0327 14.9395 18.9194 14.9606 18.8057 14.9561C18.692 14.9515 18.5808 14.9215 18.4802 14.8683C16.8163 13.9898 14.9633 13.5303 13.0818 13.5295Z" fill="black"/>
<path d="M13.5237 54.7814C13.3734 54.7813 13.2265 54.7367 13.1015 54.6532C12.9765 54.5697 12.8791 54.4509 12.8215 54.312C12.764 54.1731 12.749 54.0203 12.7783 53.8729C12.8076 53.7254 12.88 53.59 12.9863 53.4836L18.2319 48.2426C18.5632 47.9087 18.7498 47.4578 18.7511 46.9874V37.3948C18.7511 37.1932 18.8312 36.9998 18.9738 36.8572C19.1163 36.7147 19.3097 36.6346 19.5113 36.6346C19.713 36.6346 19.9063 36.7147 20.0489 36.8572C20.1915 36.9998 20.2716 37.1932 20.2716 37.3948V46.9874C20.2689 47.8608 19.9223 48.6979 19.3068 49.3176L14.0612 54.5586C13.9908 54.6294 13.9071 54.6856 13.8148 54.7238C13.7225 54.7621 13.6236 54.7816 13.5237 54.7814Z" fill="black"/>
<path d="M11.0757 59.9433C10.2963 59.9444 9.53423 59.7142 8.88581 59.2819C8.2374 58.8496 7.73183 58.2346 7.43311 57.5148C7.13439 56.795 7.05596 56.0028 7.20773 55.2384C7.35951 54.474 7.73468 53.7718 8.28574 53.2207C8.8368 52.6697 9.53898 52.2945 10.3034 52.1427C11.0678 51.991 11.86 52.0694 12.5798 52.3681C13.2996 52.6668 13.9146 53.1724 14.3469 53.8208C14.7792 54.4692 15.0094 55.2313 15.0083 56.0107C15.0069 57.0532 14.5921 58.0527 13.8549 58.7899C13.1177 59.5271 12.1182 59.9419 11.0757 59.9433ZM11.0757 53.5886C10.5975 53.5875 10.1297 53.7283 9.73157 53.9931C9.33341 54.2579 9.02271 54.6348 8.83879 55.0762C8.65486 55.5176 8.60596 56.0036 8.69827 56.4728C8.79058 56.942 9.01996 57.3732 9.35739 57.7121C9.69482 58.0509 10.1251 58.282 10.5939 58.3762C11.0627 58.4705 11.549 58.4235 11.9911 58.2414C12.4332 58.0593 12.8114 57.7502 13.0779 57.3531C13.3443 56.956 13.487 56.4888 13.4879 56.0107C13.4883 55.3699 13.2346 54.755 12.7824 54.301C12.3302 53.847 11.7164 53.5908 11.0757 53.5886Z" fill="black"/>
<path d="M59.4706 54.7814C59.3707 54.7816 59.2718 54.7621 59.1795 54.7238C59.0873 54.6856 59.0035 54.6294 58.9331 54.5586L53.6913 49.3176C53.0758 48.6979 52.7292 47.8608 52.7266 46.9874V37.3948C52.7266 37.1932 52.8067 36.9998 52.9492 36.8572C53.0918 36.7147 53.2852 36.6346 53.4868 36.6346C53.6884 36.6346 53.8818 36.7147 54.0244 36.8572C54.1669 36.9998 54.247 37.1932 54.247 37.3948V46.9874C54.2484 47.4578 54.4349 47.9087 54.7663 48.2426L60.0081 53.4836C60.1144 53.59 60.1867 53.7254 60.2161 53.8729C60.2454 54.0203 60.2303 54.1731 60.1728 54.312C60.1153 54.4509 60.0179 54.5697 59.8929 54.6532C59.7679 54.7367 59.6209 54.7813 59.4706 54.7814Z" fill="black"/>
<path d="M61.9191 59.9433C61.1399 59.9442 60.3778 59.7139 59.7295 59.2815C59.0812 58.8491 58.5757 58.2341 58.2771 57.5143C57.9785 56.7945 57.9002 56.0022 58.0521 55.2379C58.2039 54.4736 58.5792 53.7715 59.1303 53.2205C59.6813 52.6695 60.3835 52.2944 61.1479 52.1427C61.9123 51.991 62.7045 52.0694 63.4242 52.3682C64.144 52.6669 64.7589 53.1725 65.1912 53.8209C65.6235 54.4693 65.8536 55.2314 65.8526 56.0107C65.8512 57.0534 65.4363 58.053 64.6989 58.7902C63.9615 59.5274 62.9618 59.9421 61.9191 59.9433ZM61.9191 53.5885C61.441 53.5876 60.9733 53.7286 60.5753 53.9934C60.1772 54.2583 59.8666 54.6353 59.6828 55.0767C59.499 55.5181 59.4502 56.0041 59.5426 56.4733C59.635 56.9424 59.8644 57.3736 60.2019 57.7123C60.5394 58.0511 60.9697 58.2821 61.4385 58.3763C61.9072 58.4705 62.3934 58.4235 62.8355 58.2413C63.2776 58.0592 63.6558 57.7501 63.9222 57.353C64.1885 56.9559 64.3312 56.4888 64.3321 56.0107C64.3327 55.3697 64.079 54.7546 63.6266 54.3005C63.1742 53.8464 62.5601 53.5904 61.9191 53.5885Z" fill="black"/>
<path d="M28.9853 52.2095C28.7837 52.2095 28.5903 52.1294 28.4478 51.9868C28.3052 51.8443 28.2251 51.6509 28.2251 51.4493V37.3948C28.2251 37.1932 28.3052 36.9998 28.4478 36.8572C28.5903 36.7147 28.7837 36.6346 28.9853 36.6346C29.187 36.6346 29.3803 36.7147 29.5229 36.8572C29.6655 36.9998 29.7456 37.1932 29.7456 37.3948V51.4493C29.7456 51.6509 29.6655 51.8443 29.5229 51.9868C29.3803 52.1294 29.187 52.2095 28.9853 52.2095Z" fill="black"/>
<path d="M28.986 58.5635C28.2069 58.5642 27.4452 58.3338 26.7971 57.9015C26.1491 57.4692 25.6438 56.8543 25.3454 56.1347C25.0469 55.4151 24.9686 54.6231 25.1204 53.859C25.2722 53.0949 25.6473 52.393 26.1981 51.8422C26.749 51.2913 27.4509 50.9162 28.215 50.7644C28.9791 50.6126 29.7711 50.6909 30.4907 50.9894C31.2102 51.2879 31.8251 51.7931 32.2575 52.4412C32.6898 53.0892 32.9202 53.851 32.9194 54.63C32.918 55.6728 32.5031 56.6725 31.7658 57.4098C31.0284 58.1472 30.0288 58.5621 28.986 58.5635ZM28.986 52.2094C28.508 52.2087 28.0405 52.3497 27.6426 52.6146C27.2448 52.8796 26.9344 53.2565 26.7508 53.6978C26.5672 54.1392 26.5186 54.625 26.6111 55.094C26.7036 55.5629 26.9331 55.9939 27.2706 56.3324C27.608 56.671 28.0383 56.9018 28.507 56.9958C28.9756 57.0898 29.4616 57.0427 29.9035 56.8605C30.3454 56.6783 30.7234 56.3691 30.9895 55.9721C31.2557 55.575 31.3982 55.108 31.399 54.63C31.3992 53.9893 31.1452 53.3746 30.6929 52.9209C30.2405 52.4671 29.6267 52.2112 28.986 52.2094Z" fill="black"/>
<path d="M44.0107 52.2095C43.8091 52.2095 43.6157 52.1294 43.4732 51.9868C43.3306 51.8443 43.2505 51.6509 43.2505 51.4493V37.3948C43.2505 37.1932 43.3306 36.9998 43.4732 36.8572C43.6157 36.7147 43.8091 36.6346 44.0107 36.6346C44.2124 36.6346 44.4057 36.7147 44.5483 36.8572C44.6909 36.9998 44.771 37.1932 44.771 37.3948V51.4493C44.771 51.6509 44.6909 51.8443 44.5483 51.9868C44.4057 52.1294 44.2124 52.2095 44.0107 52.2095Z" fill="black"/>
<path d="M44.0094 58.5635C43.2304 58.5642 42.4686 58.3338 41.8206 57.9015C41.1725 57.4692 40.6673 56.8543 40.3688 56.1347C40.0703 55.4151 39.992 54.6231 40.1438 53.859C40.2956 53.0949 40.6707 52.393 41.2216 51.8422C41.7724 51.2913 42.4743 50.9162 43.2384 50.7644C44.0025 50.6126 44.7945 50.6909 45.5141 50.9894C46.2337 51.2879 46.8486 51.7931 47.2809 52.4412C47.7132 53.0892 47.9436 53.851 47.9429 54.63C47.9417 55.6729 47.5269 56.6726 46.7894 57.41C46.052 58.1475 45.0523 58.5623 44.0094 58.5635ZM44.0094 52.2094C43.5314 52.2087 43.0639 52.3497 42.6661 52.6146C42.2682 52.8796 41.9579 53.2565 41.7743 53.6978C41.5906 54.1392 41.542 54.625 41.6345 55.094C41.727 55.5629 41.9565 55.9939 42.294 56.3324C42.6315 56.671 43.0617 56.9018 43.5304 56.9958C43.9991 57.0898 44.4851 57.0427 44.927 56.8605C45.3689 56.6783 45.7468 56.3691 46.013 55.9721C46.2792 55.575 46.4216 55.108 46.4224 54.63C46.4226 53.9893 46.1687 53.3746 45.7163 52.9209C45.264 52.4671 44.6501 52.2112 44.0094 52.2094Z" fill="black"/>
<path d="M36.4997 25.2401C35.1051 25.2388 33.7526 24.7617 32.6659 23.8876C31.5791 23.0136 30.8231 21.7949 30.5227 20.433C30.2223 19.0711 30.3956 17.6475 31.0138 16.3974C31.6321 15.1473 32.6583 14.1455 33.923 13.5576C35.1877 12.9697 36.6151 12.8309 37.9693 13.1641C39.3236 13.4973 40.5236 14.2825 41.3712 15.3901C42.2187 16.4976 42.663 17.8612 42.6307 19.2554C42.5984 20.6497 42.0913 21.9912 41.1934 23.0583C40.617 23.7416 39.8983 24.2909 39.0876 24.6678C38.2769 25.0446 37.3937 25.24 36.4997 25.2401ZM36.4997 14.4798C35.5842 14.4772 34.6886 14.7464 33.9262 15.2532C33.1638 15.76 32.569 16.4817 32.217 17.3268C31.865 18.1719 31.7718 19.1024 31.949 20.0006C32.1263 20.8987 32.5661 21.7241 33.2127 22.3721C33.8594 23.0201 34.6838 23.4617 35.5815 23.6409C36.4793 23.82 37.41 23.7288 38.2559 23.3786C39.1017 23.0284 39.8247 22.4351 40.3331 21.6738C40.8415 20.9125 41.1126 20.0175 41.112 19.102C41.1112 17.8781 40.6253 16.7044 39.7608 15.838C38.8963 14.9716 37.7236 14.4832 36.4997 14.4798Z" fill="black"/>
<path d="M37.5087 33.9935H35.4948C34.9753 33.9949 34.4723 33.8109 34.0763 33.4747C33.6802 33.1384 33.4171 32.6719 33.3342 32.159L33.0431 30.247C32.3545 30.0343 31.6875 29.7569 31.0512 29.4184L29.5019 30.5587C29.0804 30.8637 28.5642 31.0086 28.0456 30.9677C27.527 30.9267 27.0399 30.7025 26.6715 30.3352L25.2598 28.928C24.8889 28.5596 24.6634 28.0696 24.6249 27.5482C24.5863 27.0269 24.7373 26.5091 25.05 26.0901L26.1903 24.5384C26.0611 24.299 25.9448 24.0603 25.8383 23.8193C25.6516 23.4086 25.4938 22.9854 25.3662 22.5527L23.458 22.2631C22.942 22.1847 22.4712 21.9241 22.1309 21.5284C21.7906 21.1327 21.6033 20.6282 21.6031 20.1063V18.0955C21.6001 17.5724 21.7864 17.066 22.1276 16.6696C22.4688 16.2731 22.9419 16.0135 23.4596 15.9387L25.3601 15.6422C25.5677 14.9585 25.8408 14.2966 26.1759 13.6656L25.0355 12.1025C24.7283 11.6828 24.5818 11.1669 24.6226 10.6483C24.6635 10.1298 24.889 9.64312 25.2583 9.27675L26.6715 7.85055C27.0398 7.4787 27.5301 7.25246 28.052 7.21348C28.5739 7.1745 29.0923 7.32543 29.5118 7.63844L31.0596 8.77271C31.6936 8.43632 32.3576 8.15991 33.0431 7.9471L33.3327 6.04652C33.4136 5.53156 33.6761 5.06253 34.0726 4.72415C34.4691 4.38578 34.9735 4.20037 35.4948 4.20143H37.5087C38.0294 4.19969 38.5334 4.38537 38.9286 4.72456C39.3238 5.06375 39.5837 5.53379 39.6609 6.0488L39.9551 7.94938C40.6405 8.16219 41.3046 8.4386 41.9386 8.77499L43.491 7.63844C43.9108 7.32754 44.4283 7.17771 44.9493 7.21622C45.4703 7.25473 45.9601 7.47902 46.3297 7.84827L47.7483 9.27599C48.112 9.64539 48.3327 10.132 48.371 10.649C48.4093 11.166 48.2627 11.6798 47.9573 12.0987L46.817 13.6633C47.1502 14.2953 47.4238 14.9571 47.6342 15.6399L49.5515 15.9379C50.0661 16.0156 50.5353 16.2765 50.8728 16.6727C51.2103 17.0688 51.3934 17.5735 51.3883 18.0939V20.1055C51.3897 20.6238 51.2062 21.1257 50.8708 21.5209C50.5354 21.9161 50.07 22.1787 49.5584 22.2615L47.6266 22.5527C47.4974 22.9847 47.3407 23.408 47.1576 23.82C47.0504 24.0618 46.9295 24.3028 46.8033 24.5392L47.9512 26.0924C48.2619 26.5118 48.4111 27.0291 48.3716 27.5495C48.3321 28.07 48.1065 28.5588 47.7361 28.9265L46.3145 30.339C45.9471 30.705 45.4616 30.9283 44.9447 30.969C44.4278 31.0096 43.9133 30.865 43.4932 30.561L41.9431 29.4207C41.3065 29.7585 40.6397 30.0359 39.9513 30.2493L39.6571 32.1537C39.5782 32.6666 39.318 33.1343 38.9239 33.4718C38.5297 33.8093 38.0276 33.9944 37.5087 33.9935ZM30.9942 27.7596C31.1292 27.7596 31.2617 27.7955 31.3781 27.8637C32.17 28.3284 33.0229 28.6802 33.912 28.909C34.0564 28.9461 34.1868 29.0248 34.2868 29.1354C34.3868 29.246 34.4521 29.3835 34.4746 29.5309L34.8372 31.918C34.8645 32.0731 34.9456 32.2135 35.0664 32.3145C35.1871 32.4155 35.3397 32.4705 35.4971 32.47H37.511C37.6674 32.4688 37.8185 32.4124 37.9374 32.3107C38.0563 32.2091 38.1355 32.0686 38.161 31.9142L38.5289 29.5294C38.5516 29.3823 38.6169 29.2452 38.7168 29.1349C38.8166 29.0247 38.9466 28.9461 39.0907 28.909C39.9792 28.6771 40.8312 28.323 41.6223 27.8569C41.7508 27.7816 41.8985 27.7458 42.0472 27.7538C42.1958 27.7617 42.3389 27.8132 42.4586 27.9017L44.3979 29.331C44.5239 29.4214 44.6778 29.4644 44.8325 29.4521C44.9871 29.4399 45.1324 29.3732 45.2425 29.2641L46.6695 27.8462C46.781 27.7349 46.8489 27.5872 46.8606 27.4301C46.8723 27.2729 46.8272 27.1168 46.7333 26.9902L45.2889 25.0402C45.1992 24.9188 45.1477 24.7734 45.1409 24.6225C45.1341 24.4717 45.1724 24.3223 45.2509 24.1933C45.4455 23.8733 45.6194 23.5411 45.7717 23.1989C45.9883 22.7115 46.1618 22.206 46.2901 21.6883C46.3263 21.5425 46.4049 21.4106 46.516 21.3094C46.6271 21.2082 46.7657 21.1422 46.9143 21.1197L49.325 20.7555C49.4787 20.729 49.618 20.6489 49.7181 20.5293C49.8182 20.4097 49.8726 20.2584 49.8716 20.1025V18.0955C49.8745 17.939 49.8208 17.7868 49.7203 17.6668C49.6199 17.5468 49.4795 17.4671 49.325 17.4424L46.9257 17.0691C46.7796 17.0466 46.6433 16.9819 46.5334 16.8831C46.4234 16.7843 46.3447 16.6555 46.3069 16.5127C46.0764 15.6304 45.7259 14.784 45.2653 13.997C45.1894 13.8691 45.1526 13.7216 45.1596 13.573C45.1667 13.4243 45.2172 13.281 45.3049 13.1608L46.7295 11.2032C46.8229 11.0757 46.868 10.9193 46.8569 10.7617C46.8457 10.6042 46.7791 10.4556 46.6687 10.3426L45.2539 8.92324C45.1409 8.81116 44.9914 8.74338 44.8327 8.73221C44.6739 8.72105 44.5164 8.76726 44.3888 8.86242L42.4433 10.2879C42.3234 10.3759 42.1802 10.4268 42.0315 10.4343C41.8828 10.4417 41.7353 10.4053 41.6071 10.3297C40.8171 9.86595 39.9674 9.51246 39.0816 9.27903C38.9389 9.24102 38.8103 9.16225 38.7116 9.05235C38.6129 8.94245 38.5484 8.80618 38.5259 8.6602L38.1579 6.28295C38.1346 6.12727 38.0561 5.98515 37.9368 5.88245C37.8175 5.77976 37.6653 5.72332 37.5079 5.72342H35.4948C35.3354 5.72331 35.1813 5.78018 35.0601 5.88376C34.939 5.98733 34.8588 6.1308 34.8342 6.28827L34.4723 8.65868C34.45 8.80503 34.3855 8.9417 34.2866 9.0519C34.1878 9.1621 34.0589 9.24104 33.9158 9.27903C33.0297 9.51287 32.1797 9.86688 31.3896 10.3312C31.2614 10.4069 31.1138 10.4432 30.9651 10.4358C30.8165 10.4284 30.6733 10.3774 30.5533 10.2894L28.6094 8.8647C28.4826 8.76884 28.3254 8.72217 28.1669 8.73335C28.0084 8.74454 27.8593 8.81281 27.7473 8.92552L26.3348 10.3487C26.2219 10.4593 26.1527 10.6068 26.1397 10.7643C26.1267 10.9218 26.1709 11.0786 26.2641 11.2062L27.6918 13.1615C27.7796 13.2817 27.8302 13.425 27.8374 13.5736C27.8446 13.7223 27.8079 13.8698 27.7321 13.9978C27.2697 14.7808 26.9208 15.6255 26.6959 16.5066C26.659 16.6506 26.5808 16.7806 26.4708 16.8806C26.3608 16.9806 26.2239 17.0461 26.077 17.0691L23.6853 17.4417C23.528 17.4638 23.384 17.5422 23.2801 17.6625C23.1762 17.7827 23.1195 17.9366 23.1205 18.0955V20.1055C23.1217 20.2645 23.1796 20.4178 23.2839 20.5379C23.3882 20.6579 23.5319 20.7367 23.6891 20.7601L26.0831 21.1235C26.2327 21.1461 26.3721 21.2127 26.4836 21.315C26.595 21.4172 26.6734 21.5504 26.7088 21.6974C26.832 22.2121 27.0041 22.7139 27.2227 23.1959C27.3761 23.5417 27.5505 23.8779 27.745 24.2024C27.8209 24.3305 27.8575 24.4779 27.8503 24.6266C27.8432 24.7752 27.7925 24.9185 27.7047 25.0387L26.2701 26.9925C26.1772 27.1205 26.133 27.2775 26.1454 27.4352C26.1578 27.593 26.226 27.7411 26.3378 27.8531L27.7465 29.2587C27.8571 29.3701 28.0038 29.4385 28.1602 29.4516C28.3167 29.4647 28.4727 29.4217 28.6003 29.3302L30.5419 27.9017C30.6732 27.806 30.8317 27.7548 30.9942 27.7558V27.7596Z" fill="black"/>
</svg>
