<svg width="44" height="44" viewBox="0 0 44 44" fill="none" xmlns="http://www.w3.org/2000/svg">
<path d="M14.867 22.2209L14.8765 22.2593L14.858 22.226L14.2537 22.5595L14.2524 22.5603C13.9934 22.7043 13.6675 22.6207 13.5098 22.3702L13.5042 22.3613L11.8618 19.6415C11.8617 19.6413 11.8615 19.6411 11.8614 19.6409C11.7964 19.5319 11.7789 19.4011 11.8129 19.2788C11.8472 19.1567 11.9303 19.0537 12.0432 18.9942L12.0345 18.9594L12.0513 18.9897L12.6443 18.6623C13.178 18.3812 13.483 17.7995 13.4099 17.2002L13.41 17.2002L13.4084 17.189C13.3066 16.4879 13.3066 15.7761 13.4084 15.0754L13.4085 15.0754L13.4101 15.0625C13.4811 14.4639 13.1756 13.8837 12.6419 13.6038L12.0493 13.2767L12.0494 13.2766L12.0422 13.2728C11.9305 13.2135 11.848 13.1109 11.8139 12.9886C11.7801 12.8664 11.7979 12.7359 11.8629 12.6275C11.863 12.6273 11.8631 12.6272 11.8631 12.627L13.5132 9.89455C13.6718 9.64648 13.9962 9.56444 14.2536 9.70764L14.2551 9.70844L14.8594 10.042L14.8593 10.0421L14.869 10.0472C15.4158 10.3337 16.0785 10.2802 16.5724 9.90948C17.1311 9.50015 17.7388 9.16252 18.3816 8.90423C18.9624 8.69245 19.3572 8.14818 19.3757 7.52864L19.3759 7.52118V7.51372V6.86065C19.3852 6.58138 19.6171 6.36167 19.896 6.3679L19.896 6.36802H19.9072H23.2142V6.36815L23.2255 6.3679C23.5039 6.36164 23.7356 6.58074 23.7455 6.85879V7.51138V7.51883L23.7457 7.52629C23.7642 8.14543 24.1586 8.69027 24.7398 8.90187C25.3839 9.16141 25.9929 9.5009 26.5521 9.91214C27.0461 10.2831 27.7089 10.3367 28.2559 10.0501L28.256 10.0502L28.2655 10.045L28.8699 9.71138L28.8712 9.71065C29.1291 9.56727 29.4532 9.64949 29.6117 9.89749L31.2617 12.6298C31.2618 12.6299 31.2618 12.63 31.2619 12.6301C31.3271 12.739 31.3447 12.8697 31.3104 12.9919L31.7919 13.1268L31.3104 12.9919C31.2761 13.1145 31.193 13.2171 31.0809 13.2761L31.0808 13.276L31.072 13.2809L30.4794 13.608C29.9457 13.8879 29.6402 14.4685 29.7113 15.0668L29.7111 15.0668L29.7129 15.0796C29.8147 15.7807 29.8147 16.4925 29.713 17.1932L29.7128 17.1931L29.7112 17.2061C29.6402 17.8047 29.9458 18.3849 30.4794 18.6648L31.072 18.9919L31.0719 18.992L31.0791 18.9958C31.1908 19.0551 31.2734 19.1577 31.3075 19.28C31.3412 19.4021 31.3234 19.5325 31.2586 19.6409C31.2584 19.6411 31.2583 19.6413 31.2582 19.6416L29.6081 22.374C29.4495 22.6221 29.1251 22.7041 28.8677 22.5609L28.8662 22.5601L28.2619 22.2265L28.262 22.2264L28.2523 22.2214C27.7055 21.9349 27.0428 21.9884 26.5489 22.3591C25.9902 22.7684 25.3825 23.1061 24.7397 23.3643C24.159 23.5761 23.7641 24.1204 23.7456 24.7399L23.7454 24.7474V24.7549V25.4079C23.7362 25.6872 23.5042 25.9069 23.2253 25.9007L23.2253 25.9006H23.2141H19.9071V25.9004L19.8959 25.9007C19.6174 25.9069 19.3857 25.6879 19.3758 25.4098V24.7572V24.7497L19.3756 24.7423C19.3571 24.1231 18.9626 23.5782 18.3815 23.3667C17.7383 23.1078 17.13 22.769 16.571 22.3584C16.0776 21.9879 15.4143 21.9337 14.867 22.2209ZM25.0256 12.6696L25.0255 12.6694C24.1064 11.7508 22.8604 11.2345 21.5607 11.2345C20.261 11.2345 19.0149 11.7508 18.0959 12.6694L18.0958 12.6696C17.1771 13.5886 16.6609 14.8346 16.6609 16.1343C16.6609 17.4341 17.1771 18.6801 18.0958 19.5991L18.0959 19.5993C19.015 20.5179 20.261 21.0342 21.5607 21.0342C22.8604 21.0342 24.1065 20.5179 25.0255 19.5993L25.0256 19.5991C25.9443 18.6801 26.4605 17.4341 26.4605 16.1343C26.4605 14.8346 25.9443 13.5886 25.0256 12.6696Z" stroke="#FF4500"/>
<path d="M20.0975 43.9999V33.7336C20.0975 33.5392 20.0203 33.3526 19.8828 33.2151L18.4162 31.7485L17.3794 32.7852L18.631 34.0371V44L20.0975 43.9999Z" fill="#FF4500"/>
<path d="M14.9613 43.9999V38.8668C14.9613 38.6723 14.884 38.4857 14.7465 38.3482L13.2799 36.8816L12.2432 37.9184L13.4947 39.1703V43.9999L14.9613 43.9999Z" fill="#FF4500"/>
<path d="M23.246 33.2149C23.1085 33.3524 23.0312 33.539 23.0312 33.7334V43.9997H24.4979V34.0368L25.7498 32.7849L24.713 31.7481L23.246 33.2149Z" fill="#FF4500"/>
<path d="M17.1664 30.0671C17.1664 31.282 16.1814 32.267 14.9665 32.267C13.7517 32.267 12.7666 31.282 12.7666 30.0671C12.7666 28.8523 13.7517 27.8672 14.9665 27.8672C16.1814 27.8672 17.1664 28.8523 17.1664 30.0671Z" fill="#FF4500"/>
<path d="M12.0324 35.2002C12.0324 36.4151 11.0473 37.4002 9.83248 37.4002C8.61763 37.4002 7.63257 36.4151 7.63257 35.2002C7.63257 33.9854 8.61763 33.0003 9.83248 33.0003C11.0473 33.0003 12.0324 33.9854 12.0324 35.2002Z" fill="#FF4500"/>
<path d="M30.363 30.0671C30.363 31.282 29.3779 32.267 28.163 32.267C26.9482 32.267 25.9631 31.282 25.9631 30.0671C25.9631 28.8523 26.9482 27.8672 28.163 27.8672C29.3779 27.8672 30.363 28.8523 30.363 30.0671Z" fill="#FF4500"/>
<path d="M35.4972 35.2002C35.4972 36.4151 34.5122 37.4002 33.2973 37.4002C32.0825 37.4002 31.0974 36.4151 31.0974 35.2002C31.0974 33.9854 32.0825 33.0003 33.2973 33.0003C34.5122 33.0003 35.4972 33.9854 35.4972 35.2002Z" fill="#FF4500"/>
<path d="M29.6321 39.1701L30.884 37.9182L29.8472 36.8815L28.3806 38.3481H28.3803C28.2428 38.4856 28.1655 38.6722 28.1655 38.8666V43.9997H29.6321L29.6321 39.1701Z" fill="#FF4500"/>
<path d="M40.4552 12.4921C38.4586 7.7964 34.7846 4.01264 30.1496 1.87978C25.5143 -0.25334 20.2512 -0.583704 15.3855 0.953635C10.5201 2.49097 6.40228 5.78556 3.83446 10.1949L0 12.276L2.27852 13.4807C1.13473 16.6113 0.769675 19.9734 1.21519 23.276C1.66041 26.5791 2.90279 29.7244 4.83486 32.4402L6.02876 31.5887H6.02843C4.25375 29.0951 3.10603 26.2107 2.68205 23.1796C2.25811 20.1485 2.57075 17.0598 3.59311 14.1746L5.78355 15.3325L5.2997 10.5961C7.73109 6.61138 11.5403 3.65789 16.0051 2.29571C20.4697 0.933186 25.2791 1.25693 29.5205 3.20542C33.7622 5.15358 37.1413 8.59097 39.0166 12.8657L36.6589 13.4779L40.239 16.673C40.7683 19.2415 40.7631 21.8913 40.2233 24.4575C39.6834 27.0238 38.6211 29.4512 37.1018 31.5886L38.2957 32.4401C39.9241 30.1501 41.0656 27.5505 41.6496 24.8022C42.234 22.0536 42.2481 19.2147 41.6919 16.4606L43.3271 11.7468L40.4552 12.4921Z" fill="#FF4500"/>
</svg>
