<svg width="55" height="60" viewBox="0 0 55 60" fill="none" xmlns="http://www.w3.org/2000/svg">
<path d="M27.102 33.886C28.1965 33.8728 29.2102 33.4529 29.9557 32.7032L29.9203 32.668L29.9557 32.7032C30.6796 31.9753 31.0782 30.9774 31.0823 29.8952L31.0823 29.8942C31.0661 28.8331 30.6407 27.8493 29.8839 27.1259C29.1322 26.4066 28.1286 26.013 27.0553 26.013H27.0552H27.0551H27.055H27.0549H27.0548H27.0547H27.0545H27.0544H27.0543H27.0542H27.0541H27.054H27.0539H27.0538H27.0537H27.0536H27.0535H27.0534H27.0533H27.0532H27.0531H27.053H27.0529H27.0528H27.0527H27.0525H27.0524H27.0523H27.0522H27.0521H27.052H27.0519H27.0518H27.0517H27.0516H27.0515H27.0514H27.0513H27.0512H27.0511H27.051H27.0509H27.0508H27.0507H27.0506H27.0505H27.0504H27.0502H27.0501H27.05H27.0499H27.0498H27.0497H27.0496H27.0495H27.0494H27.0493H27.0492H27.0491H27.049H27.0489H27.0488H27.0487H27.0486H27.0485H27.0484H27.0483H27.0482H27.0481H27.048H27.0478H27.0477H27.0476H27.0475H27.0474H27.0473H27.0472H27.0471H27.047H27.0469H27.0468H27.0467H27.0466H27.0465H27.0464H27.0463H27.0462H27.0461H27.046H27.0459H27.0458H27.0457H27.0456H27.0455H27.0454H27.0453H27.0451H27.045H27.0449H27.0448H27.0447H27.0446H27.0445H27.0444H27.0443H27.0442H27.0441H27.044H27.0439H27.0438H27.0437H27.0436H27.0435H27.0434H27.0433H27.0432H27.0431H27.043H27.0429H27.0428H27.0427H27.0426H27.0425H27.0424H27.0423H27.0421H27.042H27.0419H27.0418H27.0417H27.0416H27.0415H27.0414H27.0413H27.0412H27.0411H27.041H27.0409H27.0408H27.0407H27.0406H27.0405H27.0404H27.0403H27.0402H27.0401H27.04H27.0399H27.0398H27.0397H27.0396H27.0395H27.0394H27.0393H27.0392H27.0391H27.0389H27.0388H27.0387H27.0386H27.0385H27.0384H27.0383H27.0382H27.0381H27.038H27.0379H27.0378H27.0377H27.0376H27.0375H27.0374H27.0373H27.0372H27.0371H27.037H27.0369H27.0368H27.0367H27.0366H27.0365H27.0364H27.0363H27.0362H27.0361H27.036H27.0359H27.0358H27.0357H27.0356H27.0355H27.0354H27.0352H27.0351H27.035H27.0349H27.0348H27.0347H27.0346H27.0345H27.0344H27.0343H27.0342H27.0341H27.034H27.0339H27.0338H27.0337H27.0336H27.0335H27.0334H27.0333H27.0332H27.0331H27.033H27.0329H27.0328H27.0327H27.0326H27.0325H27.0324H27.0323H27.0322H27.0321H27.032H27.0319H27.0318H27.0317H27.0316H27.0315H27.0313H27.0312H27.0311H27.031H27.0309H27.0308H27.0307H27.0306H27.0305H27.0304H27.0303H27.0302H27.0301H27.03H27.0299H27.0298H27.0297H27.0296H27.0295H27.0294H27.0293H27.0292H27.0291H27.029H27.0289H27.0288H27.0287H27.0286H27.0285H27.0284H27.0283H27.0282H27.0281H27.028H27.0279H27.0278H27.0277H27.0276H27.0275H27.0273H27.0272H27.0271H27.027H27.0269H27.0268H27.0267H27.0266H27.0265H27.0264H27.0263H27.0262H27.0261H27.026H27.0259H27.0258H27.0257H27.0256H27.0255H27.0254H27.0253H27.0252H27.0251H27.025H27.0249H27.0248H27.0247H27.0246H27.0245H27.0244H27.0243H27.0242H27.0241H27.024H27.0239H27.0238H27.0237H27.0236H27.0234H27.0233H27.0232H27.0231H27.023H27.0229H27.0228H27.0227H27.0226H27.0225H27.0224H27.0223H27.0222H27.0221H27.022H27.0219H27.0218H27.0217H27.0216H27.0215H27.0214H27.0213H27.0212H27.0211H27.021H27.0209H27.0208H27.0207H27.0206H27.0205H27.0204H27.0203H27.0202H27.0201H27.02H27.0199H27.0198H27.0196H27.0195H27.0194H27.0193H27.0192H27.0191H27.019H27.0189H27.0188H27.0187H27.0186H27.0185H27.0184H27.0183H27.0182H27.0181H27.018H27.0179H27.0178H27.0177H27.0176H27.0175H27.0174H27.0173H27.0172H27.0171H27.017H27.0169H27.0168H27.0167H27.0166H27.0165H27.0163H27.0162H27.0161H27.016H27.0159H27.0158H27.0157H27.0156H27.0155H27.0154H27.0153H27.0152H27.0151H27.015H27.0149H27.0148H27.0147H27.0146H27.0145H27.0144H27.0143H27.0142H27.0141H27.014H27.0139H27.0138H27.0137H27.0136H27.0135H27.0134H27.0132H27.0131H27.013H27.0129H27.0128H27.0127H27.0126H27.0125H27.0124H27.0123H27.0122H27.0121H27.012H27.0119H27.0118H27.0117H27.0116H27.0115H27.0114H27.0113H27.0112H27.0111H27.011H27.0109H27.0108H27.0107H27.0106H27.0104H27.0103H27.0102H27.0101H27.01H27.0099H27.0098H27.0097H27.0096H27.0095H27.0094H27.0093H27.0092H27.0091H27.009H27.0089H27.0088H27.0087H27.0086H27.0085H27.0084H27.0083H27.0082H27.0081H27.0079H27.0078H27.0077H27.0076H27.0075H27.0074H27.0073H27.0072H27.0071H27.007H27.0069H27.0068H27.0067H27.0066H27.0065H27.0064H27.0063H27.0062H27.0061H27.006H27.0059H27.0058H27.0056H27.0055H27.0054H27.0053H27.0052H27.0051H27.005H27.0049H27.0048H27.0047H27.0046H27.0045H27.0044H27.0043H27.0042H27.0041H27.004H27.0039H27.0038H27.0037H27.0035H27.0034H27.0033H27.0032H27.0031H27.003H27.0029H27.0028H27.0027H27.0026H27.0025H27.0024L27.0023 26.013L27.0017 26.013C25.9061 26.0261 24.8934 26.4461 24.1488 27.1947L24.1488 27.1948C23.4092 27.9394 23.0091 28.9354 23.0223 29.9986C23.0355 31.0609 23.4609 32.0457 24.2197 32.7731L24.2197 32.7731C24.9833 33.5043 25.9941 33.9042 27.102 33.886ZM27.102 33.886C27.102 33.886 27.1019 33.886 27.1019 33.886L27.1013 33.836L27.1021 33.886C27.1021 33.886 27.102 33.886 27.102 33.886ZM31.1967 25.7531L31.1967 25.7531C32.3268 26.8337 32.9594 28.2977 32.9813 29.8763V29.8764V29.8764V29.8764V29.8765V29.8765V29.8765V29.8765V29.8766V29.8766V29.8766V29.8767V29.8767V29.8767V29.8768V29.8768V29.8768V29.8768V29.8769V29.8769V29.8769V29.877V29.877V29.877V29.877V29.8771V29.8771V29.8771V29.8772V29.8772V29.8772V29.8773V29.8773V29.8773V29.8773V29.8774V29.8774V29.8774V29.8775V29.8775V29.8775V29.8775V29.8776V29.8776V29.8776V29.8777V29.8777V29.8777V29.8777V29.8778V29.8778V29.8778V29.8779V29.8779V29.8779V29.878V29.878V29.878V29.878V29.8781V29.8781V29.8781V29.8782V29.8782V29.8782V29.8782V29.8783V29.8783V29.8783V29.8784V29.8784V29.8784V29.8785V29.8785V29.8785V29.8785V29.8786V29.8786V29.8786V29.8787V29.8787V29.8787V29.8787V29.8788V29.8788V29.8788V29.8789V29.8789V29.8789V29.8789V29.879V29.879V29.879V29.8791V29.8791V29.8791V29.8792V29.8792V29.8792V29.8792V29.8793V29.8793V29.8793V29.8794V29.8794V29.8794V29.8794V29.8795V29.8795V29.8795V29.8796V29.8796V29.8796V29.8797V29.8797V29.8797V29.8797V29.8798V29.8798V29.8798V29.8799V29.8799V29.8799V29.8799V29.88V29.88V29.88V29.8801V29.8801V29.8801V29.8802V29.8802V29.8802V29.8802V29.8803V29.8803V29.8803V29.8804V29.8804V29.8804V29.8804V29.8805V29.8805V29.8805V29.8806V29.8806V29.8806V29.8806V29.8807V29.8807V29.8807V29.8808V29.8808V29.8808V29.8809V29.8809V29.8809V29.8809V29.881V29.881V29.881V29.8811V29.8811V29.8811V29.8811V29.8812V29.8812V29.8812V29.8813V29.8813V29.8813V29.8814V29.8814V29.8814V29.8814V29.8815V29.8815V29.8815V29.8816V29.8816V29.8816V29.8816V29.8817V29.8817V29.8817V29.8818V29.8818V29.8818V29.8819V29.8819V29.8819V29.8819V29.882V29.882V29.882V29.8821V29.8821V29.8821V29.8821V29.8822V29.8822V29.8822V29.8823V29.8823V29.8823V29.8823V29.8824V29.8824V29.8824V29.8825V29.8825V29.8825V29.8826V29.8826V29.8826V29.8826V29.8827V29.8827V29.8827V29.8828V29.8828V29.8828V29.8828V29.8829V29.8829V29.8829V29.883V29.883V29.883V29.8831V29.8831V29.8831V29.8831V29.8832V29.8832V29.8832V29.8833V29.8833V29.8833V29.8833V29.8834V29.8834V29.8834V29.8835V29.8835V29.8835V29.8835V29.8836V29.8836V29.8836V29.8837V29.8837V29.8837V29.8838V29.8838V29.8838V29.8838V29.8839V29.8839V29.8839V29.884V29.884V29.884V29.884V29.8841V29.8841V29.8841V29.8842V29.8842V29.8842V29.8843V29.8843V29.8843V29.8843V29.8844V29.8844V29.8844V29.8845V29.8845V29.8845V29.8845V29.8846V29.8846V29.8846V29.8847V29.8847V29.8847V29.8848V29.8848V29.8848V29.8848V29.8849V29.8849V29.8849V29.885V29.885V29.885V29.885V29.8851V29.8851V29.8851V29.8852V29.8852V29.8852V29.8852V29.8853V29.8853V29.8853V29.8854V29.8854V29.8854V29.8855V29.8855V29.8855V29.8855V29.8856V29.8856V29.8856V29.8857V29.8857V29.8857V29.8857V29.8858V29.8858V29.8858V29.8859V29.8859V29.8859V29.886V29.886V29.886V29.886V29.8861V29.8861V29.8861V29.8862V29.8862V29.8862V29.8862V29.8863V29.8863V29.8863V29.8864V29.8864V29.8864V29.8865V29.8865V29.8865V29.8865V29.8866V29.8866V29.8866V29.8867V29.8867V29.8867V29.8867V29.8868V29.8868V29.8868V29.8869V29.8869V29.8869V29.8869V29.887V29.887V29.887V29.8871V29.8871V29.8871V29.8872V29.8872V29.8872V29.8872V29.8873V29.8873V29.8873V29.8874V29.8874V29.8874V29.8874V29.8875V29.8875V29.8875V29.8876V29.8876V29.8876V29.8877V29.8877V29.8877V29.8877V29.8878V29.8878V29.8878V29.8879V29.8879V29.8879V29.8879V29.888V29.888V29.888V29.8881V29.8881V29.8881V29.8881V29.8882V29.8882V29.8882V29.8883V29.8883V29.8883V29.8884V29.8884V29.8884V29.8884V29.8885V29.8885V29.8885V29.8886V29.8886V29.8886V29.8886V29.8887V29.8887V29.8887V29.8888V29.8888V29.8888V29.8889V29.8889V29.8889V29.8889V29.889V29.889V29.889V29.8891V29.8891V29.8891V29.8891V29.8892V29.8892V29.8892V29.8893V29.8893V29.8893V29.8894V29.8894V29.8894V29.8894V29.8895V29.8895V29.8895V29.8896V29.8896V29.8896V29.8896V29.8897V29.8897V29.8897V29.8898V29.8898V29.8898V29.8898V29.8899V29.8899V29.8899V29.89V29.89V29.89V29.8901V29.8901V29.8901V29.8901V29.8902V29.8902V29.8902V29.8903V29.8903V29.8903V29.8903V29.8904V29.8904V29.8904V29.8905V29.8905V29.8905V29.8906V29.8906V29.8906V29.8906V29.8907V29.8907V29.8907V29.8908V29.8908V29.8908V29.8908V29.8909V29.8909C32.9783 31.4823 32.3821 32.9575 31.3018 34.0437L31.3018 34.0437C30.2044 35.1481 28.7201 35.7671 27.125 35.787H27.1248H27.1247H27.1245H27.1244H27.1242H27.1241H27.1239H27.1238H27.1236H27.1235H27.1233H27.1231H27.123H27.1228H27.1227H27.1225H27.1224H27.1222H27.1221H27.1219H27.1218H27.1216H27.1215H27.1213H27.1212H27.121H27.1209H27.1207H27.1206H27.1204H27.1202H27.1201H27.1199H27.1198H27.1196H27.1195H27.1193H27.1192H27.119H27.1189H27.1187H27.1186H27.1184H27.1183H27.1181H27.1179H27.1178H27.1176H27.1175H27.1173H27.1172H27.117H27.1169H27.1167H27.1166H27.1164H27.1163H27.1161H27.116H27.1158H27.1156H27.1155H27.1153H27.1152H27.115H27.1149H27.1147H27.1146H27.1144H27.1143H27.1141H27.114H27.1138H27.1136H27.1135H27.1133H27.1132H27.113H27.1129H27.1127H27.1126H27.1124H27.1123H27.1121H27.112H27.1118H27.1116H27.1115H27.1113H27.1112H27.111H27.1109H27.1107H27.1106H27.1104H27.1103H27.1101H27.11H27.1098H27.1096H27.1095H27.1093H27.1092H27.109H27.1089H27.1087H27.1086H27.1084H27.1083H27.1081H27.1079H27.1078H27.1076H27.1075H27.1073H27.1072H27.107H27.1069H27.1067H27.1066H27.1064H27.1062H27.1061H27.1059H27.1058H27.1056H27.1055H27.1053H27.1052H27.105H27.1049H27.1047H27.1045H27.1044H27.1042H27.1041H27.1039H27.1038H27.1036H27.1035H27.1033H27.1032H27.103H27.1028H27.1027H27.1025H27.1024H27.1022H27.1021H27.1019H27.1018H27.1016H27.1015H27.1013H27.1011H27.101H27.1008H27.1007H27.1005H27.1004H27.1002H27.1001H27.0999H27.0997H27.0996H27.0994H27.0993H27.0991H27.099H27.0988H27.0987H27.0985H27.0984H27.0982H27.098H27.0979H27.0977H27.0976H27.0974H27.0973H27.0971H27.097H27.0968H27.0966H27.0965H27.0963H27.0962H27.096H27.0959H27.0957H27.0956H27.0954H27.0953H27.0951H27.0949H27.0948H27.0946H27.0945H27.0943H27.0942H27.094H27.0939H27.0937H27.0935H27.0934H27.0932H27.0931H27.0929H27.0928H27.0926H27.0925H27.0923H27.0921H27.092H27.0918H27.0917H27.0915H27.0914H27.0912H27.0911H27.0909H27.0908H27.0906H27.0904H27.0903H27.0901H27.09H27.0898H27.0897H27.0895H27.0894H27.0892H27.089H27.0889H27.0887H27.0886H27.0884H27.0883H27.0881H27.088H27.0878H27.0876H27.0875H27.0873H27.0872H27.087H27.0869H27.0867H27.0866H27.0864H27.0862H27.0861H27.0859H27.0858H27.0856H27.0855H27.0853H27.0852H27.085H27.0849H27.0847H27.0845H27.0844H27.0842H27.0841H27.0839H27.0838H27.0836H27.0835H27.0833H27.0831H27.083H27.0828H27.0827H27.0825H27.0824H27.0822H27.0821H27.0819H27.0817H27.0816H27.0814H27.0813H27.0811H27.081H27.0808H27.0807H27.0805H27.0803H27.0802H27.08H27.0799H27.0797H27.0796H27.0794H27.0793H27.0791H27.079H27.0788H27.0786H27.0785H27.0783H27.0782H27.078H27.0779H27.0777H27.0776H27.0774H27.0772H27.0771H27.0769H27.0768H27.0766H27.0765H27.0763H27.0762H27.076H27.0758H27.0757H27.0755H27.0754H27.0752H27.0751H27.0749H27.0748H27.0746H27.0745H27.0743H27.0741H27.074H27.0738H27.0737H27.0735H27.0734H27.0732H27.0731H27.0729H27.0727H27.0726H27.0724H27.0723H27.0721H27.072H27.0718H27.0717H27.0715H27.0714H27.0712H27.071H27.0709H27.0707H27.0706H27.0704H27.0703H27.0701H27.07H27.0698H27.0697H27.0695H27.0693H27.0692H27.069H27.0689H27.0687H27.0686H27.0684H27.0683H27.0681H27.0679H27.0678H27.0676H27.0675H27.0673H27.0672H27.067H27.0669H27.0667H27.0666H27.0664H27.0662H27.0661H27.0659H27.0658H27.0656H27.0655H27.0653H27.0652H27.065H27.0649H27.0647H27.0645H27.0644H27.0642H27.0641H27.0639H27.0638H27.0636H27.0635H27.0633H27.0632H27.063H27.0628H27.0627H27.0625H27.0624H27.0622H27.0621H27.0619H27.0618H27.0616H27.0615H27.0613H27.0612H27.061H27.0608H27.0607H27.0605H27.0604H27.0602H27.0601H27.0599H27.0598H27.0596H27.0595H27.0593H27.0592H27.059H27.0588H27.0587H27.0585H27.0584H27.0582H27.0581H27.0579H27.0578H27.0576H27.0575H27.0573H27.0572H27.057H27.0568H27.0567H27.0565H27.0564H27.0562H27.0561H27.0559H27.0558H27.0556H27.0555H27.0553H27.0552H27.055H27.0548H27.0547H27.0545H27.0544H27.0542H27.0541H27.0539H27.0538H27.0536H27.0535H27.0533H27.0532H27.053H27.0529H27.0527H27.0525H27.0524H27.0522H27.0521H27.0519H27.0518H27.0516H27.0515H27.0513H27.0512H27.051H27.0509H27.0507H27.0506H27.0504H27.0503H27.0501H27.0499H27.0498H27.0496H27.0495H27.0493H27.0492H27.049H27.0489H27.0487H27.0486H27.0484H27.0483H27.0481H27.048H27.0478H27.0477H27.0475H27.0473H27.0472H27.047H27.0469H27.0467H27.0466H27.0464H27.0463C25.4808 35.787 24.0123 35.2057 22.9049 34.1459C21.7736 33.0632 21.1411 31.5991 21.1213 30.0224C21.1014 28.4447 21.6983 26.9656 22.8008 25.8552C23.8972 24.7518 25.3805 24.1319 26.9767 24.113C28.5565 24.1061 30.0717 24.6757 31.1967 25.7531Z" fill="white" stroke="#E98862" stroke-width="0.1"/>
<path d="M26.2082 11.559V5.27198H28.1082V11.559H26.2082Z" fill="white" stroke="#E98862" stroke-width="0.1"/>
<path d="M27.1234 7.007C25.1774 7.007 23.5964 5.44575 23.5964 3.529C23.5964 1.61124 25.1774 0.05 27.1234 0.05C29.0694 0.05 30.6504 1.61124 30.6504 3.529C30.6504 5.44575 29.0694 7.007 27.1234 7.007ZM27.1234 1.95C26.2272 1.95 25.4964 2.65695 25.4964 3.529C25.4964 4.40109 26.2273 5.107 27.1234 5.107C28.0195 5.107 28.7504 4.40007 28.7504 3.529C28.7504 2.65797 28.0196 1.95 27.1234 1.95Z" fill="white" stroke="#E98862" stroke-width="0.1"/>
<path d="M10.9664 21.171L5.21338 17.478" stroke="#E98862" stroke-width="0.1"/>
<path d="M10.4103 21.9416L4.74194 18.3028L5.76778 16.7048L11.4361 20.3436L10.4103 21.9416Z" fill="white" stroke="#E98862" stroke-width="0.1"/>
<path d="M2.28721 15.8777L2.28728 15.8776C2.58885 15.3664 3.13782 15.081 3.70134 15.081C3.97974 15.081 4.26223 15.1511 4.51991 15.2965L4.52001 15.2965C4.89636 15.51 5.16509 15.8538 5.27464 16.2631M2.28721 15.8777L5.22634 16.276M2.28721 15.8777C2.07652 16.2371 2.01854 16.6559 2.12605 17.057M2.28721 15.8777L2.12605 17.057M5.27464 16.2631L5.22634 16.276M5.27464 16.2631C5.27464 16.2631 5.27464 16.2631 5.27464 16.2631L5.22634 16.276M5.27464 16.2631C5.38214 16.6641 5.32417 17.0829 5.11242 17.4424M5.22634 16.276C5.33034 16.664 5.27434 17.069 5.06934 17.417M5.11242 17.4424C5.11244 17.4424 5.11245 17.4423 5.11246 17.4423L5.06934 17.417M5.11242 17.4424C4.66316 18.2076 3.66174 18.4645 2.88076 18.0235L2.88068 18.0235C2.50433 17.8101 2.2356 17.4662 2.12605 17.057M5.11242 17.4424L5.06934 17.417M5.06934 17.417L2.12605 17.057M2.12605 17.057C2.12605 17.0569 2.12604 17.0569 2.12604 17.0569L2.17434 17.044L2.12605 17.057ZM1.94401 19.6775L1.94399 19.6775C1.12053 19.211 0.533139 18.455 0.290643 17.5491L0.290637 17.5491C0.050127 16.6521 0.178201 15.7179 0.650435 14.9154L0.650436 14.9154C1.62143 13.2652 3.77818 12.6948 5.45672 13.6445C6.28017 14.111 6.86755 14.867 7.11004 15.7729L7.11005 15.773C7.35056 16.6699 7.22249 17.6041 6.75025 18.4066L6.75023 18.4067C6.09873 19.5155 4.91167 20.138 3.69234 20.138C3.09667 20.138 2.49521 19.9901 1.94401 19.6775Z" fill="white" stroke="#E98862" stroke-width="0.1"/>
<path d="M10.8092 38.562L5.05518 42.255" stroke="#E98862" stroke-width="0.1"/>
<path d="M5.61104 43.0253L4.5852 41.4273L10.2544 37.788L11.2802 39.386L5.61104 43.0253Z" fill="white" stroke="#E98862" stroke-width="0.1"/>
<path d="M2.16524 43.9155L2.16514 43.9153C1.95445 43.5559 1.89647 43.1371 2.00398 42.7361M2.16524 43.9155L2.05227 42.749M2.16524 43.9155C2.61735 44.6793 3.62062 44.9397 4.39794 44.4965L2.16524 43.9155ZM2.00398 42.7361L2.05227 42.749M2.00398 42.7361C2.00398 42.7361 2.00397 42.7361 2.00397 42.7361L2.05227 42.749M2.00398 42.7361C2.11353 42.3268 2.38222 41.983 2.75852 41.7696M2.05227 42.749C2.15827 42.353 2.41827 42.02 2.78327 41.813M2.75852 41.7696L2.78327 41.813M2.75852 41.7696C2.75855 41.7695 2.75858 41.7695 2.75861 41.7695L2.78327 41.813M2.75852 41.7696C3.01737 41.6221 3.29895 41.553 3.57827 41.553C4.14179 41.553 4.68981 41.8374 4.99138 42.3507L4.99141 42.3507C5.20209 42.7101 5.26007 43.1289 5.15257 43.5299C5.15257 43.5299 5.15257 43.5299 5.15257 43.5299L5.10427 43.517C4.99827 43.913 4.73827 44.246 4.37327 44.453L2.78327 41.813M0.168563 42.245L0.168572 42.2449C0.411068 41.339 0.998458 40.583 1.82192 40.1165L1.82193 40.1165C3.49749 39.1668 5.65719 39.7342 6.62917 41.3873L6.62919 41.3874C7.10139 42.1888 7.2285 43.124 6.98798 44.0211L6.98797 44.0211C6.74548 44.927 6.15812 45.683 5.33469 46.1495C4.78442 46.4601 4.18092 46.609 3.58627 46.609C2.36895 46.609 1.18185 45.9875 0.528349 44.8786C0.0561265 44.0761 -0.0719375 43.1409 0.168563 42.245Z" fill="white" stroke="#E98862" stroke-width="0.1"/>
<path d="M26.8442 48.391V54.778" stroke="#E98862" stroke-width="0.1"/>
<path d="M25.8942 54.728V48.441H27.7942V54.728H25.8942Z" fill="white" stroke="#E98862" stroke-width="0.1"/>
<path d="M26.8792 59.95C24.9332 59.95 23.3522 58.3887 23.3522 56.471C23.3522 54.5542 24.9332 52.993 26.8792 52.993C28.8253 52.993 30.4062 54.5542 30.4062 56.471C30.4062 58.3887 28.8253 59.95 26.8792 59.95ZM26.8792 54.893C25.9831 54.893 25.2522 55.5999 25.2522 56.471C25.2522 57.342 25.9831 58.05 26.8792 58.05C27.7754 58.05 28.5062 57.343 28.5062 56.471C28.5062 55.5989 27.7754 54.893 26.8792 54.893Z" fill="white" stroke="#E98862" stroke-width="0.1"/>
<path d="M43.0361 38.829L48.7891 42.522" stroke="#E98862" stroke-width="0.1"/>
<path d="M48.2316 43.2928L42.5632 39.654L43.5891 38.056L49.2574 41.6948L48.2316 43.2928Z" fill="white" stroke="#E98862" stroke-width="0.1"/>
<path d="M51.7155 44.1212L51.7155 44.1213C51.2664 44.8863 50.264 45.1476 49.4827 44.7024C49.1064 44.489 48.8377 44.1452 48.7281 43.7359C48.7281 43.7359 48.7281 43.7359 48.7281 43.7359L48.7764 43.723L51.7155 44.1212ZM51.7155 44.1212C51.9262 43.7618 51.9842 43.3431 51.8767 42.942M51.7155 44.1212L51.122 41.9754M51.122 41.9754L51.1221 41.9755C51.4984 42.1889 51.7671 42.5328 51.8767 42.942M51.122 41.9754C50.8632 41.829 50.5807 41.76 50.3024 41.76C49.7389 41.76 49.1909 42.0443 48.8903 42.5566L51.122 41.9754ZM51.8767 42.942L51.8284 42.955L51.8767 42.942C51.8767 42.942 51.8767 42.942 51.8767 42.942ZM48.5461 46.3555L48.546 46.3555C47.7226 45.889 47.1352 45.1329 46.8927 44.227L46.8927 44.227C46.6522 43.33 46.7803 42.3958 47.2525 41.5933L47.2525 41.5933C48.2215 39.9422 50.3782 39.3727 52.0588 40.3225C52.8822 40.7889 53.4696 41.545 53.7121 42.4509L53.7121 42.4509C53.9526 43.3479 53.8245 44.2821 53.3523 45.0846C52.6988 46.1945 51.5117 46.816 50.2934 46.816C49.6977 46.816 49.0963 46.668 48.5461 46.3555Z" fill="white" stroke="#E98862" stroke-width="0.1"/>
<path d="M43.1934 21.438L48.9474 17.745" stroke="#E98862" stroke-width="0.1"/>
<path d="M43.7463 22.2086L42.7205 20.6106L48.3896 16.9713L49.4155 18.5693L43.7463 22.2086Z" fill="white" stroke="#E98862" stroke-width="0.1"/>
<path d="M49.0112 17.6504L49.0111 17.6503C48.8004 17.2909 48.7424 16.8721 48.8499 16.471M49.0112 17.6504L51.2192 18.188C51.5842 17.981 51.8442 17.648 51.9502 17.252L51.9985 17.2649C51.9985 17.2649 51.9985 17.2649 51.9985 17.2649C52.106 16.8639 52.048 16.4451 51.8374 16.0857L51.8373 16.0856C51.5357 15.5744 50.9878 15.289 50.4242 15.289C50.145 15.289 49.8624 15.358 49.6045 15.5045C49.2282 15.7179 48.9595 16.0618 48.8499 16.471M49.0112 17.6504C49.4623 18.4153 50.4626 18.6767 51.2439 18.2315L49.0112 17.6504ZM48.8499 16.471L48.8982 16.484L48.8499 16.4711C48.8499 16.4711 48.8499 16.471 48.8499 16.471ZM47.3733 18.6136L47.3733 18.6136C46.9011 17.8122 46.774 16.877 47.0145 15.9799L47.0145 15.9799C47.257 15.074 47.8444 14.318 48.6679 13.8515C50.3444 12.9018 52.5032 13.4702 53.4741 15.1213L53.4741 15.1213C53.9464 15.9239 54.0744 16.8591 53.8339 17.755L53.8339 17.7551C53.5914 18.661 53.004 19.417 52.1806 19.8835L52.1805 19.8835C51.6303 20.1971 51.0269 20.345 50.4312 20.345C49.2139 20.345 48.0268 19.7235 47.3733 18.6136Z" fill="white" stroke="#E98862" stroke-width="0.1"/>
<path d="M17.8505 37.1619L17.8336 37.1409L17.8067 37.1434L12.9173 37.6102L11.0617 31.5014L15.2528 29.2462L15.2775 29.233L15.2791 29.205C15.2924 28.9657 15.3131 28.726 15.3405 28.4874L15.3436 28.4604L15.3226 28.4431L11.657 25.4212L14.6633 19.7915L19.1202 21.1254L19.1471 21.1335L19.168 21.1147C19.377 20.9269 19.5918 20.7478 19.8123 20.5783L19.8343 20.5614L19.8316 20.5338L19.3865 15.9152L25.4963 14.0597L27.7003 18.1462L27.7135 18.1708L27.7413 18.1724C28.0173 18.189 28.2967 18.2176 28.5761 18.2574L28.6039 18.2613L28.6217 18.2397L31.5797 14.661L37.2091 17.6667L35.8496 22.2144L35.8419 22.2404L35.8594 22.2611C36.0103 22.4389 36.1579 22.6247 36.3039 22.8209L36.3207 22.8435L36.3488 22.8408L41.0858 22.3903L42.9422 28.4991L38.6163 30.8241L38.5925 30.837L38.5902 30.8639C38.5744 31.0487 38.5537 31.2286 38.5296 31.4041L38.5258 31.4317L38.5474 31.4494L42.3462 34.5784L39.3399 40.2088L34.5165 38.7624L34.4906 38.7547L34.47 38.772C34.363 38.8616 34.2576 38.947 34.1533 39.0278L34.1315 39.0446L34.1341 39.072L34.6093 44.0869L28.5078 45.9403L26.1121 41.5043L26.0991 41.4801L26.0717 41.4781C25.939 41.4686 25.8063 41.4566 25.6735 41.4425L25.6468 41.4396L25.6296 41.4603L22.4233 45.339L16.7948 42.3333L18.2043 37.6148L18.2123 37.588L18.1936 37.5672C18.0751 37.4346 17.9607 37.2995 17.8505 37.1619ZM13.712 24.9821L13.6927 25.0182L13.7243 25.0442L17.0675 27.7999C16.8402 29.4838 16.8541 29.6037 16.8708 29.7474C16.8794 29.8212 16.8886 29.9011 16.8664 30.202L13.0159 32.2732L12.9798 32.2926L12.9917 32.3318L14.0598 35.8475L14.0717 35.8866L14.1124 35.8827L18.5808 35.4564C19.4961 36.6521 19.6014 36.742 19.7235 36.8462C19.7841 36.898 19.8489 36.9533 20.0191 37.1494L18.7215 41.496L18.7098 41.5351L18.7459 41.5544L21.9857 43.2849L22.0218 43.3042L22.0478 43.2727L24.9818 39.7238C26.3931 39.9099 26.514 39.9038 26.6606 39.8964C26.735 39.8926 26.8161 39.8885 27.0758 39.909L29.2772 43.9864L29.2966 44.0224L29.3357 44.0105L32.8477 42.9437L32.8868 42.9318L32.8829 42.8912L32.4448 38.2699C32.6001 38.1493 32.665 38.111 32.7286 38.0734C32.8691 37.9906 33.0031 37.9116 34.0891 36.9579L38.502 38.2815L38.5412 38.2932L38.5605 38.2572L40.2907 35.0184L40.31 34.9823L40.2784 34.9563L36.7762 32.0718C36.7878 32.0066 36.8023 31.935 36.8186 31.8551C36.8859 31.5237 36.982 31.0502 37.0177 30.3029L37.0177 30.3028L37.0389 29.8484L40.986 27.7265L41.0221 27.7071L41.0102 27.6679L39.943 24.1522L39.9311 24.1131L39.8904 24.117L35.5358 24.5313C35.4061 24.3641 35.3587 24.2844 35.3112 24.2044C35.204 24.0241 35.0962 23.8425 34.0413 22.6541L35.2821 18.5041L35.2938 18.465L35.2578 18.4457L32.0171 16.7152L31.9811 16.6959L31.955 16.7274L29.2431 20.009C29.0232 19.9839 28.9368 19.96 28.85 19.936C28.6552 19.882 28.4575 19.8272 26.7441 19.7568L24.7249 16.0137L24.7055 15.9777L24.6664 15.9896L21.1508 17.0576L21.1117 17.0695L21.1156 17.1102L21.5219 21.3304C20.0945 22.3896 20.0098 22.4977 19.9127 22.6216C19.8641 22.6837 19.8123 22.7498 19.5867 22.9416L15.5007 21.7182L15.4615 21.7064L15.4422 21.7425L13.712 24.9821Z" fill="white" stroke="#E98862" stroke-width="0.1"/>
</svg>
