<svg width="61" height="53" viewBox="0 0 61 53" fill="none" xmlns="http://www.w3.org/2000/svg">
<path d="M47.7183 15.4009L47.718 15.4017L47.7315 15.4037L59.2926 17.1018L59.3071 17.0028L59.2926 17.1018C59.8202 17.1792 60.2117 17.6323 60.2125 18.1658V34.5473C60.2125 40.111 57.1812 44.6992 53.6138 47.9006C51.8307 49.5008 49.9163 50.7519 48.1858 51.6026C46.4524 52.4546 44.9136 52.9 43.8799 52.9C42.8462 52.9 41.3073 52.4546 39.5739 51.6026C37.8435 50.7519 35.9291 49.5008 34.1459 47.9006C30.5785 44.6992 27.5473 40.111 27.5473 34.5473V18.1657C27.5473 17.6323 27.9387 17.1792 28.4663 17.1018L28.4664 17.1018L40.0274 15.4037L40.0275 15.4047L40.0406 15.4009C42.5629 14.6711 45.1961 14.6711 47.7183 15.4009ZM29.7835 19.0823L29.698 19.0948V19.1812V34.5473C29.698 39.2966 32.3886 43.3468 35.4944 46.2048C37.0482 47.6346 38.7091 48.7692 40.1966 49.5468C41.6802 50.3224 43.0034 50.7492 43.8791 50.7492C44.7548 50.7492 46.078 50.3223 47.5617 49.5467C49.0492 48.769 50.7103 47.6343 52.2642 46.2045C55.3701 43.3464 58.0609 39.2962 58.0609 34.5473V19.1812V19.0948L57.9754 19.0823L47.3383 17.5198L47.3379 17.5197C47.2876 17.5126 47.2375 17.5018 47.1891 17.4876C45.0126 16.8435 42.7464 16.8435 40.57 17.4875C40.5215 17.5018 40.4714 17.5125 40.4211 17.5197L40.4207 17.5198L29.7835 19.0823Z" fill="white" stroke="#2D2F8E" stroke-width="0.2"/>
<path d="M44.7574 34.2034L44.7575 34.2035L45.6664 39.0171L45.6888 39.1357H45.5682H42.1901H42.0695L42.0919 39.0171L43.0008 34.2036C43.0008 34.2036 43.0008 34.2036 43.0008 34.2035C43.0811 33.7777 42.8975 33.3446 42.5362 33.1059C41.8447 32.6502 41.4319 31.8863 41.4319 31.0635C41.4319 29.7145 42.5298 28.6166 43.8788 28.6166C45.2277 28.6166 46.3248 29.7145 46.3248 31.0634C46.3248 31.0634 46.3248 31.0634 46.3248 31.0635L44.7574 34.2034ZM44.7574 34.2034C44.6764 33.7776 44.8592 33.3446 45.2212 33.1059L44.7574 34.2034ZM40.7565 34.4985L40.7667 34.4446L40.7267 34.407C39.8103 33.5458 39.2812 32.3435 39.2812 31.0627C39.2812 28.5274 41.3434 26.4651 43.8788 26.4651C46.4141 26.4651 48.4763 28.5274 48.4756 31.0619V31.0619C48.4756 32.3427 47.9465 33.5451 47.0308 34.4063L46.9909 34.4438L47.001 34.4977L48.0416 40.0102L48.0416 40.0102C48.1011 40.3249 48.0173 40.6489 47.8137 40.8956C47.6094 41.1422 47.3054 41.2849 46.9857 41.2849H40.7718C40.4521 41.2849 40.1481 41.1422 39.9438 40.8956C39.7403 40.6498 39.6564 40.325 39.7159 40.0102L39.7159 40.0102L40.7565 34.4985Z" fill="white" stroke="#2D2F8E" stroke-width="0.2"/>
<path d="M12.9246 7.37756L12.8482 7.31307C12.6968 7.49254 12.4773 7.603 12.2418 7.61716L12.2417 7.61716C10.532 7.72049 8.84367 8.22621 7.35983 9.07899L7.40966 9.16569L7.35982 9.07899C3.93986 11.0446 1.81445 14.6891 1.81445 18.5905C1.81445 22.4914 3.93988 26.1333 7.35923 28.0964L7.35933 28.0965C8.00926 28.4685 8.7123 28.7773 9.44787 29.0138L9.44793 29.0138C9.71097 29.0982 9.91632 29.3032 9.99951 29.5629L9.99955 29.563C12.0487 35.9281 17.9578 40.2038 24.7029 40.2038C25.5614 40.2038 26.4302 40.1306 27.2847 39.9862C27.7499 39.908 28.1933 40.2189 28.2731 40.6801C28.3523 41.1405 28.0391 41.5793 27.5723 41.6581L27.5722 41.6581C26.6227 41.8189 25.6574 41.9 24.7029 41.9C17.3677 41.9 10.925 37.3507 8.51892 30.5306L8.50319 30.486L8.45873 30.4699C7.77442 30.2215 7.11743 29.9174 6.49982 29.5644C2.55173 27.2976 0.1 23.0931 0.1 18.5905C0.1 14.0879 2.55119 9.88079 6.49999 7.61345L6.50002 7.61343C8.09578 6.69652 9.89559 6.12696 11.7295 5.95636L11.769 5.95268L11.7952 5.92291C13.0358 4.51529 14.4888 3.32954 16.12 2.39446L16.1201 2.39442C18.7333 0.893691 21.7017 0.1 24.7042 0.1C29.9093 0.1 34.8789 2.495 38.1301 6.53888L38.1701 6.58858L38.232 6.57332C40.7662 5.94857 43.5531 6.32567 45.8136 7.62045C48.9516 9.42452 50.9 12.7676 50.9 16.3448C50.9 16.8126 50.517 17.1929 50.0431 17.1929C49.5692 17.1929 49.1862 16.8126 49.1862 16.3448C49.1862 13.3687 47.5641 10.5883 44.9537 9.08784L44.9536 9.08777C42.9108 7.91776 40.3535 7.64922 38.1093 8.37137C37.7561 8.48425 37.3714 8.36097 37.1528 8.06636C34.2403 4.13981 29.5861 1.79559 24.7035 1.79559C22.0028 1.79559 19.3319 2.50937 16.9788 3.86116C15.4043 4.76329 14.0154 5.92442 12.8481 7.31322L12.9246 7.37756ZM12.9246 7.37756C14.0844 5.99774 15.4643 4.84421 17.0285 3.94793L12.2478 7.71698C12.5106 7.70118 12.7556 7.57793 12.9246 7.37756Z" fill="white" stroke="#2D2F8E" stroke-width="0.2"/>
</svg>
