<svg width="42" height="40" viewBox="0 0 42 40" fill="none" xmlns="http://www.w3.org/2000/svg">
<path d="M21.7415 40C19.9212 40 18.1806 38.8973 16.7071 36.8111C15.357 34.8995 14.2613 32.2102 13.5383 29.0338C12.8984 26.223 12.5737 23.1837 12.5737 20.0005C12.5737 16.8174 12.8984 13.7778 13.5383 10.9673C14.261 7.79088 15.3566 5.10158 16.7071 3.19001C18.1806 1.10377 19.9213 0.00109863 21.7415 0.00109863C23.5611 0.00109863 25.3018 1.10377 26.7753 3.19001C28.1254 5.10158 29.221 7.7912 29.944 10.9676C30.584 13.7788 30.9086 16.818 30.9086 20.0009C30.9086 23.184 30.5843 26.2233 29.944 29.0349C29.6941 30.1347 29.396 31.1881 29.0586 32.1652C28.9291 32.5401 28.5205 32.7388 28.1456 32.6093C27.7706 32.4799 27.5719 32.0713 27.7014 31.6963C28.0222 30.7683 28.3055 29.7659 28.5439 28.7164C29.1515 26.0476 29.4726 23.0339 29.4726 20.0015C29.4726 16.969 29.1515 13.955 28.5439 11.2865C27.1823 5.30316 24.5122 1.43702 21.7415 1.43702C18.9702 1.43702 16.2997 5.30307 14.9384 11.2857C14.3308 13.9542 14.0097 16.9678 14.0097 20.0006C14.0097 23.0334 14.3308 26.0471 14.9384 28.7156C16.2997 34.6989 18.9704 38.5643 21.7418 38.5643C21.7633 38.5639 21.7854 38.5643 21.8069 38.5636C23.7139 38.5194 25.1864 36.7328 26.0866 35.2417C26.2917 34.9023 26.7327 34.7937 27.0724 34.9982C27.4118 35.2033 27.5207 35.6445 27.316 35.9839C25.7582 38.5636 23.8668 39.9519 21.8457 39.9987C21.8146 40 21.7774 40 21.7415 40ZM17.6739 20.7177H17.6729C17.2765 20.7174 16.9554 20.3953 16.956 19.9989C16.9593 17.3635 19.106 15.2189 21.7412 15.2189C22.1376 15.2189 22.459 15.5403 22.459 15.9367C22.459 16.3331 22.1376 16.6546 21.7412 16.6546C19.8963 16.6546 18.3939 18.1556 18.3917 20.0005C18.3914 20.3969 18.07 20.7177 17.6739 20.7177Z" fill="#FF4500"/>
<path d="M21.7415 39.9992C18.5039 39.9992 15.2881 39.2076 12.4417 37.7098C9.687 36.2603 7.27229 34.1527 5.45884 31.6149C5.33642 31.4438 5.2954 31.2275 5.34635 31.0234C5.39763 30.8192 5.53575 30.6478 5.72418 30.5542C8.19205 29.3322 11.5966 28.4395 15.5696 27.9725C17.56 27.7389 19.6366 27.6204 21.7417 27.6204C23.8468 27.6204 25.9231 27.7389 27.9137 27.9725C31.8849 28.4391 35.2891 29.3319 37.7591 30.5542C37.9479 30.6475 38.086 30.8189 38.1373 31.0234C38.1882 31.2275 38.1472 31.4438 38.0248 31.6153C36.2113 34.1534 33.7966 36.2607 31.0419 37.7101C28.1953 39.2076 24.9795 39.9992 21.7421 39.9992L21.7415 39.9992ZM7.15022 31.4778C10.6599 35.9301 16.0514 38.5636 21.7415 38.5636C27.432 38.5636 32.8224 35.9303 36.3329 31.4782C34.0967 30.5223 31.0901 29.7916 27.7467 29.3983C25.8118 29.1711 23.7916 29.0561 21.7423 29.0561C19.693 29.0561 17.6728 29.1711 15.7378 29.3983C12.3925 29.7912 9.38592 30.5222 7.15088 31.4778H7.15022Z" fill="#FF4500"/>
<path d="M21.741 12.3793C19.6314 12.3793 17.5549 12.2608 15.569 12.0271C11.5965 11.5602 8.19258 10.6678 5.72438 9.44614C5.53563 9.35289 5.39783 9.18144 5.34655 8.97731C5.29528 8.77318 5.3363 8.55686 5.45872 8.38574C7.27193 5.84764 9.68623 3.73999 12.4409 2.29021C15.2872 0.792032 18.5034 0.000198364 21.7408 0.000198364C24.5795 0.000198364 27.3219 0.582801 29.893 1.73194C32.3769 2.842 34.5759 4.4219 36.4288 6.42765C36.6977 6.71895 36.6797 7.17304 36.3888 7.44189C36.0978 7.71107 35.6434 7.69281 35.3745 7.40183C31.8716 3.6101 26.9024 1.43576 21.7406 1.43576C16.0498 1.43576 10.6597 4.0696 7.15008 8.52214C9.38496 9.47748 12.3913 10.2081 15.7362 10.6013C17.6666 10.8285 19.6868 10.9436 21.7407 10.9436C23.7938 10.9436 25.8137 10.8282 27.7439 10.6013C30.4274 10.286 32.919 9.75017 34.9495 9.05154C35.3241 8.92239 35.7327 9.12204 35.8618 9.49666C35.991 9.8716 35.7916 10.2799 35.4167 10.409C33.2911 11.1406 30.696 11.6998 27.9118 12.027C25.9256 12.2607 23.8493 12.3792 21.7403 12.3792L21.741 12.3793Z" fill="#FF4500"/>
<path d="M2.50137 21.9893C2.12739 21.9893 1.81174 21.6993 1.78609 21.3205C1.75693 20.8946 1.74219 20.4505 1.74219 20.0002C1.74219 15.8047 3.02789 11.7882 5.45983 8.38521C7.27271 5.84711 9.68735 3.73947 12.442 2.29002C15.288 0.791833 18.5042 0 21.7419 0C24.5806 0 27.323 0.582603 29.8941 1.73175C32.378 2.8418 34.577 4.4217 36.4299 6.42745C36.6988 6.71875 36.6809 7.17284 36.3899 7.44169C36.0989 7.71087 35.6445 7.69261 35.3756 7.40163C31.8727 3.60991 26.9035 1.43556 21.7417 1.43556C15.7596 1.43556 10.1095 4.34538 6.62779 9.2196C4.37042 12.3777 3.17767 16.1054 3.17767 19.9994C3.17767 20.4173 3.19145 20.8284 3.21837 21.222C3.24529 21.6174 2.94662 21.96 2.55117 21.9872C2.53418 21.9882 2.51752 21.9888 2.50118 21.9888L2.50137 21.9893Z" fill="#FF4500"/>
<path d="M21.7419 40C18.5043 40 15.2885 39.2081 12.4421 37.7103C9.68739 36.2608 7.27267 34.1529 5.45922 31.6148C4.11806 29.7372 3.1208 27.665 2.49559 25.4555C2.38759 25.0738 2.60935 24.6771 2.99102 24.5691C3.37269 24.4614 3.76911 24.6832 3.87712 25.0645C4.45715 27.1145 5.38268 29.0376 6.62729 30.78C10.1101 35.6542 15.7606 38.564 21.742 38.564C27.7231 38.564 33.3734 35.6539 36.8567 30.78C39.1125 27.6221 40.3049 23.8945 40.3049 20.0001C40.3049 16.9336 39.5416 13.8953 38.0972 11.2147C37.9091 10.8657 38.0399 10.4302 38.3889 10.2423C38.7378 10.0546 39.173 10.185 39.3612 10.534C40.918 13.4239 41.7406 16.6974 41.7406 20.0004C41.7406 24.1959 40.4559 28.2116 38.0249 31.6145C36.2107 34.1526 33.796 36.2606 31.0414 37.71C28.1947 39.2079 24.9789 39.9997 21.7415 39.9997L21.7419 40Z" fill="#FF4500"/>
<path d="M21.742 16.6552C21.3456 16.6552 21.0242 16.3338 21.0242 15.9373V0.71843C21.0242 0.322021 21.3456 0.000595093 21.742 0.000595093C22.1384 0.000595093 22.4598 0.322021 22.4598 0.71843V15.9373C22.4598 16.3338 22.1384 16.6552 21.742 16.6552Z" fill="#FF4500"/>
<path d="M21.742 40C21.3456 40 21.0242 39.6786 21.0242 39.2822V24.0723C21.0242 23.6759 21.3456 23.3544 21.742 23.3544C22.1384 23.3544 22.4598 23.6759 22.4598 24.0723V39.2822C22.4598 39.6786 22.1384 40 21.742 40Z" fill="#FF4500"/>
<path d="M41.0238 20.7177H25.8082C25.4118 20.7177 25.0903 20.3963 25.0903 19.9999C25.0903 19.6035 25.4118 19.2821 25.8082 19.2821H41.023C41.4194 19.2821 41.7411 19.6035 41.7411 19.9999C41.7415 20.3963 41.4203 20.7177 41.0239 20.7177H41.0238Z" fill="#FF4500"/>
<path d="M17.674 20.7177H2.46002C2.06361 20.7177 1.74219 20.3963 1.74219 19.9999C1.74219 19.6035 2.06361 19.2821 2.46002 19.2821H17.6748C18.0712 19.2821 18.3927 19.6035 18.3927 19.9999C18.3923 20.3963 18.0709 20.7177 17.6745 20.7177H17.674Z" fill="#FF4500"/>
<path d="M21.7414 24.7893C19.1027 24.7893 16.9563 22.6425 16.9563 20.0042C16.9563 19.6078 17.2777 19.2841 17.6741 19.2841C18.0705 19.2841 18.392 19.6033 18.392 19.9997V20.0042C18.392 21.8513 19.8946 23.3536 21.7414 23.3536C23.5879 23.3536 25.0902 21.851 25.0902 20.0042C25.088 18.1554 23.5856 16.6547 21.7414 16.6547C21.345 16.6547 21.0236 16.3333 21.0236 15.9369C21.0236 15.5405 21.345 15.219 21.7414 15.219C24.3762 15.219 26.5227 17.3633 26.5259 19.9991C26.5256 22.6429 24.3794 24.7894 21.7414 24.7894V24.7893Z" fill="#FF4500"/>
<path d="M37.4399 11.961C35.7002 11.961 34.2847 10.5455 34.2847 8.80568C34.2847 7.06589 35.7002 5.65041 37.4399 5.65041C39.1797 5.65041 40.5952 7.06589 40.5952 8.80568C40.5952 10.5455 39.1797 11.961 37.4399 11.961ZM37.4399 7.0864C36.4917 7.0864 35.7203 7.85775 35.7203 8.80601C35.7203 9.75429 36.4917 10.5256 37.4399 10.5256C38.3882 10.5256 39.1595 9.75426 39.1595 8.80601C39.1595 7.85773 38.3882 7.0864 37.4399 7.0864Z" fill="#FF4500"/>
<path d="M2.7441 26.0264C1.2309 26.0264 6.2535e-08 24.7952 6.2535e-08 23.282C-0.000320379 21.7691 1.2309 20.5379 2.7441 20.5379C4.25729 20.5379 5.48852 21.7691 5.48852 23.2823C5.4882 24.7952 4.25729 26.0264 2.7441 26.0264ZM2.7441 21.9736C2.02274 21.9736 1.43567 22.5606 1.43567 23.2823C1.43567 24.004 2.02275 24.5911 2.7441 24.5911C3.46578 24.5911 4.05285 24.004 4.05285 23.2823C4.05253 22.5606 3.46544 21.9736 2.7441 21.9736Z" fill="#FF4500"/>
<path d="M27.6247 36.5544C26.1115 36.5544 24.8806 35.3231 24.8806 33.8099C24.8806 32.2968 26.1115 31.0655 27.6247 31.0655C29.1379 31.0655 30.3691 32.2968 30.3691 33.8099C30.3691 35.3235 29.1379 36.5544 27.6247 36.5544ZM27.6247 32.5015C26.9033 32.5015 26.3163 33.0886 26.3163 33.8103C26.3163 34.5319 26.903 35.119 27.6247 35.119C28.3464 35.119 28.9335 34.5319 28.9335 33.8103C28.9335 33.0886 28.3464 32.5015 27.6247 32.5015Z" fill="#FF4500"/>
</svg>
