<svg width="76" height="57" viewBox="0 0 76 57" fill="none" xmlns="http://www.w3.org/2000/svg">
<path d="M17.9571 21.9085C18.552 22.5165 18.9381 23.2522 19.1443 24.0515L26.8258 24.2237C28.547 24.2629 30.1673 24.9569 31.3875 26.178L35.8101 30.6006C36.7772 31.5669 37.4348 32.8411 37.6618 34.1839L38.0705 36.5513L44.597 43.0735C45.3746 43.851 45.8025 44.8869 45.8025 45.9914C45.8025 46.1175 45.7773 46.2376 45.7668 46.3619L50.1511 47.4448L55.9897 47.2552C59.1972 47.1577 61.8925 49.6861 61.9995 52.9015C62.0143 53.7338 61.6882 54.5731 61.095 55.1654C60.5401 55.7211 59.8026 56.0421 59.0146 56.0699L46.8844 56.4569C46.8479 56.4578 46.8131 56.4526 46.7766 56.4517L46.7748 56.4517L46.7705 56.4517C46.4756 56.45 46.1878 56.4187 45.9086 56.3613L38.3863 55.5681C35.8197 55.2993 33.3949 54.1408 31.5597 52.3057L24.0904 44.8356C22.858 43.6031 21.2943 42.816 19.5704 42.5595L18.9677 42.4716C18.3937 44.4946 16.5246 45.9723 14.3233 45.9488L4.7267 45.8462C3.45515 45.8323 2.26187 45.3217 1.36605 44.4076C0.484139 43.5049 -0.000304558 42.3212 -0.000304503 41.0696C-0.000304502 41.0513 -0.000304502 41.0339 -0.000304501 41.0166L0.170164 25.0943C0.18408 23.8228 0.694612 22.6286 1.60871 21.7337C2.52279 20.8387 3.72738 20.3534 4.99893 20.3665L14.5956 20.4691C15.8689 20.483 17.0621 20.9944 17.9571 21.9085ZM25.3202 43.6049L32.7895 51.075C34.3446 52.6292 36.3954 53.6112 38.568 53.8373L46.8983 54.7157L58.9555 54.3304C59.3033 54.3183 59.6173 54.1817 59.8643 53.9347C60.127 53.672 60.2809 53.3128 60.2592 52.9484C60.1853 50.6993 58.2927 48.925 56.0427 48.9938L50.0859 49.1868C50.0442 49.1886 50.0076 49.1712 49.9668 49.1668C49.9267 49.1625 49.8885 49.1712 49.8493 49.1616L45.2493 48.0249C45.0684 48.3423 44.8614 48.645 44.5962 48.9094C42.9871 50.5184 40.3692 50.5184 38.7602 48.9094L31.044 41.1931C30.8744 41.0235 30.7891 40.8009 30.7891 40.5782C30.7891 40.3556 30.8744 40.1329 31.044 39.9633C31.384 39.6232 31.9337 39.6232 32.2738 39.9633L39.99 47.6796C40.9207 48.6102 42.4357 48.6102 43.3663 47.6796C44.263 46.7829 44.2639 45.2 43.3663 44.3033L36.645 37.5863C36.6224 37.5637 36.6146 37.535 36.5946 37.5107C36.5581 37.4654 36.5259 37.4193 36.4989 37.3663C36.4711 37.3124 36.4511 37.2593 36.4354 37.2019C36.4267 37.1723 36.4085 37.1497 36.4033 37.1184L35.9467 34.4762C35.7788 33.4829 35.2926 32.5427 34.5794 31.8296L30.1568 27.407C29.2541 26.5042 28.0564 25.9919 26.7857 25.9615L19.3173 25.7945L19.1573 40.74L19.8227 40.8365C21.9222 41.1505 23.8226 42.1072 25.3202 43.6049ZM2.82633 22.9765C2.24361 23.5462 1.91833 24.3046 1.90963 25.1126L1.73916 41.0348C1.73742 41.868 2.03922 42.6073 2.6089 43.19C3.17857 43.7727 3.93785 44.098 4.74497 44.1067L14.3416 44.2093C16.0176 44.2276 17.3952 42.8787 17.4135 41.2027L17.584 25.2805C17.5788 24.4455 17.283 23.7071 16.7142 23.1253C16.1446 22.5425 15.3853 22.2173 14.5782 22.2086L4.98153 22.1059C4.17355 22.0981 3.40818 22.4069 2.82633 22.9765Z" fill="black"/>
<path d="M10.8784 40.6011C10.8784 39.3542 11.8893 38.3433 13.1362 38.3433C14.3832 38.3433 15.394 39.3542 15.394 40.6011C15.394 41.8481 14.3832 42.8589 13.1362 42.8589C11.8893 42.8589 10.8784 41.8481 10.8784 40.6011Z" fill="black"/>
<path d="M43.1329 13.9106L45.587 13.9106C45.8847 12.8075 46.3184 11.758 46.8843 10.7773L45.1465 9.03947C44.7521 8.64506 44.5549 8.12675 44.5549 7.60843C44.5549 7.09011 44.7521 6.57255 45.1465 6.17814L47.287 4.03763C48.0758 3.24882 49.3595 3.24882 50.1483 4.03763L51.8861 5.77543C52.8676 5.21027 53.9163 4.77581 55.0195 4.47888L55.0195 2.02556C55.0195 0.90808 55.9284 -0.000107689 57.0451 -0.00010764L60.0636 -0.000107508C61.1811 -0.000107459 62.0893 0.908836 62.0893 2.02556L62.0893 4.47888C63.1924 4.77657 64.2411 5.21027 65.2226 5.77543L66.9604 4.03763C67.7492 3.24882 69.0329 3.24882 69.8217 4.03763L71.963 6.17814C72.7511 6.96695 72.7503 8.25066 71.963 9.03947L70.2252 10.7773C70.7904 11.7587 71.2248 12.8075 71.5225 13.9106L73.9743 13.9106C75.0911 13.9106 76 14.8195 76 15.9363L76 18.9548C76 20.0722 75.0911 20.9804 73.9743 20.9804L71.5203 20.9804C71.2226 22.0835 70.7889 23.1323 70.2229 24.1137L71.9615 25.8515C72.7496 26.6404 72.7488 27.9241 71.9615 28.7129L69.821 30.8534C69.0322 31.6422 67.7485 31.6422 66.9597 30.8534L65.2219 29.1156C64.2404 29.6808 63.1917 30.1152 62.0885 30.4121L62.0885 32.867C62.0885 33.9837 61.1796 34.8926 60.0629 34.8926L57.0444 34.8926C55.9269 34.8926 55.0187 33.9837 55.0187 32.867L55.0187 30.4129C53.9156 30.1152 52.8669 29.6815 51.8854 29.1163L50.1476 30.8541C49.3588 31.643 48.0751 31.643 47.2863 30.8541L45.1457 28.7136C44.7513 28.3192 44.5541 27.8009 44.5541 27.2833C44.5541 26.765 44.7513 26.2467 45.1457 25.8523L46.8835 24.1145C46.3184 23.133 45.8839 22.0843 45.5862 20.9812L43.1329 20.9812C42.0162 20.9812 41.1073 20.0722 41.1073 18.9555L41.1073 15.937C41.1073 14.8195 42.0162 13.9106 43.1329 13.9106ZM43.1329 15.4217C42.8443 15.4217 42.6184 15.6476 42.6184 15.9363L42.6184 18.9548C42.6184 19.2434 42.8443 19.4693 43.1329 19.4693L46.1665 19.4693C46.1899 19.4693 46.2103 19.4806 46.2338 19.4829C46.2859 19.4874 46.3343 19.498 46.3841 19.5131C46.4302 19.5267 46.4725 19.5426 46.5141 19.5645C46.5571 19.5872 46.5949 19.6144 46.6327 19.6446C46.6705 19.6748 46.7045 19.7058 46.7362 19.7428C46.7672 19.7791 46.7914 19.8176 46.8148 19.8599C46.8397 19.9045 46.8601 19.9491 46.876 19.9989C46.8835 20.0216 46.8987 20.039 46.9039 20.0624C47.2032 21.4134 47.7275 22.6812 48.4642 23.8304C48.477 23.8508 48.4785 23.8742 48.4899 23.8954C48.5133 23.9415 48.5307 23.9868 48.5443 24.0359C48.5579 24.0835 48.5677 24.1289 48.5715 24.1772C48.5753 24.2241 48.573 24.2694 48.5685 24.3162C48.5632 24.3661 48.5556 24.413 48.5405 24.4606C48.5269 24.5051 48.508 24.5452 48.4861 24.5867C48.4619 24.6328 48.4347 24.6744 48.4007 24.7152C48.3856 24.7333 48.3796 24.7552 48.3629 24.7726L46.2149 26.9207C46.0154 27.1209 46.0162 27.445 46.2149 27.6445L48.3554 29.785C48.4513 29.881 48.5798 29.9339 48.7173 29.9339C48.8548 29.9339 48.984 29.881 49.0792 29.785L51.2273 27.6369C51.2447 27.6196 51.2666 27.6135 51.2855 27.5984C51.3255 27.5652 51.3671 27.538 51.4124 27.5145C51.4547 27.4919 51.4963 27.4722 51.5416 27.4586C51.5877 27.4443 51.6338 27.4367 51.6821 27.4314C51.7305 27.4261 51.7766 27.4239 51.8249 27.4284C51.8725 27.4322 51.9164 27.442 51.9632 27.4556C52.0131 27.4692 52.0592 27.4866 52.1053 27.5108C52.1264 27.5213 52.1498 27.5229 52.1702 27.5357C53.3194 28.2724 54.5873 28.7967 55.9382 29.0952C55.9617 29.1005 55.979 29.1163 56.0017 29.1231C56.0508 29.139 56.0954 29.1594 56.14 29.1843C56.1823 29.2085 56.2216 29.2327 56.2578 29.2637C56.2941 29.2947 56.3251 29.3287 56.3546 29.3657C56.3863 29.4042 56.4135 29.4427 56.4362 29.4873C56.4573 29.5281 56.4724 29.5689 56.486 29.6135C56.5019 29.6641 56.5125 29.714 56.517 29.7684C56.5193 29.7911 56.5298 29.81 56.5298 29.8334L56.5298 32.867C56.5298 33.1556 56.7558 33.3815 57.0444 33.3815L60.0629 33.3815C60.3515 33.3815 60.5774 33.1556 60.5774 32.867L60.5774 29.8334C60.5774 29.7382 60.5986 29.646 60.6326 29.5599C60.6439 29.5304 60.6628 29.5062 60.6779 29.4783C60.7066 29.4254 60.7368 29.3755 60.7776 29.3309C60.8011 29.3045 60.8283 29.2841 60.8555 29.2614C60.8978 29.2259 60.9423 29.1942 60.993 29.1685C61.027 29.1511 61.061 29.1375 61.098 29.1254C61.1229 29.1171 61.1441 29.1012 61.1705 29.0952C62.5215 28.7967 63.7893 28.2716 64.9385 27.5357C64.9589 27.5229 64.9823 27.5213 65.0035 27.5108C65.0496 27.4866 65.0957 27.4692 65.1456 27.4556C65.1916 27.4428 65.2362 27.4329 65.2838 27.4284C65.3322 27.4246 65.3783 27.4261 65.4266 27.4314C65.475 27.4367 65.5203 27.4443 65.5672 27.4586C65.6125 27.4722 65.654 27.4919 65.6964 27.5145C65.7417 27.5387 65.7833 27.5652 65.8233 27.5984C65.8414 27.6135 65.8641 27.6196 65.8815 27.6369L68.0295 29.785C68.1255 29.881 68.2539 29.9339 68.3915 29.9339C68.529 29.9339 68.6574 29.881 68.7534 29.785L70.8939 27.6445C71.0934 27.445 71.0934 27.1201 70.8939 26.9207L68.7458 24.7726C68.7428 24.7696 68.742 24.7658 68.739 24.7628C68.6763 24.6986 68.6295 24.6245 68.5947 24.5452C68.5864 24.527 68.5804 24.5089 68.5736 24.49C68.5448 24.4092 68.5252 24.3253 68.5244 24.2399C68.5244 24.2392 68.5244 24.2392 68.5244 24.2384C68.5244 24.2384 68.5244 24.2384 68.5244 24.2377C68.5244 24.1523 68.5441 24.0677 68.5736 23.9853C68.5819 23.9611 68.594 23.9392 68.6053 23.9158C68.6189 23.8878 68.6264 23.8576 68.6438 23.8312C69.3805 22.682 69.9049 21.4141 70.2041 20.0632C70.2094 20.0397 70.2252 20.0224 70.232 19.9997C70.2479 19.9498 70.2683 19.9053 70.2932 19.8607C70.3166 19.8184 70.3416 19.7798 70.3718 19.7436C70.4035 19.7065 70.4375 19.6756 70.4753 19.6453C70.5131 19.6151 70.5509 19.5879 70.5939 19.5652C70.6355 19.5433 70.6786 19.5282 70.7239 19.5139C70.773 19.4988 70.8214 19.4882 70.8742 19.4836C70.8977 19.4814 70.9173 19.47 70.9415 19.47L73.9743 19.47C74.263 19.47 74.4889 19.2434 74.4889 18.9555L74.4889 15.937C74.4889 15.6484 74.263 15.4225 73.9743 15.4225L70.9407 15.4225C70.9173 15.4225 70.8969 15.4111 70.8735 15.4089C70.8214 15.4044 70.773 15.3938 70.7231 15.3787C70.677 15.3651 70.6347 15.3492 70.5932 15.3273C70.5501 15.3046 70.5123 15.2774 70.4746 15.2472C70.4368 15.217 70.4028 15.186 70.371 15.149C70.3401 15.1127 70.3159 15.0742 70.2925 15.0319C70.2675 14.9873 70.2471 14.9427 70.2313 14.8928C70.2237 14.8702 70.2086 14.8528 70.2033 14.8294C69.9041 13.4784 69.3797 12.2106 68.6431 11.0614C68.6257 11.0342 68.6181 11.0047 68.6045 10.9767C68.5932 10.9533 68.5811 10.9314 68.5728 10.9072C68.5433 10.8249 68.5237 10.7402 68.5237 10.6549C68.5237 10.6541 68.5237 10.6534 68.5237 10.6526C68.5237 10.5665 68.5441 10.4834 68.5728 10.4025C68.5796 10.3836 68.5856 10.3662 68.594 10.3474C68.6295 10.268 68.6763 10.194 68.7383 10.1298C68.7413 10.1267 68.742 10.123 68.7451 10.1199L70.8931 7.97185C71.0926 7.77239 71.0926 7.44749 70.8931 7.24802L68.7526 5.10751C68.6567 5.01155 68.5282 4.95866 68.3907 4.95866C68.2532 4.95866 68.124 5.01155 68.0288 5.10751L65.8807 7.25558C65.8633 7.27296 65.8414 7.279 65.8225 7.29411C65.7825 7.32736 65.7409 7.35456 65.6956 7.37798C65.6533 7.40065 65.6117 7.42029 65.5664 7.43389C65.5203 7.44825 65.4742 7.45581 65.4259 7.46109C65.3775 7.46638 65.3314 7.46865 65.2831 7.46412C65.2355 7.46034 65.1916 7.45052 65.1448 7.43692C65.0949 7.42331 65.0488 7.40594 65.0028 7.38176C64.9816 7.37118 64.9582 7.36967 64.9378 7.35683C63.7886 6.62015 62.5207 6.09579 61.1698 5.79734C61.1433 5.7913 61.1222 5.77618 61.0972 5.76712C61.0602 5.75503 61.027 5.74143 60.993 5.72405C60.9423 5.6976 60.897 5.66663 60.8547 5.63036C60.8275 5.60769 60.8018 5.58729 60.7776 5.56161C60.7368 5.51627 60.7059 5.4664 60.6771 5.41276C60.662 5.38555 60.6439 5.36138 60.6326 5.33267C60.5986 5.24654 60.5774 5.15511 60.5774 5.05991L60.5774 2.02556C60.5774 1.73694 60.3515 1.51102 60.0629 1.51102L57.0444 1.51102C56.7558 1.51102 56.5298 1.73694 56.5298 2.02556L56.5298 5.05916C56.5298 5.08258 56.5185 5.10222 56.5162 5.12564C56.5117 5.17853 56.5011 5.22765 56.4853 5.27827C56.4717 5.32285 56.4566 5.36516 56.4346 5.40596C56.4112 5.45054 56.384 5.48907 56.3523 5.5276C56.3221 5.56462 56.2926 5.59787 56.2563 5.62885C56.2193 5.65983 56.18 5.68476 56.1377 5.70894C56.0931 5.73387 56.0493 5.75427 56.0002 5.77014C55.9775 5.77769 55.9601 5.79281 55.9367 5.79809C54.5858 6.09654 53.3179 6.62166 52.1687 7.35758C52.1483 7.37043 52.1249 7.37194 52.1037 7.38251C52.0577 7.40669 52.0116 7.42407 51.9617 7.43767C51.9156 7.45052 51.871 7.46034 51.8234 7.46487C51.7751 7.46865 51.729 7.46714 51.6806 7.46185C51.6323 7.45656 51.5869 7.449 51.5401 7.43465C51.4948 7.42105 51.4532 7.4014 51.4109 7.37874C51.3656 7.35456 51.324 7.32811 51.284 7.29487C51.2658 7.27976 51.2432 7.27371 51.2258 7.25634L49.0777 5.10826C48.9817 5.01231 48.8533 4.95942 48.7158 4.95942C48.5783 4.95942 48.4498 5.01231 48.3539 5.10826L46.2134 7.24878C46.0139 7.44825 46.0131 7.77239 46.2134 7.97261L48.3614 10.1207C48.3788 10.1381 48.3849 10.1607 48.4 10.1789C48.434 10.2197 48.4604 10.2612 48.4846 10.3065C48.5065 10.3481 48.5254 10.3889 48.5397 10.4327C48.5549 10.4811 48.5632 10.5287 48.5685 10.5786C48.573 10.6246 48.5753 10.6685 48.5715 10.7146C48.5677 10.7637 48.5571 10.8105 48.5435 10.8589C48.5299 10.9072 48.5125 10.9518 48.4891 10.9971C48.4778 11.0183 48.477 11.0417 48.4634 11.0621C47.7268 12.2113 47.2024 13.4792 46.9032 14.8301C46.8979 14.8535 46.882 14.8709 46.8752 14.8936C46.8594 14.9435 46.839 14.988 46.814 15.0326C46.7906 15.0749 46.7657 15.1135 46.7355 15.1497C46.7037 15.1867 46.6697 15.2177 46.6319 15.2479C46.5942 15.2782 46.5564 15.3054 46.5133 15.328C46.4718 15.3499 46.4287 15.3651 46.3834 15.3794C46.3342 15.3945 46.2859 15.4051 46.233 15.4096C46.2096 15.4119 46.1899 15.4232 46.1658 15.4232L43.1329 15.4232L43.1329 15.4217Z" fill="black"/>
<path d="M58.5553 11.4875C61.8405 11.4875 64.5137 14.1607 64.5137 17.4459C64.5137 20.7311 61.8405 23.4043 58.5553 23.4043C55.2701 23.4043 52.5969 20.7311 52.5969 17.4459C52.5969 14.1607 55.2701 11.4875 58.5553 11.4875ZM54.108 17.4459C54.108 19.8985 56.1027 21.8932 58.5553 21.8932C61.0079 21.8932 63.0025 19.8985 63.0025 17.4459C63.0025 14.9933 61.0079 12.9987 58.5553 12.9987C56.1027 12.9987 54.108 14.9933 54.108 17.4459Z" fill="black"/>
</svg>
