<svg width="56" height="62" viewBox="0 0 56 62" fill="none" xmlns="http://www.w3.org/2000/svg">
<path d="M9.31344 47.0179L9.2802 46.9987L9.25303 47.0258C8.25563 48.0232 6.87489 48.6366 5.41823 48.6366C2.42758 48.6366 0.05 46.1826 0.05 43.2684C0.05 40.6616 1.96678 38.4379 4.57407 38.0545L4.61679 38.0482V38.005V23.5306V23.4889L4.57574 23.4814C2.04414 23.0211 0.127404 20.8737 0.127404 18.1898C0.127404 15.1991 2.58146 12.8215 5.49563 12.8215C7.18115 12.8215 8.63883 13.6643 9.63762 14.8168L9.66473 14.848L9.70052 14.8273L22.6269 7.31914L22.6651 7.2969L22.6477 7.25621C22.4178 6.71978 22.2647 6.10723 22.2647 5.41823C22.2647 2.42711 24.6418 0.05 27.633 0.05C30.6236 0.05 33.0012 2.50405 33.0012 5.41823C33.0012 6.02926 32.8484 6.64223 32.6173 7.25835L32.6025 7.29792L32.6391 7.31914L45.5654 14.8273L45.6038 14.8496L45.6305 14.814C46.5499 13.5882 48.0057 12.8215 49.6929 12.8215C52.6835 12.8215 55.0611 15.2756 55.0611 18.1898C55.0611 20.8737 53.1444 23.0211 50.6128 23.4814L50.5717 23.4889V23.5306V37.9276V37.9693L50.6128 37.9768C53.1439 38.437 55.0611 40.6615 55.0611 43.2684C55.0611 46.2591 52.6071 48.6366 49.6929 48.6366C48.1592 48.6366 46.8558 48.0235 45.8581 47.0258L45.8309 46.9987L45.7977 47.0179L32.5617 54.6808L32.5233 54.703L32.5408 54.7438C32.7707 55.2802 32.9238 55.8928 32.9238 56.5818C32.9238 59.5729 30.5467 61.95 27.5556 61.95C24.5649 61.95 22.1873 59.4959 22.1873 56.5818C22.1873 55.9707 22.3401 55.3578 22.5712 54.7416L22.586 54.702L22.5494 54.6808L9.31344 47.0179ZM23.4282 53.2193L23.4661 53.2412L23.4928 53.2065C24.2581 52.2117 25.4067 51.5987 26.6329 51.4454L26.6767 51.4399V51.3958V44.1973V44.1509L26.6305 44.1474C22.5436 43.839 18.8421 41.6025 16.6833 38.3643L16.6573 38.3253L16.6167 38.3487L10.5793 41.8318L10.5417 41.8535L10.5578 41.8937C10.7095 42.273 10.7865 42.808 10.7865 43.2684C10.7865 44.1106 10.5568 44.8776 10.2489 45.5702L10.2307 45.6113L10.2697 45.6338L23.4282 53.2193ZM31.6183 53.2065L31.6451 53.2413L31.683 53.2193L44.7642 45.6338L44.803 45.6112L44.7848 45.5702C44.4769 44.8776 44.2472 44.1106 44.2472 43.2684C44.2472 42.7318 44.3238 42.2727 44.4769 41.8136L44.4898 41.7748L44.4544 41.7544L38.417 38.2713L38.376 38.2476L38.3501 38.2873C36.1915 41.6023 32.5678 43.7615 28.4033 44.07L28.357 44.0734V44.1199V51.3183V51.3628L28.4011 51.368C29.703 51.5212 30.8521 52.2105 31.6183 53.2065ZM49.6948 39.5805V39.5805H49.6929C47.6528 39.5805 46.0049 41.2283 46.0049 43.2684C46.0049 45.3085 47.6528 46.9564 49.6929 46.9564C51.733 46.9564 53.3808 45.3085 53.3808 43.2684C53.3808 41.3047 51.7323 39.6589 49.6948 39.5805ZM48.8914 23.5306V23.4861L48.8473 23.4809C47.5454 23.3278 46.3963 22.6385 45.6301 21.6424L45.6035 21.6078L45.5656 21.6296L39.3733 25.1901L39.3317 25.214L39.3539 25.2566C40.2789 27.0294 40.7415 28.9565 40.7415 31.0387C40.7415 33.1197 40.202 35.0474 39.3531 36.8224L39.3332 36.8641L39.3732 36.8872L45.2558 40.293L45.2947 40.3154L45.3212 40.2793C46.166 39.1273 47.3934 38.2843 48.8492 38.0544L48.8914 38.0477V38.005V23.5306ZM31.7602 8.85803L31.7241 8.83724L31.6972 8.86908C30.8538 9.86583 29.7041 10.4788 28.4782 10.632L28.4344 10.6375V10.6816V17.8027V17.8491L28.4806 17.8526C32.567 18.161 36.1916 20.3971 38.4283 23.6364L38.4544 23.6743L38.4943 23.6513L44.6866 20.0908L44.7251 20.0686L44.7076 20.0277C44.4777 19.4913 44.3246 18.8788 44.3246 18.1898C44.3246 17.5787 44.4774 16.9658 44.7085 16.3496L44.7234 16.3099L44.6866 16.2887L31.7602 8.85803ZM10.4243 16.3663L10.386 16.3885L10.4035 16.4292C10.6332 16.9652 10.7865 17.5777 10.7865 18.3446C10.7865 18.9556 10.6337 19.5686 10.4026 20.1847L10.3877 20.2244L10.4245 20.2456L16.6168 23.8061L16.6578 23.8297L16.6836 23.7901C18.8422 20.4751 22.4659 18.3159 26.6304 18.0074L26.6767 18.004V17.9576V10.7591V10.7146L26.6326 10.7094C25.3307 10.5562 24.1816 9.86695 23.4154 8.87089L23.3886 8.83608L23.3507 8.85814L10.4243 16.3663ZM9.54552 21.6296L9.50762 21.6078L9.48097 21.6424C8.71451 22.6388 7.56516 23.3279 6.34086 23.481L6.29707 23.4864V23.5306V38.005V38.0477L6.33927 38.0544C7.79513 38.2843 9.02253 39.1273 9.8673 40.2793L9.89383 40.3154L9.93267 40.293L15.8153 36.8872L15.8567 36.8632L15.8346 36.8208C14.9096 35.048 14.447 33.1209 14.447 31.0387C14.447 28.9576 14.9865 27.0294 15.7587 25.2534L15.7765 25.2124L15.7378 25.1901L9.54552 21.6296ZM8.794 41.8593L8.7942 41.8593L8.79237 41.8551C8.24313 40.5997 6.98746 39.6579 5.41823 39.6579C3.37883 39.6579 1.73028 41.305 1.73028 43.2684C1.73028 45.3085 3.37813 46.9564 5.41823 46.9564C7.45832 46.9564 9.10618 45.3085 9.10618 43.2684C9.10618 42.7959 8.94922 42.325 8.79542 41.8636L8.794 41.8593ZM27.5556 19.6104C21.2583 19.6104 16.1273 24.7414 16.1273 31.0387C16.1273 37.336 21.2583 42.467 27.5556 42.467C33.8528 42.467 38.9838 37.336 38.9838 31.0387C38.9838 24.7414 33.8528 19.6104 27.5556 19.6104ZM23.8676 56.5818C23.8676 58.6219 25.5155 60.2697 27.5556 60.2697C29.5957 60.2697 31.2435 58.6219 31.2435 56.5818C31.2435 54.5417 29.5957 52.8938 27.5556 52.8938C25.5155 52.8938 23.8676 54.5417 23.8676 56.5818ZM53.3808 18.2672C53.3808 16.2271 51.733 14.5792 49.6929 14.5792C47.6528 14.5792 46.0049 16.2271 46.0049 18.2672C46.0049 20.3073 47.6528 21.9551 49.6929 21.9551C51.733 21.9551 53.3808 20.3073 53.3808 18.2672ZM31.2435 5.49563C31.2435 3.45553 29.5957 1.80768 27.5556 1.80768C25.5155 1.80768 23.8676 3.45553 23.8676 5.49563C23.8676 7.53573 25.5155 9.18358 27.5556 9.18358C29.5957 9.18358 31.2435 7.53573 31.2435 5.49563ZM5.41823 14.5792C3.37813 14.5792 1.73028 16.2271 1.73028 18.2672C1.73028 20.3073 3.37813 21.9551 5.41823 21.9551C7.45832 21.9551 9.10618 20.3073 9.10618 18.2672C9.10618 16.2271 7.45832 14.5792 5.41823 14.5792Z" fill="white" stroke="#E98862" stroke-width="0.1"/>
<path d="M31.2206 30.1872V30.2372H31.2706H32.0446C32.4814 30.2372 32.846 30.6019 32.846 31.0387V36.9213C32.846 37.3581 32.4814 37.7227 32.0446 37.7227H23.0658C22.552 37.7227 22.1849 37.3577 22.1096 36.9171V31.0387C22.1096 30.6019 22.4742 30.2372 22.911 30.2372H23.685H23.735V30.1872V28.1747C23.735 26.1125 25.4155 24.432 27.4778 24.432C29.5401 24.432 31.2206 26.1125 31.2206 28.1747V30.1872ZM25.4927 28.0973V28.1473H25.5427H25.5701V30.1098V30.1598H25.6201H29.5677H29.6177V30.1098V28.0973C29.6177 26.9861 28.6665 26.0349 27.5552 26.0349C26.4439 26.0349 25.4927 26.9861 25.4927 28.0973ZM23.9172 31.8401H23.8672V31.8901V35.9925V36.0425H23.9172H31.1932H31.2432V35.9925V31.8901V31.8401H31.1932H30.4191H24.6913H23.9172Z" fill="white" stroke="#E98862" stroke-width="0.1"/>
</svg>
