<svg width="55" height="38" viewBox="0 0 55 38" fill="none" xmlns="http://www.w3.org/2000/svg">
<path d="M35.8371 27.5927C46.388 28.2601 54 30.1597 54 32.3989C54 35.1945 42.1355 37.4607 27.5 37.4607C12.8645 37.4607 1 35.1945 1 32.3989C1 30.1178 8.8996 28.1891 19.7584 27.5565" stroke="black"/>
<path d="M27.7966 0.539368C20.9007 0.539368 15.291 6.14903 15.291 13.045C15.291 22.9363 26.8855 34.4236 27.3798 34.906C27.4929 35.0191 27.6478 35.0787 27.7966 35.0787C27.9455 35.0787 28.1003 35.0191 28.2135 34.906C28.7078 34.4236 40.3022 22.9363 40.3022 13.045C40.3022 6.14903 34.6926 0.539368 27.7966 0.539368ZM27.7966 33.6316C25.7064 31.464 16.482 21.4178 16.482 13.045C16.482 6.80409 21.5557 1.73038 27.7966 1.73038C34.0375 1.73038 39.1112 6.80409 39.1112 13.045C39.1112 21.4118 29.8869 31.464 27.7966 33.6316Z" fill="black"/>
<path d="M27.7967 6.49442C24.1819 6.49442 21.2461 9.43027 21.2461 13.045C21.2461 16.6597 24.1819 19.5955 27.7967 19.5955C31.4114 19.5955 34.3472 16.6597 34.3472 13.045C34.3472 9.43027 31.4114 6.49442 27.7967 6.49442ZM27.7967 18.4045C24.8429 18.4045 22.4371 15.9987 22.4371 13.045C22.4371 10.0913 24.8429 7.68543 27.7967 7.68543C30.7504 7.68543 33.1562 10.0913 33.1562 13.045C33.1562 15.9987 30.7504 18.4045 27.7967 18.4045Z" fill="black"/>
</svg>
