<svg width="64" height="60" viewBox="0 0 64 60" fill="none" xmlns="http://www.w3.org/2000/svg">
<path d="M59.611 60H3.68571C2.70874 59.9983 1.77227 59.6094 1.08145 58.9186C0.390618 58.2278 0.00174305 57.2913 0 56.3143V13.5165C0 13.3417 0.0694662 13.1739 0.193117 13.0503C0.316767 12.9266 0.484473 12.8572 0.659341 12.8572H62.6374C62.8122 12.8572 62.9799 12.9266 63.1036 13.0503C63.2272 13.1739 63.2967 13.3417 63.2967 13.5165V56.3143C63.295 57.2913 62.9061 58.2278 62.2153 58.9186C61.5244 59.6094 60.588 59.9983 59.611 60ZM1.31868 14.1759V56.3737C1.31868 57.0014 1.56806 57.6035 2.01197 58.0474C2.45587 58.4913 3.05794 58.7407 3.68571 58.7407H59.611C59.9269 58.7408 60.2396 58.6777 60.5307 58.555C60.8219 58.4324 61.0855 58.2527 61.3061 58.0266C61.5267 57.8004 61.6998 57.5324 61.8152 57.2384C61.9306 56.9443 61.9859 56.6301 61.978 56.3143V14.1759H1.31868Z" fill="black"/>
<path d="M62.6374 14.1758H0.659341C0.484473 14.1758 0.316767 14.1064 0.193117 13.9827C0.0694662 13.8591 0 13.6914 0 13.5165V3.68571C0.00174305 2.70874 0.390618 1.77227 1.08145 1.08145C1.77227 0.390618 2.70874 0.00174305 3.68571 0H59.611C60.588 0.00174305 61.5244 0.390618 62.2153 1.08145C62.9061 1.77227 63.295 2.70874 63.2967 3.68571V13.5165C63.2967 13.6914 63.2272 13.8591 63.1036 13.9827C62.9799 14.1064 62.8122 14.1758 62.6374 14.1758ZM1.31868 12.8571H61.978V3.68571C61.978 3.05794 61.7286 2.45587 61.2847 2.01197C60.8408 1.56806 60.2388 1.31868 59.611 1.31868H3.68571C3.05794 1.31868 2.45587 1.56806 2.01197 2.01197C1.56806 2.45587 1.31868 3.05794 1.31868 3.68571V12.8571Z" fill="black"/>
<path d="M7.42345 10.523C6.74143 10.523 6.07473 10.3208 5.50765 9.9419C4.94057 9.56299 4.49859 9.02443 4.23759 8.39432C3.97659 7.76422 3.9083 7.07087 4.04136 6.40196C4.17441 5.73304 4.50284 5.1186 4.9851 4.63634C5.46736 4.15408 6.0818 3.82566 6.75071 3.6926C7.41963 3.55955 8.11297 3.62784 8.74308 3.88883C9.37318 4.14983 9.91174 4.59182 10.2906 5.15889C10.6696 5.72597 10.8718 6.39268 10.8718 7.0747C10.8718 7.52754 10.7826 7.97595 10.6093 8.39432C10.436 8.8127 10.182 9.19284 9.8618 9.51305C9.54159 9.83326 9.16145 10.0873 8.74308 10.2606C8.3247 10.4339 7.8763 10.523 7.42345 10.523ZM7.42345 4.94503C7.00224 4.94503 6.59049 5.06993 6.24027 5.30394C5.89005 5.53795 5.61708 5.87056 5.45589 6.25971C5.2947 6.64885 5.25253 7.07706 5.3347 7.49017C5.41688 7.90329 5.61971 8.28276 5.91755 8.5806C6.21539 8.87844 6.59486 9.08127 7.00797 9.16344C7.42109 9.24562 7.84929 9.20344 8.23844 9.04225C8.62759 8.88106 8.9602 8.6081 9.19421 8.25788C9.42822 7.90766 9.55312 7.4959 9.55312 7.0747C9.55312 6.50987 9.32875 5.96818 8.92936 5.56879C8.52996 5.1694 7.98827 4.94503 7.42345 4.94503Z" fill="black"/>
<path d="M16.5499 10.523C15.8679 10.523 15.2012 10.3208 14.6341 9.9419C14.067 9.56299 13.6251 9.02443 13.3641 8.39432C13.1031 7.76422 13.0348 7.07087 13.1678 6.40196C13.3009 5.73304 13.6293 5.1186 14.1116 4.63634C14.5938 4.15408 15.2083 3.82566 15.8772 3.6926C16.5461 3.55955 17.2394 3.62784 17.8695 3.88883C18.4996 4.14983 19.0382 4.59182 19.4171 5.15889C19.796 5.72597 19.9983 6.39268 19.9983 7.0747C19.9983 7.52754 19.9091 7.97595 19.7358 8.39432C19.5625 8.8127 19.3085 9.19284 18.9883 9.51305C18.6681 9.83326 18.2879 10.0873 17.8695 10.2606C17.4512 10.4339 17.0028 10.523 16.5499 10.523ZM16.5499 4.94503C16.1287 4.94503 15.717 5.06993 15.3667 5.30394C15.0165 5.53795 14.7435 5.87056 14.5824 6.25971C14.4212 6.64885 14.379 7.07706 14.4612 7.49017C14.5433 7.90329 14.7462 8.28276 15.044 8.5806C15.3419 8.87844 15.7213 9.08127 16.1344 9.16344C16.5476 9.24562 16.9758 9.20344 17.3649 9.04225C17.7541 8.88106 18.0867 8.6081 18.3207 8.25788C18.5547 7.90766 18.6796 7.4959 18.6796 7.0747C18.6796 6.50987 18.4552 5.96818 18.0558 5.56879C17.6564 5.1694 17.1147 4.94503 16.5499 4.94503Z" fill="black"/>
<path d="M25.714 10.523C25.032 10.523 24.3653 10.3208 23.7982 9.9419C23.2311 9.56299 22.7891 9.02443 22.5281 8.39432C22.2671 7.76422 22.1988 7.07087 22.3319 6.40196C22.4649 5.73304 22.7934 5.1186 23.2756 4.63634C23.7579 4.15408 24.3723 3.82566 25.0412 3.6926C25.7102 3.55955 26.4035 3.62784 27.0336 3.88883C27.6637 4.14983 28.2023 4.59182 28.5812 5.15889C28.9601 5.72597 29.1623 6.39268 29.1623 7.0747C29.1606 7.98872 28.7967 8.86481 28.1504 9.51112C27.5041 10.1574 26.628 10.5213 25.714 10.523ZM25.714 4.94503C25.2928 4.94503 24.881 5.06993 24.5308 5.30394C24.1806 5.53795 23.9076 5.87056 23.7464 6.25971C23.5852 6.64885 23.5431 7.07706 23.6252 7.49017C23.7074 7.90329 23.9102 8.28276 24.2081 8.5806C24.5059 8.87844 24.8854 9.08127 25.2985 9.16344C25.7116 9.24562 26.1398 9.20344 26.529 9.04225C26.9181 8.88106 27.2507 8.6081 27.4847 8.25788C27.7187 7.90766 27.8436 7.4959 27.8436 7.0747C27.8419 6.51041 27.617 5.96973 27.218 5.57071C26.8189 5.1717 26.2783 4.94676 25.714 4.94503Z" fill="black"/>
<path d="M57.1587 7.73403H36.8048C36.63 7.73403 36.4623 7.66456 36.3386 7.54091C36.215 7.41726 36.1455 7.24955 36.1455 7.07468C36.1455 6.89982 36.215 6.73211 36.3386 6.60846C36.4623 6.48481 36.63 6.41534 36.8048 6.41534H57.1587C57.3336 6.41534 57.5013 6.48481 57.6249 6.60846C57.7486 6.73211 57.818 6.89982 57.818 7.07468C57.818 7.24955 57.7486 7.41726 57.6249 7.54091C57.5013 7.66456 57.3336 7.73403 57.1587 7.73403Z" fill="black"/>
<path d="M47.4733 41.4923C47.4229 41.4988 47.372 41.4988 47.3216 41.4923C47.2339 41.4746 47.1507 41.4391 47.0771 41.3882C47.0035 41.3372 46.941 41.2718 46.8935 41.1959C46.846 41.1201 46.8144 41.0353 46.8008 40.9468C46.7871 40.8584 46.7916 40.768 46.8139 40.6813C47.3393 38.4119 47.3953 36.059 46.9782 33.7672C46.5612 31.4754 45.6801 29.293 44.3889 27.3541C43.0978 25.4152 41.4239 23.7607 39.47 22.4923C37.5162 21.2239 35.3237 20.3683 33.0271 19.9781C32.855 19.949 32.7014 19.8528 32.6 19.7107C32.4987 19.5686 32.4578 19.392 32.4865 19.2198C32.5155 19.0477 32.6117 18.8941 32.7538 18.7927C32.896 18.6914 33.0725 18.6505 33.2447 18.6792C35.7171 19.1022 38.0771 20.0258 40.1798 21.3935C42.2825 22.7611 44.0837 24.5439 45.4728 26.6325C46.8619 28.7211 47.8096 31.0715 48.258 33.5394C48.7063 36.0074 48.6457 38.5409 48.0799 40.9846C48.0473 41.1235 47.9705 41.248 47.8612 41.3396C47.7518 41.4311 47.6157 41.4847 47.4733 41.4923Z" fill="black"/>
<path d="M12.8761 41.4923C12.7246 41.4964 12.5763 41.4481 12.4562 41.3556C12.3362 41.2632 12.2516 41.1322 12.2168 40.9846C11.651 38.5409 11.5904 36.0074 12.0387 33.5394C12.487 31.0715 13.4348 28.7211 14.8239 26.6325C16.213 24.5439 18.0142 22.7611 20.1169 21.3935C22.2196 20.0258 24.5795 19.1022 27.052 18.6792C27.2242 18.6505 27.4007 18.6914 27.5428 18.7927C27.685 18.8941 27.7811 19.0477 27.8102 19.2198C27.8388 19.392 27.798 19.5686 27.6966 19.7107C27.5953 19.8528 27.4417 19.949 27.2695 19.9781C24.9765 20.373 22.7883 21.232 20.839 22.5025C18.8897 23.773 17.2203 25.4281 15.9332 27.3664C14.6462 29.3048 13.7684 31.4856 13.3538 33.7751C12.9393 36.0647 12.9966 38.4147 13.5223 40.6813C13.5418 40.7658 13.5445 40.8532 13.5302 40.9387C13.516 41.0242 13.485 41.106 13.439 41.1795C13.3931 41.2529 13.3331 41.3167 13.2626 41.3669C13.192 41.4172 13.1122 41.4531 13.0278 41.4726C12.9783 41.4856 12.9273 41.4922 12.8761 41.4923Z" fill="black"/>
<path d="M30.1584 55.2132C27.0582 55.2203 24.0069 54.4407 21.2901 52.9474C18.5733 51.4541 16.2798 49.2958 14.6243 46.6747C14.578 46.6015 14.5465 46.52 14.5317 46.4346C14.5169 46.3493 14.519 46.2619 14.538 46.1774C14.557 46.0929 14.5924 46.013 14.6423 45.9422C14.6922 45.8714 14.7555 45.8111 14.8287 45.7648C14.9018 45.7185 14.9834 45.687 15.0687 45.6722C15.1541 45.6574 15.2415 45.6595 15.326 45.6785C15.4105 45.6975 15.4904 45.7329 15.5612 45.7828C15.632 45.8327 15.6923 45.896 15.7386 45.9692C17.2808 48.3969 19.4111 50.3959 21.9318 51.7809C24.4526 53.166 27.2822 53.8921 30.1584 53.8921C33.0345 53.8921 35.8641 53.166 38.3849 51.7809C40.9056 50.3959 43.0359 48.3969 44.5781 45.9692C44.6245 45.8951 44.685 45.831 44.7564 45.7805C44.8277 45.7301 44.9083 45.6943 44.9936 45.6753C45.0789 45.6563 45.1671 45.6544 45.2531 45.6698C45.3391 45.6851 45.4212 45.7174 45.4946 45.7648C45.6413 45.8594 45.7445 46.0083 45.7816 46.1789C45.8187 46.3494 45.7866 46.5277 45.6924 46.6747C44.0378 49.2967 41.7445 51.4556 39.0275 52.949C36.3105 54.4425 33.2588 55.2215 30.1584 55.2132Z" fill="black"/>
<path d="M24.8625 23.7231C24.7362 23.7228 24.6126 23.6861 24.5065 23.6176C24.4333 23.5713 24.37 23.511 24.3201 23.4402C24.2702 23.3694 24.2348 23.2895 24.2158 23.205C24.1968 23.1205 24.1947 23.0331 24.2095 22.9478C24.2243 22.8624 24.2557 22.7809 24.3021 22.7077L26.3197 19.5363L23.1416 17.5253C23.0685 17.479 23.0051 17.4187 22.9553 17.3479C22.9054 17.2771 22.87 17.1972 22.851 17.1127C22.832 17.0282 22.8299 16.9408 22.8447 16.8555C22.8595 16.7701 22.8909 16.6886 22.9372 16.6154C22.9836 16.5422 23.0438 16.4789 23.1146 16.429C23.1854 16.3792 23.2654 16.3437 23.3499 16.3247C23.4343 16.3058 23.5217 16.3036 23.6071 16.3184C23.6924 16.3332 23.774 16.3647 23.8471 16.411L27.579 18.7912C27.7258 18.884 27.83 19.0309 27.8691 19.2C27.8887 19.285 27.8912 19.3731 27.8765 19.4591C27.8618 19.5452 27.8301 19.6274 27.7834 19.7011L25.4164 23.4066C25.3584 23.5019 25.2771 23.5809 25.1803 23.6363C25.0834 23.6916 24.9741 23.7215 24.8625 23.7231Z" fill="black"/>
<path d="M47.3193 41.4923C47.2689 41.4987 47.218 41.4987 47.1676 41.4923C46.9985 41.4532 46.8516 41.349 46.7588 41.2022L44.5698 37.6418C44.5142 37.4961 44.5119 37.3355 44.5634 37.1884C44.615 37.0412 44.717 36.9171 44.8514 36.838C44.9858 36.759 45.1438 36.7301 45.2975 36.7566C45.4512 36.783 45.5905 36.863 45.6907 36.9824L47.5369 39.9693L50.5303 38.1231C50.6774 38.0625 50.8415 38.0571 50.9923 38.1079C51.1431 38.1588 51.2704 38.2625 51.3507 38.3998C51.431 38.5372 51.459 38.699 51.4294 38.8554C51.3998 39.0117 51.3146 39.1521 51.1896 39.2506L47.6687 41.3934C47.5638 41.4585 47.4427 41.4927 47.3193 41.4923Z" fill="black"/>
<path d="M14.2155 51.0462H14.0638C13.8945 51.0055 13.7481 50.8994 13.6567 50.7512C13.5653 50.6029 13.5363 50.4246 13.5759 50.255L14.5386 46.1868C14.5587 46.1023 14.5953 46.0225 14.6463 45.9522C14.6974 45.8819 14.7618 45.8223 14.836 45.777C14.9101 45.7316 14.9925 45.7014 15.0784 45.688C15.1643 45.6746 15.2519 45.6783 15.3364 45.6989L19.3979 46.6682C19.4962 46.6687 19.5931 46.6912 19.6816 46.734C19.7701 46.7769 19.8479 46.839 19.9093 46.9157C19.9707 46.9925 20.0141 47.0821 20.0364 47.1778C20.0588 47.2736 20.0594 47.3731 20.0383 47.4691C20.0172 47.5651 19.9748 47.6552 19.9144 47.7327C19.854 47.8103 19.777 47.8733 19.6891 47.9173C19.6011 47.9612 19.5045 47.985 19.4062 47.9867C19.3079 47.9885 19.2104 47.9683 19.121 47.9275L15.6726 47.1429L14.8616 50.5649C14.8223 50.7052 14.7375 50.8286 14.6206 50.9157C14.5037 51.0028 14.3612 51.0487 14.2155 51.0462Z" fill="black"/>
<path d="M30.4099 49.2198C29.6622 49.2241 28.9158 49.1557 28.1813 49.0154C28.0479 48.9892 27.9259 48.9224 27.8319 48.8242C27.7312 48.7223 27.6663 48.5904 27.6473 48.4484L27.3901 46.7736C26.7859 46.5854 26.2009 46.3404 25.6429 46.0418L24.2715 47.044C24.1592 47.125 24.0242 47.1686 23.8857 47.1686C23.7473 47.1686 23.6123 47.125 23.5 47.044C22.6071 46.4309 21.7999 45.7014 21.1 44.8747C20.8419 44.5688 20.5999 44.2497 20.3747 43.9187C20.3087 43.8232 20.269 43.7119 20.2597 43.5961C20.2505 43.4803 20.2719 43.3642 20.322 43.2594C20.3444 43.2131 20.3709 43.169 20.4011 43.1275L21.4165 41.7561C21.3044 41.5583 21.2055 41.3539 21.1066 41.1495C20.9352 40.7539 20.8033 40.3846 20.6846 40.0154L19.0033 39.7517C18.8643 39.7344 18.7345 39.6733 18.6325 39.5773C18.5306 39.4813 18.4618 39.3553 18.4363 39.2176C18.1638 37.7422 18.1638 36.2293 18.4363 34.7539C18.4629 34.6132 18.5345 34.485 18.6404 34.3887C18.7462 34.2923 18.8806 34.233 19.0231 34.2198L20.6451 33.9561C20.8301 33.3517 21.0729 32.7665 21.3704 32.2088L20.3682 30.8374C20.3174 30.7735 20.2814 30.6992 20.2627 30.6198C20.2537 30.5542 20.2537 30.4876 20.2627 30.422C20.261 30.2882 20.3001 30.1572 20.3747 30.0462C21.219 28.814 22.2829 27.7479 23.5132 26.9011C23.6195 26.8329 23.743 26.7967 23.8693 26.7967C23.9955 26.7967 24.1191 26.8329 24.2253 26.9011C24.2561 26.9148 24.2849 26.9325 24.311 26.9539L25.6758 27.9495C26.2354 27.6541 26.8201 27.4092 27.4231 27.2176L27.6802 25.5495C27.6979 25.4096 27.7599 25.279 27.8572 25.1769C27.9545 25.0749 28.082 25.0067 28.2209 24.9824C29.6937 24.7055 31.2052 24.7055 32.678 24.9824C32.8145 25.0121 32.9389 25.082 33.0353 25.1831C33.1317 25.2841 33.1955 25.4117 33.2187 25.5495L33.4758 27.2242C34.0759 27.4154 34.6582 27.658 35.2165 27.9495L36.5879 26.9539H36.6209C36.7313 26.8773 36.8624 26.8363 36.9967 26.8363C37.1311 26.8363 37.2622 26.8773 37.3725 26.9539C38.6051 27.8029 39.6711 28.8712 40.5176 30.1055C40.5831 30.2103 40.6178 30.3314 40.6178 30.455C40.6178 30.5785 40.5831 30.6996 40.5176 30.8044L40.4649 30.8901L39.4627 32.2615C39.7574 32.8014 39.9981 33.3689 40.1813 33.9561L41.8561 34.2066C42.0321 34.2384 42.1911 34.3319 42.3044 34.4703C42.3658 34.5524 42.4086 34.647 42.4297 34.7473C42.5644 35.4824 42.6306 36.2285 42.6275 36.9758C42.6304 37.7317 42.5664 38.4862 42.4363 39.2308C42.4136 39.362 42.3516 39.4832 42.2586 39.5786C42.1657 39.6739 42.046 39.7388 41.9154 39.7648H41.8561L40.1813 40.0286C40.0661 40.4091 39.9251 40.7814 39.7594 41.1429C39.6737 41.3407 39.5747 41.5451 39.4495 41.8022L40.4253 43.1209C40.5276 43.2309 40.5893 43.3726 40.6001 43.5225C40.6109 43.6724 40.5702 43.8215 40.4846 43.9451C40.2427 44.3025 39.9808 44.6459 39.7 44.9736C39.0069 45.7752 38.2136 46.4844 37.3396 47.0835C37.2267 47.166 37.0904 47.2105 36.9506 47.2105C36.8107 47.2105 36.6745 47.166 36.5616 47.0835L35.1901 46.0813C34.6321 46.3799 34.0471 46.625 33.4429 46.8132L33.1857 48.4615C33.1565 48.6351 33.0651 48.7921 32.9286 48.9033C32.8448 48.9702 32.7446 49.0135 32.6385 49.0286C31.9026 49.1569 31.1569 49.2209 30.4099 49.2198ZM28.8802 47.8022C29.8995 47.9439 30.9335 47.9439 31.9528 47.8022L32.2033 46.1736C32.2221 46.0464 32.2776 45.9274 32.3631 45.8314C32.4487 45.7353 32.5604 45.6663 32.6846 45.633C33.4772 45.4211 34.2378 45.104 34.9462 44.6901C35.0569 44.6264 35.1838 44.5962 35.3114 44.6032C35.439 44.6102 35.5618 44.6542 35.6649 44.7297L36.9835 45.7121C37.6174 45.2344 38.1986 44.6907 38.7176 44.0901C38.8561 43.9319 38.9879 43.7605 39.1396 43.5561L38.1506 42.2374C38.0737 42.1336 38.0289 42.0096 38.0219 41.8807C38.0149 41.7517 38.0459 41.6236 38.111 41.5121C38.2801 41.2314 38.432 40.9408 38.566 40.6418C38.7612 40.2185 38.9136 39.7767 39.0209 39.3231C39.0497 39.194 39.1167 39.0766 39.2131 38.986C39.3095 38.8955 39.4309 38.836 39.5616 38.8154L41.2231 38.5583C41.2897 38.0511 41.3227 37.5401 41.322 37.0286C41.3234 36.5171 41.2904 36.006 41.2231 35.4989L39.5616 35.222C39.4326 35.2023 39.3125 35.1448 39.2162 35.0568C39.12 34.9687 39.052 34.8541 39.0209 34.7275C38.8282 33.9545 38.5215 33.2146 38.111 32.5319C38.0387 32.4235 38.0001 32.2962 38.0001 32.1659C38.0001 32.0357 38.0387 31.9084 38.111 31.8L39.0934 30.4813C38.4808 29.66 37.7549 28.9297 36.9374 28.3121L35.6187 29.2879C35.5163 29.3621 35.3947 29.4053 35.2685 29.4123C35.1422 29.4193 35.0166 29.3899 34.9066 29.3275C34.208 28.9255 33.4614 28.6131 32.6846 28.3978C32.5613 28.3649 32.4502 28.297 32.3648 28.2022C32.2793 28.1074 32.2233 27.9898 32.2033 27.8637L31.9528 26.2286C30.9337 26.0835 29.8993 26.0835 28.8802 26.2286L28.6297 27.8637C28.6098 27.9898 28.5537 28.1074 28.4682 28.2022C28.3828 28.297 28.2717 28.3649 28.1484 28.3978C27.3686 28.6105 26.6195 28.923 25.9198 29.3275C25.8091 29.3912 25.6822 29.4214 25.5546 29.4144C25.427 29.4074 25.3042 29.3634 25.2011 29.2879L23.8824 28.3055C23.0628 28.9229 22.3347 29.6532 21.7198 30.4747L22.7088 31.7934C22.7861 31.8985 22.8304 32.0241 22.8363 32.1544C22.8422 32.2846 22.8093 32.4137 22.7418 32.5253C22.3295 33.2102 22.0207 33.9523 21.8253 34.7275C21.7931 34.8529 21.7246 34.9661 21.6284 35.0529C21.5323 35.1396 21.4127 35.1962 21.2846 35.2154L19.6495 35.4594C19.5002 36.4759 19.5002 37.5088 19.6495 38.5253L21.2978 38.7824C21.4247 38.8029 21.5429 38.8599 21.6377 38.9466C21.7326 39.0333 21.8001 39.1458 21.8319 39.2703C21.9492 39.7218 22.1036 40.1629 22.2934 40.589C22.4253 40.8659 22.5835 41.1692 22.755 41.4659C22.8201 41.5774 22.8511 41.7056 22.8441 41.8345C22.837 41.9635 22.7923 42.0875 22.7154 42.1912L21.7198 43.5099L22.089 43.978C22.6168 44.6103 23.2165 45.179 23.8758 45.6725L25.1945 44.6835C25.2976 44.608 25.4204 44.5641 25.548 44.557C25.6756 44.55 25.8025 44.5802 25.9132 44.644C26.6114 45.0517 27.3608 45.3644 28.1418 45.5736C28.266 45.607 28.3777 45.6759 28.4633 45.772C28.5488 45.8681 28.6043 45.9871 28.6231 46.1143L28.8802 47.8022Z" fill="black"/>
<path d="M30.4153 42.8835C29.2507 42.8835 28.1124 42.5382 27.1441 41.8912C26.1758 41.2442 25.4212 40.3247 24.9755 39.2488C24.5299 38.1729 24.4133 36.989 24.6405 35.8469C24.8677 34.7048 25.4284 33.6556 26.2519 32.8322C27.0753 32.0088 28.1244 31.448 29.2666 31.2208C30.4087 30.9936 31.5926 31.1102 32.6685 31.5559C33.7443 32.0015 34.6639 32.7562 35.3109 33.7244C35.9579 34.6927 36.3032 35.8311 36.3032 36.9956C36.2997 38.5561 35.6782 40.0517 34.5748 41.1551C33.4714 42.2586 31.9758 42.88 30.4153 42.8835ZM30.4153 32.4329C29.5113 32.4329 28.6276 32.7011 27.876 33.2035C27.1245 33.7058 26.5389 34.4198 26.1932 35.2551C25.8476 36.0904 25.7575 37.0095 25.9343 37.896C26.1112 38.7825 26.547 39.5967 27.1867 40.2354C27.8263 40.8742 28.6411 41.3089 29.5279 41.4844C30.4147 41.66 31.3336 41.5685 32.1684 41.2217C33.0032 40.8748 33.7164 40.2882 34.2176 39.5359C34.7189 38.7836 34.9858 37.8996 34.9845 36.9956C34.9827 35.7849 34.5006 34.6244 33.6439 33.7689C32.7872 32.9134 31.626 32.4329 30.4153 32.4329Z" fill="black"/>
</svg>
