<svg width="32" height="46" viewBox="0 0 32 46" fill="none" xmlns="http://www.w3.org/2000/svg">
<path d="M15.9941 25.8661C18.6124 25.8661 21.1235 24.8261 22.9748 22.9747C24.8261 21.123 25.8662 18.612 25.8662 15.994C25.8662 13.3757 24.8262 10.8645 22.9748 9.01324C21.1235 7.16193 18.6124 6.12181 15.9941 6.12181C13.3757 6.12181 10.8646 7.16184 9.01332 9.01324C7.16202 10.8645 6.1219 13.3757 6.1219 15.994C6.12582 18.6109 7.16731 21.1195 9.01788 22.9701C10.8681 24.8206 13.3771 25.8618 15.9941 25.8661ZM15.9941 7.39963C18.2734 7.39963 20.4595 8.30497 22.0715 9.91676C23.6833 11.5285 24.5887 13.7145 24.5887 15.9942C24.5887 18.2736 23.6833 20.4597 22.0715 22.0715C20.4594 23.6832 18.2734 24.589 15.9941 24.589C13.7147 24.589 11.5286 23.6833 9.91657 22.0715C8.30479 20.4597 7.39944 18.2737 7.39944 15.9942C7.40194 13.7155 8.30834 11.531 9.91976 9.91959C11.5308 8.30854 13.7154 7.4021 15.9941 7.39963ZM3.01513 23.2401C3.01727 24.3104 3.31809 25.3584 3.88304 26.2673C4.44798 27.1762 5.25493 27.9097 6.21375 28.3852L1.10394 41.282C1.01127 41.5183 1.06758 41.7874 1.24687 41.9671C1.42224 42.1499 1.69098 42.2084 1.92658 42.115L8.05827 39.749L10.8841 45.6358C10.9907 45.8579 11.2152 45.999 11.4615 45.9987C11.7156 45.9898 11.9406 45.8315 12.0339 45.5948L15.9939 35.6718L19.9132 45.5948C20.0066 45.8315 20.2311 45.9898 20.4852 45.9987C20.7462 46.0154 20.9914 45.8718 21.1037 45.6358L23.9497 39.734L30.0814 42.1C30.317 42.1934 30.5858 42.1346 30.7611 41.9517C30.9408 41.7721 30.9967 41.5033 30.9041 41.267L25.7942 28.3702C26.7491 27.8919 27.5522 27.1569 28.1136 26.248C28.6746 25.3395 28.9722 24.2926 28.9726 23.2244C28.9747 22.035 29.453 20.8955 30.3013 20.0614C31.3809 18.9832 31.9875 17.52 31.9875 15.9942C31.9875 14.4683 31.3809 13.0048 30.3013 11.9266C29.4605 11.0893 28.9896 9.95018 28.9932 8.76361C28.9903 7.23632 28.3812 5.77281 27.2991 4.69455C26.2174 3.61674 24.7513 3.01251 23.224 3.01506C22.0446 3.01328 20.914 2.54279 20.0817 1.70695C19.0017 0.61482 17.5296 0 15.9937 0C14.4579 0 12.9858 0.614848 11.9058 1.70695C11.0685 2.54777 9.92937 3.01862 8.7428 3.01506C7.22263 3.02326 5.76734 3.63205 4.69409 4.70915C3.62122 5.78595 3.01744 7.24334 3.01497 8.76361C3.01284 9.95337 2.53451 11.0925 1.68624 11.9266C0.606609 13.0048 0 14.4683 0 15.9942C0 17.5201 0.606645 18.9832 1.68624 20.0614C2.53455 20.8955 3.01288 22.035 3.01497 23.2244L3.01513 23.2401ZM11.4205 43.7706L8.95255 38.6607C8.81104 38.3567 8.45711 38.2156 8.14523 38.3389L2.84115 40.3826L7.4398 28.8043C7.8807 28.9148 8.33409 28.9715 8.78887 28.9729C9.95975 28.9815 11.0796 29.4516 11.9059 30.2811C12.6144 30.9864 13.4952 31.4936 14.4608 31.7528L15.3244 33.9295L11.4205 43.7706ZM29.147 40.3827L23.8429 38.3389C23.5325 38.2149 23.1789 38.3535 23.0356 38.6558L20.5929 43.7706L15.9023 31.9624H15.9942C17.528 31.9724 19.0015 31.3647 20.0822 30.2762C20.9195 29.4353 22.0586 28.9645 23.2452 28.968C23.7 28.9666 24.153 28.9099 24.5939 28.7994L29.147 40.3827ZM2.60698 12.8307C3.69556 11.75 4.30326 10.2766 4.29322 8.74278C4.29572 7.55767 4.76763 6.42202 5.60562 5.5841C6.44359 4.74612 7.5792 4.27425 8.76431 4.2717C10.2981 4.28168 11.7712 3.67396 12.8519 2.58546C13.6913 1.74748 14.829 1.27662 16.0149 1.27662C17.2011 1.27662 18.3388 1.74747 19.1778 2.58546C20.2586 3.67403 21.732 4.28173 23.2658 4.2717C24.4509 4.27419 25.5865 4.74611 26.4245 5.5841C27.2624 6.42207 27.7343 7.55767 27.7369 8.74278C27.7269 10.2766 28.3346 11.75 29.4231 12.8307C30.2611 13.6698 30.732 14.8075 30.732 15.9937C30.732 17.1795 30.2611 18.3173 29.4231 19.1567C28.3335 20.2367 27.7257 21.7105 27.7369 23.2443C27.7344 24.4294 27.2625 25.565 26.4245 26.4029C25.5865 27.2409 24.4509 27.7128 23.2658 27.7153C21.7317 27.7043 20.2578 28.3124 19.1778 29.4016C18.3388 30.2399 17.2011 30.7104 16.0149 30.7104C14.829 30.7104 13.6913 30.2399 12.8519 29.4016C11.7719 28.3123 10.2984 27.7042 8.76431 27.7153C7.5792 27.7128 6.44354 27.2409 5.60562 26.4029C4.76765 25.565 4.29578 24.4294 4.29322 23.2443C4.30427 21.7105 3.69619 20.2367 2.60698 19.1567C1.76865 18.3173 1.29814 17.1795 1.29814 15.9937C1.29814 14.8075 1.76863 13.6697 2.60698 12.8307ZM11.738 20.8737C11.6981 21.1143 11.7969 21.3573 11.9936 21.5021C12.1918 21.6436 12.4527 21.6614 12.668 21.548L15.9946 19.8005L19.3211 21.548C19.412 21.5979 19.5136 21.624 19.6173 21.6247C19.7531 21.6247 19.8857 21.5819 19.9955 21.5021C20.1922 21.3573 20.291 21.1143 20.2511 20.8737L19.6123 17.1689L22.3052 14.5476C22.4777 14.3772 22.5405 14.1249 22.4688 13.8936C22.3943 13.6637 22.1965 13.4954 21.9577 13.4591L18.2376 12.9173L16.5716 9.54473C16.4639 9.32695 16.2422 9.18972 15.9995 9.18972C15.7568 9.18972 15.5351 9.32731 15.4274 9.54509L13.7615 12.9177L10.0413 13.4594C9.80251 13.4958 9.60505 13.6637 9.53055 13.8936C9.45856 14.1249 9.52164 14.3772 9.69416 14.5476L12.387 17.1689L11.738 20.8737ZM11.5032 14.5374L14.2727 14.1336C14.4812 14.1026 14.6608 13.9707 14.7528 13.7811L15.9946 11.2568L17.2363 13.7657C17.3283 13.9553 17.5079 14.0872 17.7164 14.1182L20.486 14.5221L18.4828 16.4739C18.3306 16.6208 18.2622 16.8332 18.2993 17.0414L18.7694 19.8005L16.2908 18.5127C16.1051 18.4172 15.8841 18.4172 15.6984 18.5127L13.2201 19.8158L13.6903 17.0567C13.7273 16.8486 13.6582 16.6361 13.506 16.4893L11.5032 14.5374Z" fill="#FF4500"/>
</svg>
