<svg width="40" height="36" viewBox="0 0 40 36" fill="none" xmlns="http://www.w3.org/2000/svg">
<path d="M24.1093 34.8309C26.3015 35.659 28.25 36 29.9551 36C36.1905 36 39.1134 31.5183 39.1134 31.4696C39.6005 30.4465 39.6979 26.9391 39.7467 26.5494C39.7467 26.3545 39.6492 26.1597 39.4544 26.111L30.0525 21.5805C29.8576 21.4831 29.6628 21.5318 29.5166 21.6292C27.5193 23.3342 25.8143 25.8187 25.2297 26.7442C15.7304 23.5291 11.9794 16.1732 11.2487 14.5656C13.7818 12.4709 14.5613 10.1326 14.61 10.0352C14.6587 9.93775 14.6587 9.79161 14.61 9.69418L10.5667 0.292287C10.4693 0.0974287 10.3231 0 10.0795 0L5.69524 0.146143C5.59781 0.146143 5.5491 0.194858 5.45167 0.243572C0.0443625 3.60487 0.67765 10.1813 0.726365 10.4736C0.726365 10.5223 0.726365 10.571 0.726365 10.571C1.79808 13.6888 3.16209 17.2449 5.01324 20.1191C12.4666 31.6157 23.4273 34.636 24.1093 34.8309ZM5.8901 1.07172L9.78726 0.925575L13.6357 9.84032C13.3921 10.4249 12.5153 12.3248 10.3718 13.9811C10.2257 14.1272 10.1283 14.3221 10.2257 14.5169C10.3718 14.9066 13.928 24.0162 25.3272 27.7185C25.522 27.7673 25.7656 27.7185 25.9118 27.5237C25.9118 27.475 27.7142 24.5521 29.9551 22.5548L38.8211 26.8417C38.7724 28.3031 38.5775 30.4466 38.3339 31.0311C38.2852 31.0798 33.9496 37.5101 24.499 33.8566H24.4503C24.3529 33.8078 13.3921 31.0798 5.93881 19.5832C4.13638 16.8065 2.82109 13.3478 1.79808 10.2788C1.60323 9.69418 1.35965 4.0433 5.8901 1.07172Z" fill="black"/>
<path d="M10.1273 10.8633C10.2247 10.9608 10.3222 11.0095 10.4683 11.0095C10.6145 11.0095 10.7119 10.9608 10.8093 10.8633C11.0042 10.6685 11.0042 10.3762 10.8093 10.1813C8.66588 8.0866 7.20444 3.3613 7.20444 3.31258C7.10701 3.06901 6.86344 2.92287 6.61987 2.97158C6.37629 3.06901 6.23015 3.31258 6.27887 3.55616C6.32758 3.79973 7.78901 8.57375 10.1273 10.8633Z" fill="black"/>
<path d="M35.7997 30.3004C35.8484 30.3004 35.8971 30.3004 35.9458 30.3004C36.1407 30.3004 36.3355 30.1543 36.4329 29.9594C36.5304 29.7158 36.3842 29.4235 36.0919 29.3748C31.7564 28.1083 29.7103 26.3545 29.7103 26.3058C29.5155 26.111 29.2232 26.1597 29.0283 26.3545C28.8335 26.5494 28.8822 26.8417 29.0771 27.0365C29.1258 27.0852 31.2692 28.9364 35.7997 30.3004Z" fill="black"/>
<path d="M22.2092 10.2144C22.1629 10.1993 22.1165 10.1842 22.0702 10.1692C21.8849 10.1089 21.6544 10.1877 21.5015 10.3428C21.3335 10.5443 21.3821 10.8675 21.645 11.0042C25.3765 13.5493 26.78 15.8497 26.765 15.896C26.89 16.1416 27.1831 16.1856 27.4286 16.0606C27.6742 15.9355 27.7182 15.6425 27.5932 15.3969C27.5619 15.3355 26.0959 12.9123 22.2092 10.2144Z" fill="black"/>
<path d="M21.3786 12.6033C21.3466 12.5928 21.3146 12.5824 21.2826 12.572C21.1546 12.5304 20.9953 12.5848 20.8897 12.692C20.7736 12.8312 20.8072 13.0545 20.9888 13.149C23.5669 14.9074 24.5366 16.4967 24.5262 16.5287C24.6126 16.6984 24.815 16.7288 24.9847 16.6424C25.1544 16.556 25.1848 16.3536 25.0984 16.1839C25.0768 16.1415 24.0639 14.4673 21.3786 12.6033Z" fill="black"/>
<path d="M20.9682 15.2027C20.9547 15.1983 20.9413 15.194 20.9278 15.1896C20.8741 15.1721 20.8072 15.1949 20.7629 15.24C20.7141 15.2984 20.7282 15.3922 20.8045 15.4318C21.887 16.1701 22.2941 16.8374 22.2897 16.8509C22.326 16.9221 22.411 16.9349 22.4823 16.8986C22.5535 16.8623 22.5663 16.7773 22.53 16.7061C22.5209 16.6883 22.0956 15.9853 20.9682 15.2027Z" fill="black"/>
</svg>
