<svg width="31" height="31" viewBox="0 0 31 31" fill="none" xmlns="http://www.w3.org/2000/svg">
<path fill-rule="evenodd" clip-rule="evenodd" d="M15.4837 31C24.0531 31 31 24.0604 31 15.5C31 6.93959 24.0531 0 15.4837 0C9.46821 0 4.25223 3.41958 1.67752 8.41895C1.16904 9.40627 0.557742 11.6391 0.753738 13.0423C1.01643 16.5672 3.50726 18.5018 6.65226 17.8922C8.1289 17.606 9.22615 16.9735 10.2352 16.3919C10.7218 16.1115 11.1878 15.8428 11.666 15.6305C13.5231 14.806 16.5691 14.9182 16.6797 17.3351C16.776 19.4396 15.3351 20.6914 13.2575 21.546C10.3332 22.7489 7.25062 22.4335 4.81035 20.3103C3.29293 18.9901 2.23607 17.6085 1.16885 15.904C0.800772 15.3161 0 15.4685 0 16.0345C0 24.5949 6.91427 31 15.4837 31ZM18.4041 4.64284C21.3124 4.0456 24.1168 5.43267 25.1555 6.20086C19.9296 0.390742 12.7562 1.72155 10.2894 2.59794C7.82249 3.47433 5.64776 5.51923 6.19955 7.20709C6.75135 8.89494 9.38052 8.57035 11.1657 7.4343C12.951 6.29824 14.7687 5.38939 18.4041 4.64284ZM5.34487 24.5862C6.38355 25.3544 9.32865 27.0568 12.237 26.4596C15.8723 25.713 17.69 25.0008 19.4753 23.8647C21.2605 22.7287 23.8897 22.4041 24.4415 24.0919C24.9933 25.7798 22.8185 27.8247 20.3517 28.7011C17.8848 29.5775 10.5707 30.3963 5.34487 24.5862Z" fill="white"/>
</svg>
