<svg width="32" height="31" viewBox="0 0 32 31" fill="none" xmlns="http://www.w3.org/2000/svg">
<path fill-rule="evenodd" clip-rule="evenodd" d="M15.5799 31C24.1493 31 31.0962 24.0604 31.0962 15.5C31.0962 6.93959 24.1493 0 15.5799 0C9.5644 0 4.34842 3.41958 1.77371 8.41895C1.26523 9.40627 0.653933 11.6391 0.849929 13.0423C1.11262 16.5672 3.60345 18.5018 6.74845 17.8922C8.2251 17.606 9.32234 16.9735 10.3314 16.3919C10.818 16.1115 11.284 15.8428 11.7622 15.6305C13.6193 14.806 16.6653 14.9182 16.7759 17.3351C16.8722 19.4396 15.4313 20.6914 13.3537 21.546C10.4294 22.7489 7.34681 22.4335 4.90654 20.3103C3.38912 18.9901 2.33226 17.6085 1.26504 15.904C0.896964 15.3161 0.0961914 15.4685 0.0961914 16.0345C0.0961914 24.5949 7.01046 31 15.5799 31ZM18.5002 4.64284C21.4086 4.0456 24.213 5.43267 25.2517 6.20086C20.0258 0.390742 12.8524 1.72155 10.3855 2.59794C7.91868 3.47433 5.74395 5.51923 6.29575 7.20709C6.84755 8.89494 9.47671 8.57035 11.2619 7.4343C13.0472 6.29824 14.8649 5.38939 18.5002 4.64284ZM5.44106 24.5862C6.47974 25.3544 9.42484 27.0568 12.3331 26.4596C15.9685 25.713 17.7862 25.0008 19.5715 23.8647C21.3567 22.7287 23.9859 22.4041 24.5377 24.0919C25.0895 25.7798 22.9147 27.8247 20.4479 28.7011C17.981 29.5775 10.6669 30.3963 5.44106 24.5862Z" fill="url(#paint0_linear_170_352)"/>
<path fill-rule="evenodd" clip-rule="evenodd" d="M31.0854 14.431C31.0854 14.7874 30.9785 15.5 30.5509 15.5C30.413 15.5 30.3107 15.5 30.2164 15.4725C29.9452 15.3933 29.7406 15.0863 28.9474 13.8966C27.8785 12.2931 25.7405 9.6207 22.5336 9.08621C19.3267 8.55173 16.1198 10.1552 13.4474 12.2931C12.8893 12.7396 12.3079 13.256 11.708 13.7888C9.43554 15.8073 6.89838 18.0608 4.36122 17.6379C3.89925 17.5609 3.47875 17.4396 3.0995 17.2722C1.85557 16.4574 1.02741 14.9935 0.881993 13.0423C0.685997 11.6391 1.2973 9.40627 1.80577 8.41895C4.38049 3.41958 9.59646 0 15.612 0C23.7902 0 30.4906 6.3204 31.0854 14.3382V14.431ZM25.2836 6.20089C24.245 5.4327 21.4405 4.04563 18.5322 4.64287C14.8968 5.38942 13.0791 6.29827 11.2939 7.43432C9.50867 8.57038 6.87951 8.89497 6.32771 7.20711C5.77591 5.51926 7.95064 3.47435 10.4175 2.59796C12.8844 1.72158 20.0578 0.390768 25.2836 6.20089Z" fill="url(#paint1_linear_170_352)"/>
<path fill-rule="evenodd" clip-rule="evenodd" d="M1.24328 9.81681C1.12013 10.7742 1.13305 11.6346 1.35255 12.2931C2.42151 15.5 6.16288 15.5 9.36978 12.8276C12.5767 10.1552 20.0594 5.34482 25.9387 9.62069C28.0042 11.1228 29.6642 12.3363 30.9369 13.2703C29.8547 5.76633 23.3914 0 15.5799 0C9.56442 0 4.34845 3.41958 1.77373 8.41895C1.59657 8.76295 1.40692 9.25817 1.24328 9.81681ZM25.2518 6.20089C24.2131 5.4327 21.4087 4.04563 18.5004 4.64287C14.865 5.38942 13.0473 6.29827 11.2621 7.43432C9.47682 8.57038 6.84766 8.89497 6.29586 7.20711C5.74406 5.51926 7.91879 3.47435 10.3857 2.59796C12.8525 1.72158 20.0259 0.390768 25.2518 6.20089Z" fill="url(#paint2_linear_170_352)" fill-opacity="0.85"/>
<path fill-rule="evenodd" clip-rule="evenodd" d="M5.17516 3.9998C4.08362 5.85303 3.67614 7.7762 3.89447 9.0862C4.42895 12.2931 7.10131 11.7586 8.17028 11.2241C8.2918 11.1634 8.51001 11.0335 8.81001 10.8551C11.149 9.46346 18.4593 5.11414 23.6703 7.48275C27.083 9.034 28.0758 7.86514 28.1595 6.42624C25.3409 2.53307 20.7557 0 15.5784 0C11.5758 0 7.92725 1.51392 5.17516 3.9998ZM25.2502 6.20086C24.2115 5.43267 21.407 4.0456 18.4987 4.64284C14.8634 5.38939 13.0457 6.29824 11.2604 7.4343C9.47519 8.57035 6.84603 8.89494 6.29423 7.20709C5.74243 5.51923 7.91716 3.47433 10.384 2.59794C12.8509 1.72155 20.0243 0.390742 25.2502 6.20086Z" fill="url(#paint3_linear_170_352)" fill-opacity="0.85"/>
<path fill-rule="evenodd" clip-rule="evenodd" d="M-3.68854e-05 16.569C-3.68542e-05 16.2126 0.106861 15.5 0.534446 15.5C0.672336 15.5 0.774652 15.5 0.868926 15.5275C1.14008 15.6067 1.34471 15.9137 2.13789 17.1034C3.20686 18.7069 5.34479 21.3793 8.55169 21.9138C11.7586 22.4483 14.9655 20.8448 17.6379 18.7069C18.196 18.2604 18.7774 17.744 19.3773 17.2112C21.6498 15.1927 24.1869 12.9392 26.7241 13.3621C27.1862 13.4391 27.6069 13.5605 27.9862 13.7279C29.23 14.5428 30.0581 16.0066 30.2035 17.9577C30.3995 19.3609 29.7882 21.5937 29.2797 22.5811C26.705 27.5804 21.489 31 15.4735 31C7.29471 31 0.593907 24.6787 -3.68933e-05 16.6601L-3.68854e-05 16.569ZM5.80163 24.7991C6.84031 25.5673 9.64475 26.9544 12.5531 26.3571C16.1884 25.6106 18.0061 24.7017 19.7914 23.5657C21.5766 22.4296 24.2058 22.105 24.7576 23.7929C25.3094 25.4807 23.1346 27.5256 20.6678 28.402C18.2009 29.2784 11.0275 30.6092 5.80163 24.7991Z" fill="url(#paint4_linear_170_352)"/>
<path fill-rule="evenodd" clip-rule="evenodd" d="M29.8425 21.1824C29.9656 20.2253 29.9526 19.3652 29.7331 18.7069C28.6642 15.5 24.9228 15.5 21.7159 18.1724C18.509 20.8448 11.0263 25.6552 5.14695 21.3793C3.08146 19.8771 1.4214 18.6636 0.148645 17.7296C1.23078 25.2336 7.6941 31 15.5056 31C21.5211 31 26.7371 27.5804 29.3118 22.5811C29.4891 22.2369 29.6788 21.7414 29.8425 21.1824ZM5.83397 24.7991C6.87265 25.5673 9.67709 26.9544 12.5854 26.3571C16.2208 25.6106 18.0385 24.7017 19.8237 23.5657C21.6089 22.4296 24.2381 22.105 24.7899 23.7929C25.3417 25.4807 23.167 27.5256 20.7001 28.402C18.2332 29.2784 11.0598 30.6092 5.83397 24.7991Z" fill="url(#paint5_linear_170_352)" fill-opacity="0.85"/>
<path fill-rule="evenodd" clip-rule="evenodd" d="M25.9101 27.0004C27.0018 25.1471 27.4093 23.2239 27.191 21.9138C26.6565 18.7069 23.9841 19.2414 22.9152 19.7759C22.7937 19.8366 22.5754 19.9665 22.2754 20.1449C19.9364 21.5365 12.6261 25.8859 7.41517 23.5172C4.00255 21.9661 3.00971 23.1348 2.92594 24.5736C5.7446 28.4669 10.3298 31 15.5072 31C19.5096 31 23.1581 29.4862 25.9101 27.0004ZM5.83541 24.7991C6.87409 25.5673 9.67853 26.9544 12.5868 26.3572C16.2222 25.6106 18.0399 24.7018 19.8251 23.5657C21.6104 22.4296 24.2395 22.1051 24.7913 23.7929C25.3431 25.4808 23.1684 27.5257 20.7015 28.4021C18.2347 29.2784 11.0613 30.6093 5.83541 24.7991Z" fill="url(#paint6_linear_170_352)" fill-opacity="0.85"/>
<defs>
<linearGradient id="paint0_linear_170_352" x1="15.5962" y1="1.64266e-08" x2="16.1307" y2="25.1207" gradientUnits="userSpaceOnUse">
<stop stop-color="#2C2F8C"/>
<stop offset="0.75364" stop-color="#2C2F8C"/>
<stop offset="0.928249" stop-color="#FF6300"/>
</linearGradient>
<linearGradient id="paint1_linear_170_352" x1="19.3376" y1="3.2069" x2="2.23419" y2="16.0345" gradientUnits="userSpaceOnUse">
<stop offset="0.494792" stop-color="#00B0E0"/>
<stop offset="0.951936" stop-color="#4F3594"/>
</linearGradient>
<linearGradient id="paint2_linear_170_352" x1="20.4067" y1="2.67241" x2="3.30321" y2="12.8276" gradientUnits="userSpaceOnUse">
<stop offset="0.458333" stop-color="#00B0E0"/>
<stop offset="1" stop-color="#303393"/>
</linearGradient>
<linearGradient id="paint3_linear_170_352" x1="26.8204" y1="2.13793" x2="4.37213" y2="10.6897" gradientUnits="userSpaceOnUse">
<stop offset="0.177176" stop-color="#00B0E0" stop-opacity="0"/>
<stop offset="0.584935" stop-color="#00B0E0"/>
<stop offset="0.936448" stop-color="#2D2F8E"/>
</linearGradient>
<linearGradient id="paint4_linear_170_352" x1="11.7478" y1="27.7931" x2="28.8513" y2="14.9655" gradientUnits="userSpaceOnUse">
<stop offset="0.520833" stop-color="#FF8900"/>
<stop offset="0.951936" stop-color="#FF6300"/>
</linearGradient>
<linearGradient id="paint5_linear_170_352" x1="10.679" y1="28.3276" x2="27.7825" y2="18.1724" gradientUnits="userSpaceOnUse">
<stop offset="0.458333" stop-color="#FF4500" stop-opacity="0"/>
<stop offset="1" stop-color="#FF4500"/>
</linearGradient>
<linearGradient id="paint6_linear_170_352" x1="16.569" y1="26.7241" x2="26.7133" y2="20.3103" gradientUnits="userSpaceOnUse">
<stop offset="0.177176" stop-color="#FF8900" stop-opacity="0"/>
<stop offset="1" stop-color="#FF8900"/>
</linearGradient>
</defs>
</svg>
