<svg width="53" height="63" viewBox="0 0 53 63" fill="none" xmlns="http://www.w3.org/2000/svg">
<path d="M26.5022 53.9923L26.3964 53.9089L25.5933 54.9173L26.5022 55.631L27.4111 54.9173L26.6079 53.9089L26.5022 53.9923Z" fill="black"/>
<path d="M5.88943 23.9794L7.15711 23.7427C7.07784 23.321 7.00732 22.9071 6.94313 22.5021L5.67041 22.7029C5.7359 23.1199 5.80886 23.5457 5.88943 23.9794Z" fill="black"/>
<path d="M19.8379 49.754C20.1369 50.0577 20.4421 50.3605 20.7531 50.663L21.6519 49.739C21.3472 49.4428 21.0483 49.1464 20.7556 48.8495L19.8379 49.754Z" fill="black"/>
<path d="M15.8145 43.1205L14.7822 43.8928C15.0378 44.2343 15.2996 44.5761 15.5684 44.9179L16.5818 44.1216C16.3193 43.7874 16.0638 43.4538 15.8145 43.1205Z" fill="black"/>
<path d="M19.0234 47.014L18.0654 47.877C18.3512 48.1936 18.6433 48.5098 18.9423 48.8259L19.8789 47.9402C19.5874 47.6318 19.3016 47.323 19.0234 47.014Z" fill="black"/>
<path d="M13 38.9408L11.896 39.6055C12.1157 39.9709 12.3429 40.3373 12.5764 40.7042L13.6641 40.0118C13.4356 39.6537 13.2147 39.2967 13 38.9408Z" fill="black"/>
<path d="M8.00689 27.4192L6.76562 27.7654C6.87958 28.1749 7.00101 28.589 7.12947 29.0075L8.3619 28.628C8.23602 28.2208 8.11833 27.818 8.00689 27.4192Z" fill="black"/>
<path d="M10.6277 34.4966L9.45947 35.0424C9.64014 35.4288 9.8277 35.8172 10.0228 36.2071L11.176 35.6306C10.9858 35.2507 10.8033 34.8724 10.6277 34.4966Z" fill="black"/>
<path d="M6.43966 26.5116L7.69098 26.2025C7.58901 25.788 7.49394 25.3795 7.40712 24.9767L6.14697 25.2486C6.23631 25.6634 6.33389 26.0845 6.43966 26.5116Z" fill="black"/>
<path d="M21.6885 51.5522C22 51.8427 22.3173 52.1325 22.6402 52.422L23.5 51.4615C23.1834 51.1783 22.8725 50.8941 22.5672 50.6093L21.6885 51.5522Z" fill="black"/>
<path d="M7.52979 30.2395C7.66636 30.6427 7.81048 31.0496 7.96285 31.4597L9.17137 31.0122C9.0241 30.6134 8.88371 30.2179 8.75094 29.826L7.52979 30.2395Z" fill="black"/>
<path d="M5.48853 21.4183L6.76757 21.2572C6.71343 20.8292 6.66747 20.4122 6.62847 20.0065L5.3457 20.1299C5.38592 20.5481 5.4331 20.9777 5.48853 21.4183Z" fill="black"/>
<path d="M8.928 33.8622L10.1101 33.3486C9.94077 32.9589 9.77899 32.5718 9.6254 32.1879L8.42822 32.6675C8.58684 33.0628 8.75365 33.4612 8.928 33.8622Z" fill="black"/>
<path d="M11.2411 38.4894L12.3615 37.8524C12.1519 37.4832 11.9492 37.1156 11.7547 36.7496L10.6167 37.3558C10.8175 37.7319 11.0252 38.1101 11.2411 38.4894Z" fill="black"/>
<path d="M23.6099 53.2722C23.9328 53.5508 24.2607 53.8277 24.5949 54.1044L25.417 53.1118C25.0903 52.8408 24.7686 52.5689 24.452 52.296L23.6099 53.2722Z" fill="black"/>
<path d="M17.3705 45.1039L16.376 45.9234C16.6473 46.2526 16.9249 46.5815 17.2087 46.9104L18.1844 46.0682C17.9068 45.7469 17.6355 45.4255 17.3705 45.1039Z" fill="black"/>
<path d="M14.0197 42.8483L15.0696 42.1011C14.824 41.7556 14.5849 41.4103 14.3533 41.0657L13.2832 41.7845C13.5212 42.1386 13.7666 42.4933 14.0197 42.8483Z" fill="black"/>
<path d="M5.17578 17.5406C5.18964 17.9557 5.21039 18.3884 5.23998 18.8372L6.52655 18.7528C6.49826 18.3179 6.47744 17.899 6.46358 17.4971L5.17578 17.5406Z" fill="black"/>
<path d="M5.84152 16.2307C5.84468 16.2307 5.8472 16.2304 5.85035 16.2304L6.44205 16.2285C6.44205 16.2153 6.44205 16.2021 6.44205 16.1892C6.46093 16.1877 6.47981 16.186 6.49806 16.1848L6.39609 14.8995C6.18648 14.9162 5.97565 14.9313 5.76353 14.9442L5.16868 14.9804L5.15798 15.5759C5.15418 15.788 5.15231 16.0067 5.15296 16.2324L5.84152 16.2307Z" fill="black"/>
<path d="M14.3046 14.6291L13.8979 13.4061C13.5008 13.5379 13.0941 13.6638 12.6787 13.7818L13.0324 15.0218C13.4656 14.8981 13.8898 14.7672 14.3046 14.6291Z" fill="black"/>
<path d="M11.7453 15.3601L11.4444 14.1069C11.0359 14.2048 10.6205 14.2958 10.1963 14.3795L10.4455 15.644C10.8874 15.5572 11.3205 15.4624 11.7453 15.3601Z" fill="black"/>
<path d="M9.13694 15.8747L8.93681 14.6014C8.52198 14.6665 8.09968 14.7241 7.67041 14.7745L7.8202 16.0548C8.26706 16.0025 8.70574 15.9424 9.13694 15.8747Z" fill="black"/>
<path d="M21.4676 11.1215L20.7463 10.0527C20.4007 10.2856 20.0432 10.5147 19.6743 10.7391L20.3441 11.8406C20.7305 11.6055 21.1056 11.3657 21.4676 11.1215Z" fill="black"/>
<path d="M16.7955 13.6777L16.2807 12.4956C15.8973 12.6627 15.5039 12.8232 15.1011 12.9771L15.5606 14.1813C15.9823 14.0204 16.3933 13.8524 16.7955 13.6777Z" fill="black"/>
<path d="M19.1889 12.5073L18.5708 11.3762C18.2039 11.5766 17.8262 11.7724 17.4385 11.9619L18.005 13.12C18.4103 12.9217 18.8043 12.7172 19.1889 12.5073Z" fill="black"/>
<path d="M23.6091 9.53441L22.7945 8.53485C22.4716 8.79795 22.1368 9.05919 21.7881 9.31726L22.556 10.3527C22.9198 10.0827 23.2711 9.80944 23.6091 9.53441Z" fill="black"/>
<path d="M35.5579 11.9626C35.1696 11.7722 34.7919 11.5768 34.4243 11.3757L33.8062 12.5068C34.1901 12.7167 34.5854 12.9216 34.9914 13.1202L35.5579 11.9626Z" fill="black"/>
<path d="M40.3234 13.7844C39.9086 13.6657 39.5014 13.5402 39.1029 13.4077L38.6963 14.6307C39.1111 14.7689 39.5359 14.9001 39.9697 15.0238L40.3234 13.7844Z" fill="black"/>
<path d="M31.204 9.3147C30.8553 9.05598 30.5192 8.79449 30.1963 8.53107L29.3818 9.52998C29.7198 9.80533 30.071 10.0789 30.4349 10.3495L31.204 9.3147Z" fill="black"/>
<path d="M45.3393 14.7761C44.9094 14.7258 44.4865 14.6681 44.071 14.603L43.8721 15.877C44.3039 15.944 44.7432 16.0041 45.1895 16.0563L45.3393 14.7761Z" fill="black"/>
<path d="M33.3213 10.7385C32.9512 10.5132 32.5931 10.2834 32.2457 10.0502L31.5269 11.1203C31.8894 11.3642 32.264 11.604 32.6504 11.8394L33.3213 10.7385Z" fill="black"/>
<path d="M42.8096 14.3805C42.3847 14.2971 41.9687 14.2061 41.5601 14.1082L41.2593 15.3614C41.6842 15.4637 42.1178 15.5584 42.5604 15.6456L42.8096 14.3805Z" fill="black"/>
<path d="M37.9007 12.9783C37.4972 12.8241 37.1032 12.663 36.7179 12.4962L36.2056 13.679C36.6071 13.8533 37.0188 14.0214 37.4399 14.1825L37.9007 12.9783Z" fill="black"/>
<path d="M46.5818 16.2352L47.1728 16.2317C47.1747 16.2317 47.1766 16.232 47.1791 16.232L47.8709 16.2277C47.8696 16.0036 47.8671 15.7861 47.8627 15.5753L47.8501 14.9817L47.2572 14.9455C47.0451 14.9326 46.8336 14.9178 46.6252 14.9011L46.522 16.1861C46.5421 16.1877 46.5616 16.1893 46.5818 16.1909C46.5818 16.2056 46.5818 16.2204 46.5818 16.2352Z" fill="black"/>
<path d="M39.3794 40.0077L40.4645 40.7032C40.6999 40.3363 40.9278 39.9699 41.1481 39.6045L40.0453 38.9379C39.8301 39.2933 39.6085 39.6501 39.3794 40.0077Z" fill="black"/>
<path d="M41.8721 35.6296L43.0252 36.2062C43.2203 35.8162 43.4085 35.4279 43.5892 35.0414L42.421 34.4957C42.2453 34.8714 42.0621 35.2497 41.8721 35.6296Z" fill="black"/>
<path d="M46.9038 25.2436L45.6436 24.9717C45.5567 25.3745 45.4623 25.7837 45.3604 26.1988L46.6117 26.5072C46.7174 26.0795 46.8144 25.6584 46.9038 25.2436Z" fill="black"/>
<path d="M47.6948 20.1185L46.4107 19.999C46.373 20.405 46.3289 20.822 46.2754 21.25L47.5544 21.4092C47.6099 20.9673 47.6558 20.5371 47.6948 20.1185Z" fill="black"/>
<path d="M47.8537 17.5261L46.5646 17.4883C46.5533 17.8902 46.5344 18.3094 46.5073 18.7437L47.7939 18.8243C47.8223 18.3752 47.8411 17.9418 47.8537 17.5261Z" fill="black"/>
<path d="M44.6899 28.6252L45.9224 29.0042C46.0514 28.5853 46.1723 28.1704 46.2862 27.7607L45.0437 27.4164C44.9335 27.8148 44.8152 28.2177 44.6899 28.6252Z" fill="black"/>
<path d="M43.8804 31.0101L45.0889 31.4589C45.2412 31.0479 45.386 30.6407 45.5226 30.2372L44.3015 29.8237C44.1687 30.2158 44.0289 30.6111 43.8804 31.0101Z" fill="black"/>
<path d="M27.6016 53.1025L28.4236 54.095C28.7579 53.8184 29.0864 53.5411 29.4093 53.2636L28.5684 52.2861C28.2518 52.5586 27.9295 52.8308 27.6016 53.1025Z" fill="black"/>
<path d="M47.3749 22.6931L46.1009 22.4961C46.0379 22.9021 45.968 23.316 45.8906 23.738L47.1583 23.9709C47.2383 23.5369 47.3107 23.1105 47.3749 22.6931Z" fill="black"/>
<path d="M36.4521 44.116L37.4643 44.9135C37.7337 44.5717 37.9962 44.2302 38.2524 43.8894L37.2213 43.1152C36.9715 43.4485 36.7153 43.7818 36.4521 44.116Z" fill="black"/>
<path d="M34.8413 46.0613L35.8157 46.9047C36.1002 46.5761 36.3784 46.2473 36.6503 45.919L35.657 45.097C35.3914 45.4183 35.1196 45.7396 34.8413 46.0613Z" fill="black"/>
<path d="M29.5186 51.4532L30.3796 52.4131C30.7019 52.1236 31.0198 51.8337 31.3313 51.5435L30.4526 50.6006C30.1474 50.8851 29.8358 51.1693 29.5186 51.4532Z" fill="black"/>
<path d="M39.0152 42.8452C39.2676 42.4908 39.5137 42.1371 39.7523 41.7836L38.6848 41.0616C38.4513 41.4063 38.2114 41.7518 37.9653 42.098L39.0152 42.8452Z" fill="black"/>
<path d="M33.1455 47.9329L34.0821 48.8185C34.3805 48.5031 34.6731 48.1875 34.9595 47.8715L34.004 47.006C33.724 47.3151 33.4376 47.6238 33.1455 47.9329Z" fill="black"/>
<path d="M31.3691 49.73L32.268 50.654C32.5789 50.3518 32.8848 50.0491 33.1838 49.7463L32.2673 48.8399C31.9734 49.137 31.6738 49.4335 31.3691 49.73Z" fill="black"/>
<path d="M44.6229 32.6668L43.427 32.1847C43.2722 32.5693 43.1098 32.9567 42.9404 33.3469L44.1225 33.8606C44.2969 33.4602 44.4631 33.0621 44.6229 32.6668Z" fill="black"/>
<path d="M42.4297 37.3561L41.2929 36.7474C41.0965 37.1141 40.8938 37.4817 40.6836 37.8508L41.804 38.4885C42.0193 38.1098 42.2282 37.7322 42.4297 37.3561Z" fill="black"/>
<path d="M0.583821 9.74215C-0.313706 14.223 -0.280641 20.7492 1.4216 27.7085C3.6668 36.8895 9.77675 50.2496 26.1314 61.7589L26.5021 62.0201L26.8735 61.7586C43.2225 50.2442 49.3319 36.8845 51.5777 27.7047C53.2804 20.7445 53.3135 14.2204 52.4173 9.74215C52.0673 9.76103 50.989 9.85733 49.5244 9.85733H49.5225C38.6472 9.85733 32.5825 4.64181 29.4108 0.266261L29.2175 0H23.7754L23.5828 0.266648C18.0241 7.94213 10.0042 10.2511 0.583821 9.74215ZM24.4306 1.28915H28.5629C31.9619 5.85033 38.3229 11.1471 49.5244 11.1464C50.1255 11.1464 50.7405 11.1307 51.3586 11.0995C51.9478 15.1307 54.3899 40.5638 26.5021 60.4417C-1.35864 40.595 1.05775 15.1349 1.64313 11.0996C10.8788 11.5651 19.0251 8.55058 24.4306 1.28915Z" fill="black"/>
<path d="M14.4116 27.2584L15.8316 31.9336L19.5566 31.5779C19.6404 31.6824 19.7272 31.785 19.8172 31.8857L18.7434 35.4807L23.0506 37.7809L25.4929 34.8263C25.5936 34.837 25.6943 34.8462 25.795 34.8534L27.6198 38.2325L32.2889 36.8141L31.927 32.994C32.0063 32.9327 32.0863 32.8678 32.1674 32.7998L35.8415 33.9017L38.142 29.5926L35.2479 27.2086C35.2662 27.0755 35.2819 26.9389 35.2939 26.7985L38.5896 25.027L37.169 20.3519L33.5591 20.6952C33.4483 20.5463 33.3363 20.4054 33.2218 20.2703L34.2578 16.8044L29.95 14.5041L27.6953 17.2321C27.4832 17.2019 27.2711 17.1801 27.0615 17.1676L25.3816 14.0525L20.7061 15.4725L21.0454 18.9932C20.8779 19.122 20.7149 19.2579 20.5563 19.4005L17.1592 18.3836L14.8587 22.6921L17.6521 24.9952C17.6314 25.1762 17.6156 25.3581 17.6055 25.5397L14.4116 27.2584ZM16.4925 22.3687L17.7999 19.9207L20.9068 20.8511C21.4616 20.3823 20.7384 20.8415 22.3998 19.6092L22.0907 16.399L24.7469 15.592L26.2828 18.4393C28.2054 18.5178 27.6232 18.5689 28.2101 18.6329L30.2721 16.1375L32.7206 17.4451L31.7771 20.6011C32.96 21.9331 32.583 21.6049 32.9314 22.0498L36.2423 21.7347L37.0486 24.3913L34.0474 26.0048L34.0304 26.3696C33.9961 27.0874 33.8881 27.4666 33.8447 27.7232L36.5078 29.9168L35.2005 32.364L31.8462 31.3579C30.6175 32.4375 30.9851 32.0518 30.5735 32.3744L30.9065 35.887L28.2529 36.6931L26.5799 33.594C25.9484 33.5425 26.6132 33.6685 24.9585 33.4499L22.7284 36.1476L20.2804 34.84L21.2668 31.5357C20.8476 31.0496 21.2195 31.6171 20.1552 30.2259L16.7581 30.55L15.9512 27.8935L18.8787 26.3186C18.9344 25.5925 18.7676 26.4407 19.0348 24.4643L16.4925 22.3687Z" fill="black"/>
<path d="M30.773 28.4248C31.3823 27.2833 31.5107 25.9729 31.1349 24.7351C29.8623 20.5439 24.2263 20.1181 22.2265 23.8608C21.6172 25.002 21.4888 26.3125 21.8646 27.5506C23.1247 31.6997 28.7511 32.2079 30.773 28.4248ZM23.3639 24.4678C24.8455 21.6942 28.9755 22.0609 29.9013 25.1096C30.1776 26.0182 30.0832 26.98 29.6357 27.8174C28.1543 30.5906 24.0241 30.2247 23.0983 27.176C22.822 26.2674 22.9164 25.3056 23.3639 24.4678Z" fill="black"/>
</svg>
