<svg width="24" height="18" viewBox="0 0 24 18" fill="none" xmlns="http://www.w3.org/2000/svg">
    <path
        d="M10.8268 10.9431L11.5776 11.6378L11.597 11.6562C11.7081 11.7613 11.8528 11.8133 11.9922 11.8133C12.1311 11.8133 12.2755 11.7617 12.3865 11.657L13.1579 10.9431L18.1768 15.962H5.808L10.8268 10.9431ZM11.9925 10.4424L2.85147 1.9583H21.1295L11.9925 10.4424ZM1.95831 15.7824V15.7749L1.95805 15.7714V2.70938L9.97942 10.1554L4.17341 15.9614H2.13735C2.03933 15.9614 1.95831 15.8804 1.95831 15.7824ZM22.0265 15.7793C22.0265 15.8732 21.9522 15.9515 21.8598 15.958H21.8472H19.8112L14.0051 10.1519L22.0265 2.70591V15.7793ZM21.8473 0.8H2.13712C1.40123 0.8 0.8 1.40123 0.8 2.13712V15.7826C0.8 16.5185 1.40123 17.1197 2.13712 17.1197H21.8473C22.5831 17.1197 23.1844 16.5185 23.1844 15.7826V2.13712C23.1844 1.40123 22.5831 0.8 21.8473 0.8Z"
        fill="white" stroke="white" stroke-width="0.4" />
</svg>