<svg width="65" height="55" viewBox="0 0 65 55" fill="none" xmlns="http://www.w3.org/2000/svg">
<path d="M38.9995 38.6364V54.3636C38.9995 54.7155 39.2789 55 39.6245 55H44.3745C44.7201 55 44.9995 54.7155 44.9995 54.3636V38.6364C44.9995 38.2845 44.7201 38 44.3745 38H39.6245C39.2789 38 38.9995 38.2845 38.9995 38.6364ZM40.2495 39.2727H43.7495V53.7273H40.2495V39.2727Z" fill="black"/>
<path d="M53.3745 55C53.7201 55 53.9995 54.7108 53.9995 54.3529V34.6471C53.9995 34.2892 53.7201 34 53.3745 34H48.6245C48.2789 34 47.9995 34.2892 47.9995 34.6471V54.3529C47.9995 54.7108 48.2789 55 48.6245 55H53.3745ZM49.2495 35.2941H52.7495V53.7059H49.2495V35.2941Z" fill="black"/>
<path d="M56.9995 30.6818V54.3182C56.9995 54.6952 57.3348 55 57.7495 55H63.2495C63.6643 55 63.9995 54.6952 63.9995 54.3182V30.6818C63.9995 30.3048 63.6643 30 63.2495 30H57.7495C57.3348 30 56.9995 30.3048 56.9995 30.6818ZM58.4995 31.3636H62.4995V53.6364H58.4995V31.3636Z" fill="black"/>
<path d="M5.82106 39.0304L0 45L1.52536 46.295L7.34643 40.3255L5.82106 39.0304Z" fill="black"/>
<path d="M46.1489 1C46.1489 0.447 45.7019 0 45.1489 0H39.1489V2H42.8969L33.9995 11.158L35.4835 12.5L44.1489 3.599V7H46.1489V1Z" fill="black"/>
<path d="M59.6667 19V21.6667H57V24.3333H59.6667V27H62.3333V24.3333H65V21.6667H62.3333V19H59.6667Z" fill="black"/>
</svg>
