<svg width="44" height="30" viewBox="0 0 44 30" fill="none" xmlns="http://www.w3.org/2000/svg">
<path d="M42.7315 3.09745L26.028 15.7709C26.0145 15.7812 26.0005 15.7908 25.9861 15.7995L25.9868 15.8004C25.7202 15.9625 25.4573 16.1393 25.1963 16.3235C24.9505 16.497 24.6845 16.6946 24.4161 16.8949C24.0629 17.1584 23.6945 17.3811 23.2909 17.542C22.8774 17.707 22.4398 17.8014 21.9626 17.8014C21.4857 17.8014 21.0481 17.707 20.6345 17.542C20.2311 17.3812 19.8627 17.1584 19.5098 16.8953C19.2411 16.6947 18.9749 16.497 18.7292 16.3235C18.4682 16.1391 18.2051 15.9624 17.9385 15.8002C17.9138 15.7851 17.8911 15.7684 17.8699 15.7501L1.24764 3.13888C1.09367 3.47297 1.00761 3.84386 1.00761 4.23379V25.9257C1.00761 26.6506 1.30436 27.3097 1.78265 27.7879C2.26076 28.266 2.92006 28.5627 3.64478 28.5627V28.5647L40.4153 28.5753V28.5734C41.1229 28.5734 41.7669 28.2834 42.234 27.8165C42.6837 27.3666 42.9692 26.7529 42.9897 26.0758C42.9858 26.0504 42.9837 26.0242 42.9837 25.9977C42.9837 25.9728 42.9854 25.9487 42.989 25.9248L42.9909 25.9069V4.23379C42.9909 3.82768 42.8978 3.44221 42.7315 3.09745ZM1.83244 2.32365L18.4742 14.9496C18.7623 15.1253 19.0384 15.3105 19.3078 15.5008C19.5965 15.7047 19.8559 15.8973 20.112 16.0883C20.4055 16.3073 20.7003 16.488 21.0046 16.6092C21.2988 16.7266 21.6141 16.7938 21.9626 16.7938C22.3114 16.7938 22.6267 16.7266 22.9209 16.6092C23.2253 16.488 23.5203 16.3073 23.8138 16.0881C24.0697 15.8969 24.3295 15.7046 24.6177 15.5008C24.8871 15.3107 25.163 15.1255 25.451 14.9498L42.133 2.29253C41.6631 1.86136 41.0378 1.59715 40.3543 1.59715H3.64478C2.94477 1.59715 2.30592 1.87399 1.83244 2.32365ZM42.9285 1.65956C43.5889 2.31992 43.9987 3.23116 43.9987 4.23379V25.9257L43.9975 25.9634L43.9987 25.9977C43.9987 26.9837 43.5956 27.8796 42.9465 28.5288C42.2972 29.1781 41.4012 29.581 40.4153 29.581V29.579L3.64478 29.5684V29.5703C2.64179 29.5703 1.73055 29.1605 1.0702 28.5001C0.409835 27.84 0 26.9287 0 25.9257V4.23379C0 3.23116 0.409835 2.31974 1.0702 1.65956C1.73055 0.999374 2.64179 0.589539 3.64478 0.589539H40.3543C41.3569 0.589539 42.2682 0.999374 42.9285 1.65956Z" fill="black"/>
</svg>
