<svg width="51" height="51" viewBox="0 0 51 51" fill="none" xmlns="http://www.w3.org/2000/svg">
<path d="M32.5832 0.00026364C28.3603 -0.0224022 24.2598 1.41705 20.9777 4.07424C17.6956 6.73143 15.4342 10.4426 14.5774 14.5777C11.3368 15.2679 8.34248 16.8197 5.91013 19.0695C3.47778 21.3194 1.69757 24.1838 0.757187 27.3609C-0.183193 30.5379 -0.248891 33.9099 0.56702 37.1212C1.38293 40.3324 3.05022 43.2641 5.39308 45.6069C7.73595 47.9498 10.6676 49.6171 13.8789 50.433C17.0901 51.2489 20.4621 51.1832 23.6391 50.2428C26.8162 49.3024 29.6806 47.5222 31.9305 45.0899C34.1803 42.6575 35.7321 39.6632 36.4223 36.4226C40.8724 35.4748 44.8141 32.913 47.4872 29.2311C50.1602 25.5492 51.3755 21.008 50.8985 16.4832C50.4216 11.9583 48.2862 7.77032 44.9042 4.72668C41.5222 1.68304 37.1331 -0.000653008 32.5832 0.00026364ZM33.9432 33.9434C33.8298 33.9434 33.7307 33.9576 33.6315 33.9576C33.2773 33.9859 32.9373 34.0001 32.5973 34.0001C31.7617 34.0009 30.9275 33.9298 30.104 33.7876L32.7107 26.3926C33.5643 28.3447 34.0033 30.4528 33.9998 32.5834C33.9998 33.0226 33.9857 33.4759 33.9432 33.9434ZM27.3415 33.1076C26.4448 32.7856 25.5814 32.3776 24.7632 31.8892L28.659 20.8535C29.4718 21.5482 30.2036 22.3323 30.8407 23.191L27.3415 33.1076ZM22.3691 30.1609C21.5499 29.4783 20.8172 28.6981 20.1874 27.8376L23.6866 17.921C24.5876 18.2266 25.4522 18.6304 26.2649 19.1252L22.3691 30.1609ZM18.3033 24.6501C17.4355 22.6871 16.9914 20.5631 16.9999 18.4168C16.9999 18.0768 17.0141 17.7368 17.0424 17.3968C17.0401 17.2833 17.0448 17.1698 17.0565 17.0568C18.3469 16.9374 19.6474 16.9898 20.924 17.2127L18.3033 24.6501ZM18.4166 48.1666C14.6538 48.1658 11.0183 46.8037 8.18123 44.3319C5.34416 41.8601 3.49706 38.4454 2.98087 34.7182C2.46469 30.991 3.31427 27.2028 5.3728 24.053C7.43133 20.9032 10.5598 18.6044 14.1808 17.581C14.1666 17.8502 14.1666 18.1335 14.1666 18.4168C14.153 21.9058 15.1466 25.3245 17.0283 28.2626C17.1558 28.4751 17.2833 28.6734 17.4249 28.8718C17.9265 29.6095 18.4804 30.3102 19.0824 30.9684C19.7806 31.7191 20.5438 32.4065 21.3632 33.0226C21.6607 33.2492 21.9582 33.4617 22.2698 33.6742C22.7678 34.0127 23.2833 34.3248 23.814 34.6092C24.6391 35.0685 25.5016 35.4571 26.3923 35.7709C26.874 35.9409 27.3698 36.0967 27.8656 36.2242C28.2906 36.3376 28.7156 36.4225 29.1406 36.5076C30.2757 36.7219 31.4281 36.831 32.5832 36.8334H32.6115C32.8807 36.8334 33.1498 36.8334 33.419 36.8192C32.5095 40.0945 30.5481 42.9798 27.837 45.0303C25.126 47.0809 21.8158 48.183 18.4166 48.1666ZM36.8048 33.4334C36.8332 33.1501 36.8332 32.8667 36.8332 32.5834C36.8457 29.1055 35.8572 25.6974 33.9857 22.766C33.8684 22.5566 33.7408 22.3533 33.6032 22.1568C33.098 21.4262 32.5443 20.7305 31.9457 20.0743C31.2474 19.3195 30.4842 18.6274 29.6649 18.006C29.3815 17.7793 29.084 17.5668 28.7865 17.3686C28.2842 17.0162 27.7641 16.69 27.2282 16.3911C26.3963 15.9394 25.5294 15.5557 24.6357 15.2436C24.1682 15.0736 23.6724 14.9319 23.1766 14.8044C22.7516 14.6911 22.3266 14.5919 21.8874 14.4928C20.4641 14.2218 19.0136 14.1219 17.5666 14.1953C18.3046 11.5774 19.7145 9.19814 21.6564 7.29371C23.5983 5.38928 26.0045 4.02592 28.6362 3.33903C31.268 2.65213 34.0336 2.66559 36.6585 3.37806C39.2834 4.09054 41.6763 5.47724 43.5995 7.40048C45.5228 9.32372 46.9095 11.7166 47.6219 14.3415C48.3344 16.9664 48.3479 19.732 47.661 22.3637C46.9741 24.9954 45.6108 27.4017 43.7063 29.3436C41.8019 31.2855 39.4227 32.6954 36.8048 33.4334Z" fill="white"/>
</svg>
