<svg width="66" height="66" viewBox="0 0 66 66" fill="none" xmlns="http://www.w3.org/2000/svg">
<path d="M66 15.0748C66 10.1397 62.0115 6.12497 57.1087 6.12497C55.3551 6.12497 53.7224 6.6457 52.3429 7.5318C47.0229 2.67368 40.1745 0 32.9666 0C25.7775 0 18.9312 2.66598 13.6168 7.5073C12.2456 6.63661 10.6282 6.12497 8.89128 6.12497C3.98845 6.12497 0 10.1397 0 15.0748C0 18.5037 1.92747 21.4846 4.74776 22.9873C4.32917 24.9716 4.10666 27.0056 4.10666 29.05C4.10666 41.5946 12.2908 52.8556 24.0927 56.6946C24.0879 56.8136 24.0753 56.9305 24.0753 57.0502C24.0753 61.9853 28.0638 66 32.9666 66C37.8694 66 41.8579 61.9853 41.8579 57.0502C41.8579 56.9305 41.8447 56.8136 41.8405 56.6946C53.6383 52.857 61.8266 41.5855 61.8266 29.05C61.8266 27.0161 61.6055 24.9919 61.1911 23.0167C64.044 21.5245 66 18.5275 66 15.0748ZM2.08601 15.0748C2.08601 11.298 5.13924 8.22471 8.89128 8.22471C12.6433 8.22471 15.6965 11.298 15.6965 15.0748C15.6965 18.8515 12.6433 21.9249 8.89128 21.9249C5.13924 21.9249 2.08601 18.8515 2.08601 15.0748ZM32.9666 63.8996C29.2146 63.8996 26.1614 60.8262 26.1614 57.0495C26.1614 53.2727 29.2146 50.1994 32.9666 50.1994C36.7187 50.1994 39.7719 53.2727 39.7719 57.0495C39.7719 60.8262 36.7194 63.8996 32.9666 63.8996ZM59.7406 29.0493C59.7406 40.5685 52.2887 50.9399 41.5095 54.5956C40.4464 50.851 37.0232 48.0996 32.9666 48.0996C28.91 48.0996 25.4862 50.8517 24.423 54.5963C13.6411 50.9406 6.19267 40.5783 6.19267 29.0493C6.19267 27.2617 6.37833 25.4825 6.72252 23.7433C7.41786 23.9196 8.1424 24.0239 8.89128 24.0239C13.7941 24.0239 17.7825 20.0092 17.7825 15.0741C17.7825 12.6524 16.8181 10.4553 15.2599 8.84204C20.1557 4.49066 26.4075 2.09905 32.9666 2.09905C39.5487 2.09905 45.8095 4.50046 50.7109 8.87424C49.1708 10.484 48.2175 12.6671 48.2175 15.0741C48.2175 20.0092 52.2059 24.0239 57.1087 24.0239C57.8354 24.0239 58.5383 23.9259 59.2142 23.7601C59.5563 25.4944 59.7406 27.268 59.7406 29.0493ZM57.1087 21.9249C53.3567 21.9249 50.3035 18.8515 50.3035 15.0748C50.3035 11.298 53.3567 8.22471 57.1087 8.22471C60.8608 8.22471 63.914 11.298 63.914 15.0748C63.914 18.8515 60.8608 21.9249 57.1087 21.9249Z" fill="white"/>
</svg>
