<svg width="66" height="19" viewBox="0 0 66 19" fill="none" xmlns="http://www.w3.org/2000/svg">
<path d="M57.3338 0.344116C57.2498 0.242001 57.1459 0.158749 57.0285 0.0996695C56.9112 0.0405896 56.783 0.00697733 56.6521 0.000975576C56.5212 -0.00502618 56.3905 0.0167143 56.2684 0.064811C56.1462 0.112908 56.0353 0.186305 55.9427 0.280325C55.85 0.374344 55.7777 0.486922 55.7303 0.610881C55.6829 0.734841 55.6615 0.867461 55.6674 1.00029C55.6733 1.13312 55.7065 1.26324 55.7647 1.38235C55.8229 1.50147 55.9049 1.60697 56.0055 1.69213L62.7821 8.57776H0.895588C0.653789 8.59078 0.426121 8.69744 0.259501 8.87575C0.0928797 9.05407 0 9.29045 0 9.5362C0 9.78195 0.0928797 10.0183 0.259501 10.1966C0.426121 10.375 0.653789 10.4816 0.895588 10.4946H62.7821L55.9949 17.3722C55.8241 17.5538 55.7288 17.7951 55.7288 18.0462C55.7288 18.2972 55.8241 18.5386 55.9949 18.7202C56.082 18.8089 56.1855 18.8793 56.2995 18.9273C56.4135 18.9753 56.5356 19 56.659 19C56.7824 19 56.9046 18.9753 57.0186 18.9273C57.1325 18.8793 57.236 18.8089 57.3231 18.7202L65.7175 10.2008C65.8068 10.1135 65.8779 10.0088 65.9264 9.893C65.975 9.77718 66 9.65262 66 9.52676C66 9.40091 65.975 9.27634 65.9264 9.16053C65.8779 9.04472 65.8068 8.94004 65.7175 8.85276L57.3338 0.344116Z" fill="black"/>
</svg>
