<svg width="52" height="60" viewBox="0 0 52 60" fill="none" xmlns="http://www.w3.org/2000/svg">
<path d="M38.3847 13.0667C34.7709 10.1978 30.2741 8.67105 25.6607 8.74667C21.084 8.66728 16.6219 10.1796 13.0367 13.0253C9.25 16.1587 7.248 20.6253 7.248 25.9487C7.26508 29.9435 8.69769 33.8029 11.2913 36.8413C13.262 39.166 13.6473 41.2487 13.6473 44.0613C13.6608 44.9482 13.9494 45.8089 14.4733 46.5245C14.9973 47.2402 15.7306 47.7753 16.572 48.056V51.9573C16.5835 52.5966 16.8219 53.211 17.2447 53.6906C17.6676 54.1702 18.2472 54.4838 18.88 54.5753C19.2747 57.6233 22.2 60 25.7413 60C29.27 60 32.19 57.6373 32.598 54.6C33.274 54.5557 33.9087 54.2595 34.3768 53.7698C34.8449 53.2801 35.1123 52.6326 35.126 51.9553V47.9333C35.8919 47.6133 36.5476 47.0762 37.0121 46.3882C37.4767 45.7002 37.73 44.8914 37.7407 44.0613C37.7407 40.906 38.3593 39.1113 40.1913 36.9507C42.7845 33.912 44.2169 30.0527 44.234 26.058C44.234 20.7173 42.2113 16.224 38.3847 13.0667ZM25.7413 58.4033C23.1093 58.4033 20.9173 56.7593 20.5027 54.612H30.98C30.5647 56.7593 28.3733 58.4033 25.7413 58.4033ZM33.5293 49.7527H26.926C26.8168 49.7456 26.7074 49.761 26.6044 49.7979C26.5014 49.8349 26.4071 49.8925 26.3273 49.9674C26.2474 50.0422 26.1838 50.1326 26.1403 50.233C26.0968 50.3334 26.0744 50.4416 26.0744 50.551C26.0744 50.6604 26.0968 50.7686 26.1403 50.869C26.1838 50.9694 26.2474 51.0598 26.3273 51.1347C26.4071 51.2095 26.5014 51.2671 26.6044 51.3041C26.7074 51.341 26.8168 51.3564 26.926 51.3493H33.5293V51.9573C33.5133 52.2525 33.3812 52.5293 33.1619 52.7275C32.9427 52.9257 32.6539 53.0291 32.3587 53.0153H19.3393C19.0441 53.0291 18.7553 52.9257 18.5361 52.7275C18.3168 52.5293 18.1847 52.2525 18.1687 51.9573V48.318H33.2733C33.3593 48.318 33.4447 48.318 33.5293 48.3107V49.7527ZM38.9733 35.918C36.6067 38.7087 36.144 41.0173 36.144 44.0613C36.1141 44.7941 35.7954 45.4852 35.2575 45.9837C34.7196 46.4821 34.0062 46.7473 33.2733 46.7213H18.1147C17.3824 46.7464 16.67 46.4808 16.1329 45.9824C15.5958 45.484 15.2777 44.7934 15.248 44.0613C15.248 40.958 14.79 38.4953 12.5147 35.808C10.1487 33.0682 8.84728 29.5687 8.848 25.9487C8.848 15.2267 17.5647 10.3433 25.6633 10.3433C33.84 10.3433 42.64 15.2607 42.64 26.058C42.6402 29.6781 41.3388 33.1776 38.9733 35.918ZM24.9427 4.194V0.8C24.9427 0.587827 25.027 0.384344 25.177 0.234315C25.327 0.0842855 25.5305 0 25.7427 0C25.9548 0 26.1583 0.0842855 26.3084 0.234315C26.4584 0.384344 26.5427 0.587827 26.5427 0.8V4.19533C26.5427 4.40751 26.4584 4.61099 26.3084 4.76102C26.1583 4.91105 25.9548 4.99533 25.7427 4.99533C25.5305 4.99533 25.327 4.91105 25.177 4.76102C25.027 4.61099 24.9427 4.40751 24.9427 4.19533V4.194ZM12.5833 4.534C12.5236 4.443 12.483 4.34076 12.4641 4.23353C12.4452 4.12631 12.4484 4.01635 12.4735 3.9104C12.4986 3.80446 12.545 3.70474 12.61 3.61737C12.6749 3.53 12.7571 3.45681 12.8513 3.40228C12.9455 3.34776 13.0499 3.31304 13.158 3.30026C13.2662 3.28748 13.3758 3.29691 13.4801 3.32796C13.5845 3.35902 13.6814 3.41105 13.7649 3.48086C13.8485 3.55068 13.9169 3.63682 13.966 3.734L15.6667 6.676C15.7604 6.85859 15.7804 7.07023 15.7225 7.26715C15.6646 7.46406 15.5332 7.63118 15.3555 7.73394C15.1778 7.83669 14.9674 7.86722 14.7679 7.81921C14.5683 7.7712 14.3948 7.64833 14.2833 7.476L12.5833 4.534ZM3.45533 12.858C3.56144 12.6749 3.73579 12.5412 3.94021 12.4864C4.14464 12.4315 4.36247 12.4599 4.546 12.5653L7.48667 14.2667C7.65899 14.3782 7.78187 14.5516 7.82988 14.7512C7.87789 14.9508 7.84736 15.1611 7.7446 15.3388C7.64185 15.5165 7.47473 15.6479 7.27781 15.7058C7.0809 15.7637 6.86926 15.7438 6.68667 15.65L3.746 13.952C3.65504 13.8993 3.57536 13.8292 3.51152 13.7457C3.44768 13.6621 3.40092 13.5668 3.37393 13.4652C3.34693 13.3636 3.34023 13.2577 3.35419 13.1535C3.36816 13.0493 3.40253 12.9489 3.45533 12.858ZM4.2 26.52H0.8C0.587827 26.52 0.384344 26.4357 0.234315 26.2857C0.0842855 26.1357 0 25.9322 0 25.72C0 25.5078 0.0842855 25.3043 0.234315 25.1543C0.384344 25.0043 0.587827 24.92 0.8 24.92H4.2C4.41217 24.92 4.61566 25.0043 4.76569 25.1543C4.91571 25.3043 5 25.5078 5 25.72C5 25.9322 4.91571 26.1357 4.76569 26.2857C4.61566 26.4357 4.41217 26.52 4.2 26.52ZM7.77267 36.0907C7.87814 36.2741 7.90663 36.4919 7.8519 36.6963C7.79718 36.9007 7.66369 37.0751 7.48067 37.1813L4.54 38.8793C4.35741 38.9731 4.14577 38.9931 3.94885 38.9352C3.75194 38.8772 3.58482 38.7458 3.48207 38.5682C3.37931 38.3905 3.34878 38.1801 3.39679 37.9805C3.4448 37.781 3.56767 37.6075 3.74 37.496L6.68 35.8C6.86329 35.6944 7.08094 35.6657 7.28533 35.7202C7.48973 35.7747 7.66423 35.9079 7.77067 36.0907H7.77267ZM48.0113 38.6C47.9051 38.783 47.7307 38.9165 47.5263 38.9712C47.3219 39.026 47.1041 38.9975 46.9207 38.892L43.98 37.1947C43.8092 37.0825 43.6879 36.9092 43.6408 36.7104C43.5937 36.5116 43.6245 36.3023 43.7268 36.1254C43.8291 35.9486 43.9953 35.8176 44.1911 35.7593C44.3869 35.701 44.5976 35.7199 44.78 35.812L47.7207 37.51C47.9033 37.6164 48.0364 37.7908 48.0908 37.995C48.1453 38.1993 48.1167 38.4168 48.0113 38.6ZM51.4627 25.7333C51.4627 25.9455 51.3784 26.149 51.2284 26.299C51.0783 26.449 50.8748 26.5333 50.6627 26.5333H47.2667C47.1575 26.5404 47.048 26.525 46.945 26.4881C46.842 26.4511 46.7477 26.3935 46.6679 26.3186C46.5881 26.2438 46.5245 26.1534 46.481 26.053C46.4375 25.9526 46.4151 25.8444 46.4151 25.735C46.4151 25.6256 46.4375 25.5174 46.481 25.417C46.5245 25.3166 46.5881 25.2262 46.6679 25.1514C46.7477 25.0765 46.842 25.0189 46.945 24.9819C47.048 24.945 47.1575 24.9296 47.2667 24.9367H50.6667C50.8781 24.9377 51.0806 25.0225 51.2298 25.1724C51.3789 25.3223 51.4627 25.5252 51.4627 25.7367V25.7333ZM43.696 15.3673C43.5905 15.1839 43.562 14.9661 43.6168 14.7617C43.6715 14.5573 43.805 14.3829 43.988 14.2767L46.9287 12.5793C47.0197 12.5196 47.1219 12.479 47.2291 12.4601C47.3364 12.4412 47.4463 12.4444 47.5523 12.4695C47.6582 12.4946 47.7579 12.541 47.8453 12.606C47.9327 12.6709 48.0059 12.7531 48.0604 12.8473C48.1149 12.9415 48.1496 13.0459 48.1624 13.154C48.1752 13.2622 48.1658 13.3718 48.1347 13.4761C48.1036 13.5805 48.0516 13.6774 47.9818 13.7609C47.912 13.8445 47.8258 13.9129 47.7287 13.962L44.7867 15.66C44.6031 15.7654 44.3853 15.7938 44.1809 15.739C43.9765 15.6841 43.8021 15.5505 43.696 15.3673ZM35.816 6.684L37.514 3.74333C37.5631 3.64615 37.6315 3.56002 37.7151 3.4902C37.7986 3.42038 37.8955 3.36835 37.9999 3.3373C38.1042 3.30624 38.2138 3.29682 38.3219 3.30959C38.4301 3.32237 38.5345 3.35709 38.6287 3.41162C38.7229 3.46614 38.8051 3.53933 38.87 3.6267C38.935 3.71408 38.9814 3.81379 39.0065 3.91974C39.0316 4.02569 39.0348 4.13564 39.0159 4.24287C38.997 4.35009 38.9564 4.45234 38.8967 4.54333L37.2 7.482C37.0885 7.65433 36.915 7.7772 36.7155 7.82521C36.5159 7.87322 36.3055 7.84269 36.1278 7.73993C35.9502 7.63718 35.8188 7.47006 35.7608 7.27315C35.7029 7.07623 35.7229 6.86459 35.8167 6.682L35.816 6.684ZM24.7227 50.5493C24.7227 50.7615 24.6384 50.965 24.4884 51.115C24.3383 51.265 24.1348 51.3493 23.9227 51.3493H22.4667C22.3575 51.3564 22.248 51.341 22.145 51.3041C22.0421 51.2671 21.9477 51.2095 21.8679 51.1347C21.7881 51.0598 21.7245 50.9694 21.681 50.869C21.6375 50.7686 21.6151 50.6604 21.6151 50.551C21.6151 50.4416 21.6375 50.3334 21.681 50.233C21.7245 50.1326 21.7881 50.0422 21.8679 49.9674C21.9477 49.8925 22.0421 49.8349 22.145 49.7979C22.248 49.761 22.3575 49.7456 22.4667 49.7527H23.9333C24.1439 49.7548 24.3451 49.8398 24.4934 49.9893C24.6417 50.1388 24.725 50.3408 24.7253 50.5513L24.7227 50.5493Z" fill="black"/>
</svg>
