<svg width="35" height="35" viewBox="0 0 35 35" fill="none" xmlns="http://www.w3.org/2000/svg">
<path d="M2.0255 13.9108L4.47958 13.9108C4.77727 12.8077 5.21096 11.7582 5.77688 10.7775L4.03908 9.03965C3.64468 8.64525 3.44747 8.12693 3.44747 7.60861C3.44747 7.09029 3.64468 6.57273 4.03908 6.17833L6.1796 4.03781C6.96841 3.249 8.25211 3.249 9.04092 4.03781L10.7787 5.77561C11.7602 5.21045 12.8089 4.776 13.912 4.47906L13.912 2.02574C13.912 0.908263 14.821 7.54166e-05 15.9377 7.54654e-05L18.9562 7.55973e-05C20.0737 7.56462e-05 20.9819 0.909019 20.9819 2.02574L20.9819 4.47906C22.085 4.77675 23.1337 5.21045 24.1152 5.77561L25.853 4.03781C26.6418 3.249 27.9255 3.249 28.7143 4.03781L30.8556 6.17833C31.6436 6.96714 31.6429 8.25084 30.8556 9.03965L29.1178 10.7775C29.683 11.7589 30.1174 12.8077 30.4151 13.9108L32.8669 13.9108C33.9836 13.9108 34.8926 14.8197 34.8926 15.9365L34.8926 18.9549C34.8926 20.0724 33.9836 20.9806 32.8669 20.9806L30.4128 20.9806C30.1151 22.0837 29.6814 23.1325 29.1155 24.1139L30.8541 25.8517C31.6421 26.6405 31.6414 27.9242 30.8541 28.7131L28.7136 30.8536C27.9248 31.6424 26.6411 31.6424 25.8522 30.8536L24.1144 29.1158C23.133 29.6809 22.0842 30.1154 20.9811 30.4123L20.9811 32.8672C20.9811 33.9839 20.0722 34.8928 18.9554 34.8928L15.937 34.8928C14.8195 34.8928 13.9113 33.9839 13.9113 32.8672L13.9113 30.4131C12.8082 30.1154 11.7594 29.6817 10.778 29.1165L9.04017 30.8543C8.25135 31.6431 6.96765 31.6431 6.17884 30.8543L4.03832 28.7138C3.64392 28.3194 3.44672 27.8011 3.44672 27.2835C3.44672 26.7652 3.64392 26.2469 4.03832 25.8525L5.77612 24.1147C5.21096 23.1332 4.77651 22.0845 4.47882 20.9814L2.0255 20.9814C0.908772 20.9814 -0.000171014 20.0724 -0.000170965 18.9557L-0.000170833 15.9372C-0.000170784 14.8197 0.908772 13.9108 2.0255 13.9108ZM2.0255 15.4219C1.73687 15.4219 1.51096 15.6478 1.51096 15.9364L1.51096 18.9549C1.51096 19.2436 1.73687 19.4695 2.0255 19.4695L5.05909 19.4695C5.08251 19.4695 5.10292 19.4808 5.12634 19.4831C5.17847 19.4876 5.22683 19.4982 5.2767 19.5133C5.32279 19.5269 5.3651 19.5428 5.40665 19.5647C5.44972 19.5873 5.4875 19.6145 5.52528 19.6448C5.56306 19.675 5.59706 19.706 5.62879 19.743C5.65977 19.7793 5.68395 19.8178 5.70737 19.8601C5.7323 19.9047 5.7527 19.9493 5.76857 19.9991C5.77612 20.0218 5.79124 20.0392 5.79652 20.0626C6.09573 21.4135 6.62009 22.6814 7.35677 23.8306C7.36961 23.851 7.37112 23.8744 7.38245 23.8956C7.40588 23.9417 7.42325 23.987 7.43686 24.0361C7.45046 24.0837 7.46028 24.129 7.46406 24.1774C7.46783 24.2242 7.46557 24.2696 7.46103 24.3164C7.45575 24.3663 7.44819 24.4131 7.43308 24.4607C7.41948 24.5053 7.40059 24.5454 7.37868 24.5869C7.3545 24.633 7.3273 24.6746 7.2933 24.7154C7.27819 24.7335 7.27214 24.7554 7.25552 24.7728L5.10745 26.9209C4.90798 27.1211 4.90873 27.4452 5.10745 27.6447L7.24796 29.7852C7.34392 29.8812 7.47237 29.934 7.60988 29.934C7.74739 29.934 7.87659 29.8812 7.97179 29.7852L10.1199 27.6371C10.1372 27.6198 10.1592 27.6137 10.178 27.5986C10.2181 27.5654 10.2596 27.5382 10.305 27.5147C10.3473 27.4921 10.3888 27.4724 10.4342 27.4588C10.4803 27.4445 10.5264 27.4369 10.5747 27.4316C10.6231 27.4263 10.6692 27.4241 10.7175 27.4286C10.7651 27.4324 10.8089 27.4422 10.8558 27.4558C10.9057 27.4694 10.9517 27.4868 10.9978 27.511C11.019 27.5215 11.0424 27.523 11.0628 27.5359C12.212 28.2726 13.4799 28.7969 14.8308 29.0954C14.8542 29.1007 14.8716 29.1165 14.8943 29.1233C14.9434 29.1392 14.988 29.1596 15.0326 29.1845C15.0749 29.2087 15.1142 29.2329 15.1504 29.2639C15.1867 29.2948 15.2177 29.3288 15.2471 29.3659C15.2789 29.4044 15.3061 29.4429 15.3287 29.4875C15.3499 29.5283 15.365 29.5691 15.3786 29.6137C15.3945 29.6643 15.405 29.7142 15.4096 29.7686C15.4118 29.7912 15.4224 29.8101 15.4224 29.8336L15.4224 32.8672C15.4224 33.1558 15.6483 33.3817 15.937 33.3817L18.9554 33.3817C19.2441 33.3817 19.47 33.1558 19.47 32.8672L19.47 29.8336C19.47 29.7384 19.4911 29.6462 19.5251 29.56C19.5365 29.5306 19.5554 29.5064 19.5705 29.4784C19.5992 29.4256 19.6294 29.3757 19.6702 29.3311C19.6936 29.3047 19.7208 29.2843 19.748 29.2616C19.7903 29.2261 19.8349 29.1944 19.8855 29.1687C19.9195 29.1513 19.9535 29.1377 19.9906 29.1256C20.0155 29.1173 20.0367 29.1014 20.0631 29.0954C21.4141 28.7969 22.6819 28.2718 23.8311 27.5359C23.8515 27.523 23.8749 27.5215 23.8961 27.511C23.9422 27.4868 23.9883 27.4694 24.0381 27.4558C24.0842 27.443 24.1288 27.4331 24.1764 27.4286C24.2248 27.4248 24.2708 27.4263 24.3192 27.4316C24.3676 27.4369 24.4129 27.4445 24.4597 27.4588C24.5051 27.4724 24.5466 27.4921 24.5889 27.5147C24.6343 27.5389 24.6758 27.5654 24.7159 27.5986C24.734 27.6137 24.7567 27.6198 24.7741 27.6371L26.9221 29.7852C27.0181 29.8812 27.1465 29.934 27.284 29.934C27.4216 29.934 27.55 29.8812 27.646 29.7852L29.7865 27.6447C29.9859 27.4452 29.9859 27.1203 29.7865 26.9209L27.6384 24.7728C27.6354 24.7698 27.6346 24.766 27.6316 24.763C27.5689 24.6987 27.522 24.6247 27.4873 24.5454C27.479 24.5272 27.4729 24.5091 27.4661 24.4902C27.4374 24.4094 27.4178 24.3255 27.417 24.2401C27.417 24.2394 27.417 24.2394 27.417 24.2386C27.417 24.2386 27.417 24.2386 27.417 24.2378C27.417 24.1525 27.4367 24.0678 27.4661 23.9855C27.4744 23.9613 27.4865 23.9394 27.4979 23.916C27.5115 23.888 27.519 23.8578 27.5364 23.8314C28.2731 22.6821 28.7974 21.4143 29.0966 20.0633C29.1019 20.0399 29.1178 20.0225 29.1246 19.9999C29.1405 19.95 29.1609 19.9054 29.1858 19.8609C29.2092 19.8185 29.2342 19.78 29.2644 19.7437C29.2961 19.7067 29.3301 19.6757 29.3679 19.6455C29.4057 19.6153 29.4434 19.5881 29.4865 19.5654C29.5281 19.5435 29.5711 19.5284 29.6165 19.5141C29.6656 19.4989 29.7139 19.4884 29.7668 19.4838C29.7902 19.4816 29.8099 19.4702 29.8341 19.4702L32.8669 19.4702C33.1555 19.4702 33.3814 19.2436 33.3814 18.9557L33.3814 15.9372C33.3814 15.6486 33.1555 15.4227 32.8669 15.4227L29.8333 15.4227C29.8099 15.4227 29.7895 15.4113 29.7661 15.4091C29.7139 15.4045 29.6656 15.394 29.6157 15.3788C29.5696 15.3652 29.5273 15.3494 29.4858 15.3275C29.4427 15.3048 29.4049 15.2776 29.3671 15.2474C29.3294 15.2172 29.2954 15.1862 29.2636 15.1492C29.2326 15.1129 29.2085 15.0744 29.185 15.032C29.1601 14.9875 29.1397 14.9429 29.1238 14.893C29.1163 14.8703 29.1012 14.853 29.0959 14.8295C28.7967 13.4786 28.2723 12.2108 27.5356 11.0615C27.5183 11.0343 27.5107 11.0049 27.4971 10.9769C27.4858 10.9535 27.4737 10.9316 27.4654 10.9074C27.4359 10.8251 27.4163 10.7404 27.4163 10.6551C27.4163 10.6543 27.4163 10.6535 27.4163 10.6528C27.4163 10.5667 27.4367 10.4835 27.4654 10.4027C27.4722 10.3838 27.4782 10.3664 27.4865 10.3475C27.522 10.2682 27.5689 10.1942 27.6308 10.1299C27.6339 10.1269 27.6346 10.1231 27.6376 10.1201L29.7857 7.97204C29.9852 7.77257 29.9852 7.44768 29.7857 7.24821L27.6452 5.10769C27.5492 5.01173 27.4208 4.95885 27.2833 4.95885C27.1458 4.95885 27.0166 5.01173 26.9214 5.10769L24.7733 7.25576C24.7559 7.27314 24.734 7.27919 24.7151 7.2943C24.6751 7.32754 24.6335 7.35474 24.5882 7.37816C24.5459 7.40083 24.5043 7.42048 24.459 7.43408C24.4129 7.44843 24.3668 7.45599 24.3184 7.46128C24.2701 7.46657 24.224 7.46883 24.1756 7.4643C24.128 7.46052 24.0842 7.4507 24.0374 7.4371C23.9875 7.4235 23.9414 7.40612 23.8953 7.38194C23.8742 7.37137 23.8508 7.36985 23.8304 7.35701C22.6811 6.62033 21.4133 6.09597 20.0623 5.79752C20.0359 5.79148 20.0147 5.77637 19.9898 5.7673C19.9528 5.75521 19.9195 5.74161 19.8855 5.72423C19.8349 5.69779 19.7896 5.66681 19.7473 5.63054C19.7201 5.60788 19.6944 5.58748 19.6702 5.56179C19.6294 5.51646 19.5984 5.46658 19.5697 5.41294C19.5546 5.38574 19.5365 5.36156 19.5251 5.33285C19.4911 5.24672 19.47 5.15529 19.47 5.06009L19.47 2.02574C19.47 1.73712 19.2441 1.51121 18.9554 1.51121L15.937 1.51121C15.6483 1.51121 15.4224 1.73712 15.4224 2.02574L15.4224 5.05934C15.4224 5.08276 15.4111 5.1024 15.4088 5.12583C15.4043 5.17872 15.3937 5.22783 15.3778 5.27845C15.3642 5.32303 15.3491 5.36534 15.3272 5.40614C15.3038 5.45072 15.2766 5.48925 15.2449 5.52779C15.2146 5.56481 15.1852 5.59805 15.1489 5.62903C15.1119 5.66001 15.0726 5.68495 15.0303 5.70912C14.9857 5.73406 14.9419 5.75445 14.8928 5.77032C14.8701 5.77788 14.8527 5.79299 14.8293 5.79828C13.4784 6.09673 12.2105 6.62184 11.0613 7.35776C11.0409 7.37061 11.0175 7.37212 10.9963 7.3827C10.9502 7.40688 10.9041 7.42426 10.8543 7.43786C10.8082 7.4507 10.7636 7.46052 10.716 7.46506C10.6677 7.46883 10.6216 7.46732 10.5732 7.46203C10.5249 7.45674 10.4795 7.44919 10.4327 7.43483C10.3873 7.42123 10.3458 7.40159 10.3035 7.37892C10.2581 7.35474 10.2166 7.3283 10.1765 7.29505C10.1584 7.27994 10.1357 7.2739 10.1184 7.25652L7.97028 5.10844C7.87433 5.01249 7.74588 4.9596 7.60837 4.9596C7.47086 4.9596 7.34241 5.01249 7.24645 5.10844L5.10594 7.24896C4.90647 7.44843 4.90571 7.77257 5.10594 7.9728L7.25401 10.1209C7.27139 10.1382 7.27743 10.1609 7.29254 10.179C7.32654 10.2198 7.35299 10.2614 7.37717 10.3067C7.39908 10.3483 7.41797 10.3891 7.43232 10.4329C7.44743 10.4813 7.45575 10.5289 7.46103 10.5787C7.46557 10.6248 7.46784 10.6687 7.46406 10.7147C7.46028 10.7639 7.4497 10.8107 7.4361 10.8591C7.4225 10.9074 7.40512 10.952 7.3817 10.9973C7.37037 11.0185 7.36961 11.0419 7.35601 11.0623C6.61934 12.2115 6.09497 13.4794 5.79577 14.8303C5.79048 14.8537 5.77461 14.8711 5.76781 14.8938C5.75195 14.9436 5.73155 14.9882 5.70661 15.0328C5.68319 15.0751 5.65826 15.1136 5.62804 15.1499C5.5963 15.1869 5.5623 15.2179 5.52452 15.2481C5.48674 15.2784 5.44896 15.3056 5.4059 15.3282C5.36434 15.3501 5.32127 15.3652 5.27594 15.3796C5.22683 15.3947 5.17847 15.4053 5.12558 15.4098C5.10216 15.4121 5.08251 15.4234 5.05834 15.4234L2.0255 15.4234L2.0255 15.4219Z" fill="black"/>
</svg>
