<svg width="6" height="13" viewBox="0 0 6 13" fill="none" xmlns="http://www.w3.org/2000/svg">
<path d="M2 0.892822V2.07682C0.839 2.49082 0 3.59082 0 4.89282C0 6.54682 1.346 7.89282 3 7.89282C3.552 7.89282 4 8.34082 4 8.89282C4 9.44482 3.552 9.89282 3 9.89282C2.448 9.89282 2 9.44482 2 8.89282V8.49282H0V8.89282C0 10.1948 0.839 11.2948 2 11.7088V12.8928H4V11.7088C5.161 11.2948 6 10.1948 6 8.89282C6 7.23882 4.654 5.89282 3 5.89282C2.448 5.89282 2 5.44482 2 4.89282C2 4.34082 2.448 3.89282 3 3.89282C3.552 3.89282 4 4.34082 4 4.89282V5.29282H6V4.89282C6 3.59082 5.161 2.49082 4 2.07682V0.892822H2Z" fill="black"/>
</svg>
