<svg width="66" height="19" viewBox="0 0 66 19" fill="none" xmlns="http://www.w3.org/2000/svg">
<path d="M8.66624 18.6559C8.75015 18.758 8.8541 18.8412 8.97147 18.9003C9.08884 18.9594 9.21705 18.993 9.34793 18.999C9.47881 19.005 9.60947 18.9833 9.73161 18.9352C9.85375 18.8871 9.96468 18.8137 10.0573 18.7197C10.15 18.6257 10.2223 18.5131 10.2697 18.3891C10.3171 18.2652 10.3385 18.1325 10.3326 17.9997C10.3267 17.8669 10.2935 17.7368 10.2353 17.6176C10.1771 17.4985 10.0951 17.393 9.99447 17.3079L3.21789 10.4222L65.1044 10.4222C65.3462 10.4092 65.5739 10.3026 65.7405 10.1242C65.9071 9.94593 66 9.70955 66 9.4638C66 9.21805 65.9071 8.98167 65.7405 8.80335C65.5739 8.62504 65.3462 8.51838 65.1044 8.50536L3.21789 8.50536L10.0051 1.62781C10.1759 1.44624 10.2712 1.20485 10.2712 0.953803C10.2712 0.702756 10.1759 0.461362 10.0051 0.279797C9.91798 0.191108 9.81447 0.12074 9.70051 0.0727261C9.58655 0.0247124 9.46437 -4.9425e-06 9.34098 -4.95329e-06C9.21759 -4.96408e-06 9.09541 0.0247124 8.98145 0.072726C8.86749 0.12074 8.76398 0.191108 8.67687 0.279797L0.282533 8.79922C0.193192 8.88651 0.122117 8.99119 0.0735711 9.107C0.0250253 9.22281 8.43859e-07 9.34737 8.32856e-07 9.47323C8.21853e-07 9.59909 0.0250252 9.72365 0.0735711 9.83946C0.122117 9.95527 0.193192 10.06 0.282533 10.1472L8.66624 18.6559Z" fill="black"/>
</svg>
