<svg width="65" height="55" viewBox="0 0 65 55" fill="none" xmlns="http://www.w3.org/2000/svg">
    <rect width="65" height="55" fill="#F5F5F5" />
    <g clip-path="url(#clip0_0_1)">
        <rect width="1440" height="2914" transform="translate(-549 -2015)" fill="white" />
        <rect x="-548" y="-58" width="1439" height="576" fill="F8F8F8" />
        <path
            d="M38.9995 38.6364V54.3636C38.9995 54.7155 39.2789 55 39.6245 55H44.3745C44.7201 55 44.9995 54.7155 44.9995 54.3636V38.6364C44.9995 38.2845 44.7201 38 44.3745 38H39.6245C39.2789 38 38.9995 38.2845 38.9995 38.6364ZM40.2495 39.2727H43.7495V53.7273H40.2495V39.2727Z"
            fill="black" />
        <path
            d="M53.3745 55C53.7201 55 53.9995 54.7108 53.9995 54.3529V34.6471C53.9995 34.2892 53.7201 34 53.3745 34H48.6245C48.2789 34 47.9995 34.2892 47.9995 34.6471V54.3529C47.9995 54.7108 48.2789 55 48.6245 55H53.3745ZM49.2495 35.2941H52.7495V53.7059H49.2495V35.2941Z"
            fill="black" />
        <path
            d="M56.9995 30.6818V54.3182C56.9995 54.6952 57.3348 55 57.7495 55H63.2495C63.6643 55 63.9995 54.6952 63.9995 54.3182V30.6818C63.9995 30.3048 63.6643 30 63.2495 30H57.7495C57.3348 30 56.9995 30.3048 56.9995 30.6818ZM58.4995 31.3636H62.4995V53.6364H58.4995V31.3636Z"
            fill="black" />
        <path d="M5.82106 39.0304L0 45L1.52536 46.295L7.34643 40.3255L5.82106 39.0304Z" fill="black" />
        <path
            d="M46.1489 1C46.1489 0.447 45.7019 0 45.1489 0H39.1489V2H42.8969L33.9995 11.158L35.4835 12.5L44.1489 3.599V7H46.1489V1Z"
            fill="black" />
        <path
            d="M59.6667 19V21.6667H57V24.3333H59.6667V27H62.3333V24.3333H65V21.6667H62.3333V19H59.6667Z"
            fill="black" />
        <path
            d="M5.0255 21.9108L7.47958 21.9108C7.77727 20.8077 8.21096 19.7582 8.77688 18.7775L7.03908 17.0397C6.64468 16.6452 6.44747 16.1269 6.44747 15.6086C6.44747 15.0903 6.64468 14.5727 7.03908 14.1783L9.1796 12.0378C9.96841 11.249 11.2521 11.249 12.0409 12.0378L13.7787 13.7756C14.7602 13.2105 15.8089 12.776 16.912 12.4791L16.912 10.0257C16.912 8.90826 17.821 8.00008 18.9377 8.00008L21.9562 8.00008C23.0737 8.00008 23.9819 8.90902 23.9819 10.0257L23.9819 12.4791C25.085 12.7768 26.1337 13.2105 27.1152 13.7756L28.853 12.0378C29.6418 11.249 30.9255 11.249 31.7143 12.0378L33.8556 14.1783C34.6436 14.9671 34.6429 16.2508 33.8556 17.0397L32.1178 18.7775C32.683 19.7589 33.1174 20.8077 33.4151 21.9108L35.8669 21.9108C36.9836 21.9108 37.8926 22.8197 37.8926 23.9365L37.8926 26.9549C37.8926 28.0724 36.9836 28.9806 35.8669 28.9806L33.4128 28.9806C33.1151 30.0837 32.6814 31.1325 32.1155 32.1139L33.8541 33.8517C34.6421 34.6405 34.6414 35.9242 33.8541 36.7131L31.7136 38.8536C30.9248 39.6424 29.6411 39.6424 28.8522 38.8536L27.1144 37.1158C26.133 37.6809 25.0842 38.1154 23.9811 38.4123L23.9811 40.8672C23.9811 41.9839 23.0722 42.8928 21.9554 42.8928L18.937 42.8928C17.8195 42.8928 16.9113 41.9839 16.9113 40.8672L16.9113 38.4131C15.8082 38.1154 14.7594 37.6817 13.778 37.1165L12.0402 38.8543C11.2514 39.6431 9.96765 39.6431 9.17884 38.8543L7.03832 36.7138C6.64392 36.3194 6.44672 35.8011 6.44672 35.2835C6.44672 34.7652 6.64392 34.2469 7.03832 33.8525L8.77612 32.1147C8.21096 31.1332 7.77651 30.0845 7.47882 28.9814L5.0255 28.9814C3.90877 28.9814 2.99983 28.0724 2.99983 26.9557L2.99983 23.9372C2.99983 22.8197 3.90877 21.9108 5.0255 21.9108ZM5.0255 23.4219C4.73687 23.4219 4.51096 23.6478 4.51096 23.9364L4.51096 26.9549C4.51096 27.2436 4.73687 27.4695 5.0255 27.4695L8.05909 27.4695C8.08251 27.4695 8.10292 27.4808 8.12634 27.4831C8.17847 27.4876 8.22683 27.4982 8.2767 27.5133C8.32279 27.5269 8.3651 27.5428 8.40665 27.5647C8.44972 27.5873 8.4875 27.6145 8.52528 27.6448C8.56306 27.675 8.59706 27.706 8.62879 27.743C8.65977 27.7793 8.68395 27.8178 8.70737 27.8601C8.7323 27.9047 8.7527 27.9493 8.76857 27.9991C8.77612 28.0218 8.79124 28.0392 8.79652 28.0626C9.09573 29.4135 9.62009 30.6814 10.3568 31.8306C10.3696 31.851 10.3711 31.8744 10.3825 31.8956C10.4059 31.9417 10.4233 31.987 10.4369 32.0361C10.4505 32.0837 10.4603 32.129 10.4641 32.1774C10.4678 32.2242 10.4656 32.2696 10.461 32.3164C10.4557 32.3663 10.4482 32.4131 10.4331 32.4607C10.4195 32.5053 10.4006 32.5454 10.3787 32.5869C10.3545 32.633 10.3273 32.6746 10.2933 32.7154C10.2782 32.7335 10.2721 32.7554 10.2555 32.7728L8.10745 34.9209C7.90798 35.1211 7.90873 35.4452 8.10745 35.6447L10.248 37.7852C10.3439 37.8812 10.4724 37.934 10.6099 37.934C10.7474 37.934 10.8766 37.8812 10.9718 37.7852L13.1199 35.6371C13.1372 35.6198 13.1592 35.6137 13.178 35.5986C13.2181 35.5654 13.2596 35.5382 13.305 35.5147C13.3473 35.4921 13.3888 35.4724 13.4342 35.4588C13.4803 35.4445 13.5264 35.4369 13.5747 35.4316C13.6231 35.4263 13.6692 35.4241 13.7175 35.4286C13.7651 35.4324 13.8089 35.4422 13.8558 35.4558C13.9057 35.4694 13.9517 35.4868 13.9978 35.511C14.019 35.5215 14.0424 35.523 14.0628 35.5359C15.212 36.2726 16.4799 36.7969 17.8308 37.0954C17.8542 37.1007 17.8716 37.1165 17.8943 37.1233C17.9434 37.1392 17.988 37.1596 18.0326 37.1845C18.0749 37.2087 18.1142 37.2329 18.1504 37.2639C18.1867 37.2948 18.2177 37.3288 18.2471 37.3659C18.2789 37.4044 18.3061 37.4429 18.3287 37.4875C18.3499 37.5283 18.365 37.5691 18.3786 37.6137C18.3945 37.6643 18.405 37.7142 18.4096 37.7686C18.4118 37.7912 18.4224 37.8101 18.4224 37.8336L18.4224 40.8672C18.4224 41.1558 18.6483 41.3817 18.937 41.3817L21.9554 41.3817C22.2441 41.3817 22.47 41.1558 22.47 40.8672L22.47 37.8336C22.47 37.7384 22.4911 37.6462 22.5251 37.56C22.5365 37.5306 22.5554 37.5064 22.5705 37.4784C22.5992 37.4256 22.6294 37.3757 22.6702 37.3311C22.6936 37.3047 22.7208 37.2843 22.748 37.2616C22.7903 37.2261 22.8349 37.1944 22.8855 37.1687C22.9195 37.1513 22.9535 37.1377 22.9906 37.1256C23.0155 37.1173 23.0367 37.1014 23.0631 37.0954C24.4141 36.7969 25.6819 36.2718 26.8311 35.5359C26.8515 35.523 26.8749 35.5215 26.8961 35.511C26.9422 35.4868 26.9883 35.4694 27.0381 35.4558C27.0842 35.443 27.1288 35.4331 27.1764 35.4286C27.2248 35.4248 27.2708 35.4263 27.3192 35.4316C27.3676 35.4369 27.4129 35.4445 27.4597 35.4588C27.5051 35.4724 27.5466 35.4921 27.5889 35.5147C27.6343 35.5389 27.6758 35.5654 27.7159 35.5986C27.734 35.6137 27.7567 35.6198 27.7741 35.6371L29.9221 37.7852C30.0181 37.8812 30.1465 37.934 30.284 37.934C30.4216 37.934 30.55 37.8812 30.646 37.7852L32.7865 35.6447C32.9859 35.4452 32.9859 35.1203 32.7865 34.9209L30.6384 32.7728C30.6354 32.7698 30.6346 32.766 30.6316 32.763C30.5689 32.6987 30.522 32.6247 30.4873 32.5454C30.479 32.5272 30.4729 32.5091 30.4661 32.4902C30.4374 32.4094 30.4178 32.3255 30.417 32.2401C30.417 32.2394 30.417 32.2394 30.417 32.2386C30.417 32.2386 30.417 32.2386 30.417 32.2378C30.417 32.1525 30.4367 32.0678 30.4661 31.9855C30.4744 31.9613 30.4865 31.9394 30.4979 31.916C30.5115 31.888 30.519 31.8578 30.5364 31.8314C31.2731 30.6821 31.7974 29.4143 32.0966 28.0633C32.1019 28.0399 32.1178 28.0225 32.1246 27.9999C32.1405 27.95 32.1609 27.9054 32.1858 27.8609C32.2092 27.8185 32.2342 27.78 32.2644 27.7437C32.2961 27.7067 32.3301 27.6757 32.3679 27.6455C32.4057 27.6153 32.4434 27.5881 32.4865 27.5654C32.5281 27.5435 32.5711 27.5284 32.6165 27.5141C32.6656 27.4989 32.7139 27.4884 32.7668 27.4838C32.7902 27.4816 32.8099 27.4702 32.8341 27.4702L35.8669 27.4702C36.1555 27.4702 36.3814 27.2436 36.3814 26.9557L36.3814 23.9372C36.3814 23.6486 36.1555 23.4227 35.8669 23.4227L32.8333 23.4227C32.8099 23.4227 32.7895 23.4113 32.7661 23.4091C32.7139 23.4045 32.6656 23.394 32.6157 23.3788C32.5696 23.3652 32.5273 23.3494 32.4858 23.3275C32.4427 23.3048 32.4049 23.2776 32.3671 23.2474C32.3294 23.2172 32.2954 23.1862 32.2636 23.1492C32.2326 23.1129 32.2085 23.0744 32.185 23.032C32.1601 22.9875 32.1397 22.9429 32.1238 22.893C32.1163 22.8703 32.1012 22.853 32.0959 22.8295C31.7967 21.4786 31.2723 20.2108 30.5356 19.0615C30.5183 19.0343 30.5107 19.0049 30.4971 18.9769C30.4858 18.9535 30.4737 18.9316 30.4654 18.9074C30.4359 18.8251 30.4163 18.7404 30.4163 18.6551C30.4163 18.6543 30.4163 18.6535 30.4163 18.6528C30.4163 18.5667 30.4367 18.4835 30.4654 18.4027C30.4722 18.3838 30.4782 18.3664 30.4865 18.3475C30.522 18.2682 30.5689 18.1942 30.6308 18.1299C30.6339 18.1269 30.6346 18.1231 30.6376 18.1201L32.7857 15.972C32.9852 15.7726 32.9852 15.4477 32.7857 15.2482L30.6452 13.1077C30.5492 13.0117 30.4208 12.9588 30.2833 12.9588C30.1458 12.9588 30.0166 13.0117 29.9214 13.1077L27.7733 15.2558C27.7559 15.2731 27.734 15.2792 27.7151 15.2943C27.6751 15.3275 27.6335 15.3547 27.5882 15.3782C27.5459 15.4008 27.5043 15.4205 27.459 15.4341C27.4129 15.4484 27.3668 15.456 27.3184 15.4613C27.2701 15.4666 27.224 15.4688 27.1756 15.4643C27.128 15.4605 27.0842 15.4507 27.0374 15.4371C26.9875 15.4235 26.9414 15.4061 26.8953 15.3819C26.8742 15.3714 26.8508 15.3699 26.8304 15.357C25.6811 14.6203 24.4133 14.096 23.0623 13.7975C23.0359 13.7915 23.0147 13.7764 22.9898 13.7673C22.9528 13.7552 22.9195 13.7416 22.8855 13.7242C22.8349 13.6978 22.7896 13.6668 22.7473 13.6305C22.7201 13.6079 22.6944 13.5875 22.6702 13.5618C22.6294 13.5165 22.5984 13.4666 22.5697 13.4129C22.5546 13.3857 22.5365 13.3616 22.5251 13.3329C22.4911 13.2467 22.47 13.1553 22.47 13.0601L22.47 10.0257C22.47 9.73712 22.2441 9.51121 21.9554 9.51121L18.937 9.51121C18.6483 9.51121 18.4224 9.73712 18.4224 10.0257L18.4224 13.0593C18.4224 13.0828 18.4111 13.1024 18.4088 13.1258C18.4043 13.1787 18.3937 13.2278 18.3778 13.2785C18.3642 13.323 18.3491 13.3653 18.3272 13.4061C18.3038 13.4507 18.2766 13.4893 18.2449 13.5278C18.2146 13.5648 18.1852 13.5981 18.1489 13.629C18.1119 13.66 18.0726 13.6849 18.0303 13.7091C17.9857 13.7341 17.9419 13.7545 17.8928 13.7703C17.8701 13.7779 17.8527 13.793 17.8293 13.7983C16.4784 14.0967 15.2105 14.6218 14.0613 15.3578C14.0409 15.3706 14.0175 15.3721 13.9963 15.3827C13.9502 15.4069 13.9041 15.4243 13.8543 15.4379C13.8082 15.4507 13.7636 15.4605 13.716 15.4651C13.6677 15.4688 13.6216 15.4673 13.5732 15.462C13.5249 15.4567 13.4795 15.4492 13.4327 15.4348C13.3873 15.4212 13.3458 15.4016 13.3035 15.3789C13.2581 15.3547 13.2166 15.3283 13.1765 15.2951C13.1584 15.2799 13.1357 15.2739 13.1184 15.2565L10.9703 13.1084C10.8743 13.0125 10.7459 12.9596 10.6084 12.9596C10.4709 12.9596 10.3424 13.0125 10.2465 13.1084L8.10594 15.249C7.90647 15.4484 7.90571 15.7726 8.10594 15.9728L10.254 18.1209C10.2714 18.1382 10.2774 18.1609 10.2925 18.179C10.3265 18.2198 10.353 18.2614 10.3772 18.3067C10.3991 18.3483 10.418 18.3891 10.4323 18.4329C10.4474 18.4813 10.4557 18.5289 10.461 18.5787C10.4656 18.6248 10.4678 18.6687 10.4641 18.7147C10.4603 18.7639 10.4497 18.8107 10.4361 18.8591C10.4225 18.9074 10.4051 18.952 10.3817 18.9973C10.3704 19.0185 10.3696 19.0419 10.356 19.0623C9.61934 20.2115 9.09497 21.4794 8.79577 22.8303C8.79048 22.8537 8.77461 22.8711 8.76781 22.8938C8.75195 22.9436 8.73155 22.9882 8.70661 23.0328C8.68319 23.0751 8.65826 23.1136 8.62804 23.1499C8.5963 23.1869 8.5623 23.2179 8.52452 23.2481C8.48674 23.2784 8.44896 23.3056 8.4059 23.3282C8.36434 23.3501 8.32127 23.3652 8.27594 23.3796C8.22683 23.3947 8.17847 23.4053 8.12558 23.4098C8.10216 23.4121 8.08251 23.4234 8.05834 23.4234L5.0255 23.4234L5.0255 23.4219Z"
            fill="black" />
        <path
            d="M19 18.8928V20.0768C17.839 20.4908 17 21.5908 17 22.8928C17 24.5468 18.346 25.8928 20 25.8928C20.552 25.8928 21 26.3408 21 26.8928C21 27.4448 20.552 27.8928 20 27.8928C19.448 27.8928 19 27.4448 19 26.8928V26.4928H17V26.8928C17 28.1948 17.839 29.2948 19 29.7088V30.8928H21V29.7088C22.161 29.2948 23 28.1948 23 26.8928C23 25.2388 21.654 23.8928 20 23.8928C19.448 23.8928 19 23.4448 19 22.8928C19 22.3408 19.448 21.8928 20 21.8928C20.552 21.8928 21 22.3408 21 22.8928V23.2928H23V22.8928C23 21.5908 22.161 20.4908 21 20.0768V18.8928H19Z"
            fill="black" />
    </g>
    <defs>
        <clipPath id="clip0_0_1">
            <rect width="1440" height="2914" fill="white" transform="translate(-549 -2015)" />
        </clipPath>
    </defs>
</svg>